{"glyphs":{"0":{"ha":471,"x_min":67,"x_max":404,"o":"m 67 61 l 71 939 l 146 985 l 328 986 l 403 939 l 404 57 l 350 0 l 140 0 l 67 61 m 285 94 q 306 108 306 94 l 306 879 q 299 892 306 886 q 282 899 292 899 l 196 899 q 169 878 169 899 l 169 110 q 188 92 169 92 l 285 94 m 188 553 l 285 572 l 276 446 l 200 446 l 188 553 z "},"1":{"ha":471,"x_min":51,"x_max":442,"o":"m 51 93 l 196 93 l 206 886 l 94 886 l 74 929 l 74 988 l 310 988 l 310 93 l 442 93 l 442 0 l 51 0 l 51 93 z "},"2":{"ha":471,"x_min":79,"x_max":410,"o":"m 92 418 l 264 603 l 283 903 l 167 903 l 146 782 l 79 782 l 79 986 l 325 986 l 381 921 l 381 569 l 217 399 l 186 94 l 410 94 l 410 0 l 92 0 l 92 418 z "},"3":{"ha":471,"x_min":60,"x_max":394,"o":"m 75 222 l 136 222 l 168 96 l 289 96 l 279 453 l 261 475 l 117 475 l 117 572 l 261 572 l 279 592 l 289 900 l 147 900 l 126 776 l 60 776 l 60 986 l 296 986 l 390 910 l 390 613 q 366 563 390 583 q 306 531 342 542 q 369 502 343 522 q 394 451 394 482 l 394 81 l 318 0 l 75 0 l 75 222 z "},"4":{"ha":471,"x_min":43,"x_max":457,"o":"m 272 210 l 69 210 l 43 293 l 221 986 l 374 988 l 376 311 l 457 289 l 457 210 l 376 210 l 378 0 l 274 0 l 272 210 m 268 311 l 301 922 l 292 922 l 149 311 l 268 311 z "},"5":{"ha":471,"x_min":88,"x_max":403,"o":"m 88 225 l 151 225 l 179 90 l 300 111 l 283 465 l 104 482 l 104 986 l 403 986 l 403 892 l 190 892 l 215 568 l 307 568 l 393 494 l 393 65 l 319 0 l 88 0 l 88 225 z "},"6":{"ha":471,"x_min":68,"x_max":404,"o":"m 69 65 l 68 907 l 143 986 l 383 986 l 383 761 l 319 761 l 289 892 l 163 892 l 172 565 l 318 564 l 404 490 l 404 65 l 332 0 l 146 0 l 69 65 m 306 110 l 306 446 l 294 456 l 165 456 l 165 114 l 176 103 l 294 96 l 306 110 z "},"7":{"ha":471,"x_min":71,"x_max":403,"o":"m 301 893 l 161 893 l 139 764 l 71 764 l 71 986 l 403 986 l 403 924 l 225 0 l 115 0 l 301 893 z "},"8":{"ha":471,"x_min":67,"x_max":410,"o":"m 68 74 l 67 426 q 92 485 67 461 q 154 521 118 508 q 101 558 122 535 q 79 607 79 581 l 79 910 l 156 986 l 329 986 l 396 910 l 396 608 q 376 560 396 583 q 329 521 357 538 q 386 487 363 510 q 410 431 410 464 l 408 74 l 335 0 l 151 0 l 68 74 m 274 583 l 301 606 l 294 881 l 278 897 l 194 897 l 178 881 l 171 606 l 201 583 l 274 583 m 289 103 l 306 117 l 310 425 l 278 454 l 193 454 l 163 425 l 167 119 l 186 103 l 289 103 z "},"9":{"ha":471,"x_min":68,"x_max":404,"o":"m 89 225 l 153 225 l 183 90 l 299 106 l 307 424 l 154 422 l 68 496 l 68 921 l 140 986 l 326 986 l 403 921 l 404 79 l 329 0 l 89 0 l 89 225 m 307 519 l 307 881 l 296 892 l 178 890 l 167 876 l 167 529 l 178 519 l 307 519 z "},"\u0000":{"ha":0,"x_min":0,"x_max":0,"o":""},"\r":{"ha":206,"x_min":0,"x_max":0,"o":""}," ":{"ha":206,"x_min":0,"x_max":0,"o":""},"A":{"ha":397,"x_min":25,"x_max":342,"o":"m 88 986 l 342 986 l 342 0 l 261 0 l 225 386 l 154 386 l 90 0 l 25 0 l 88 986 m 246 451 q 254 460 254 451 l 254 933 q 246 942 254 942 l 186 942 q 178 933 178 942 l 178 458 q 186 451 178 451 l 246 451 z "},"Á":{"ha":397,"x_min":25,"x_max":342,"o":"m 88 986 l 342 986 l 342 0 l 261 0 l 225 386 l 154 386 l 90 0 l 25 0 l 88 986 m 246 451 q 254 460 254 451 l 254 933 q 246 942 254 942 l 186 942 q 178 933 178 942 l 178 458 q 186 451 178 451 l 246 451 m 114 1104 l 274 1218 l 322 1139 l 144 1056 l 114 1104 z "},"Ă":{"ha":397,"x_min":25,"x_max":342,"o":"m 88 986 l 342 986 l 342 0 l 261 0 l 225 386 l 154 386 l 90 0 l 25 0 l 88 986 m 246 451 q 254 460 254 451 l 254 933 q 246 942 254 942 l 186 942 q 178 933 178 942 l 178 458 q 186 451 178 451 l 246 451 m 78 1114 l 72 1219 l 146 1219 l 139 1164 l 156 1149 l 281 1142 l 276 1219 l 340 1217 l 340 1129 l 286 1075 l 140 1075 l 78 1114 z "},"Ắ":{"ha":397,"x_min":25,"x_max":342,"o":"m 88 986 l 342 986 l 342 0 l 261 0 l 225 386 l 154 386 l 90 0 l 25 0 l 88 986 m 246 451 q 254 460 254 451 l 254 933 q 246 942 254 942 l 186 942 q 178 933 178 942 l 178 458 q 186 451 178 451 l 246 451 m 78 1114 l 72 1219 l 146 1219 l 139 1164 l 156 1149 l 281 1142 l 276 1219 l 340 1217 l 340 1129 l 286 1075 l 140 1075 l 78 1114 m 114 1285 l 274 1399 l 322 1319 l 144 1236 l 114 1285 z "},"Ặ":{"ha":397,"x_min":25,"x_max":342,"o":"m 88 986 l 342 986 l 342 0 l 261 0 l 225 386 l 154 386 l 90 0 l 25 0 l 88 986 m 246 451 q 254 460 254 451 l 254 933 q 246 942 254 942 l 186 942 q 178 933 178 942 l 178 458 q 186 451 178 451 l 246 451 m 122 -78 l 251 -78 l 251 -210 l 128 -214 l 122 -78 m 78 1114 l 72 1219 l 146 1219 l 139 1164 l 156 1149 l 281 1142 l 276 1219 l 340 1217 l 340 1129 l 286 1075 l 140 1075 l 78 1114 z "},"Ằ":{"ha":397,"x_min":25,"x_max":342,"o":"m 88 986 l 342 986 l 342 0 l 261 0 l 225 386 l 154 386 l 90 0 l 25 0 l 88 986 m 246 451 q 254 460 254 451 l 254 933 q 246 942 254 942 l 186 942 q 178 933 178 942 l 178 458 q 186 451 178 451 l 246 451 m 78 1114 l 72 1219 l 146 1219 l 139 1164 l 156 1149 l 281 1142 l 276 1219 l 340 1217 l 340 1129 l 286 1075 l 140 1075 l 78 1114 m 93 1319 l 142 1399 l 301 1285 l 271 1236 l 93 1319 z "},"Ẳ":{"ha":397,"x_min":25,"x_max":342,"o":"m 88 986 l 342 986 l 342 0 l 261 0 l 225 386 l 154 386 l 90 0 l 25 0 l 88 986 m 246 451 q 254 460 254 451 l 254 933 q 246 942 254 942 l 186 942 q 178 933 178 942 l 178 458 q 186 451 178 451 l 246 451 m 78 1114 l 72 1219 l 146 1219 l 139 1164 l 156 1149 l 281 1142 l 276 1219 l 340 1217 l 340 1129 l 286 1075 l 140 1075 l 78 1114 m 172 1274 l 228 1315 l 225 1333 l 136 1343 l 135 1389 l 251 1396 q 287 1384 274 1397 q 300 1347 300 1371 l 300 1281 l 232 1253 l 228 1229 l 178 1229 l 172 1274 z "},"Ẵ":{"ha":397,"x_min":25,"x_max":365,"o":"m 88 986 l 342 986 l 342 0 l 261 0 l 225 386 l 154 386 l 90 0 l 25 0 l 88 986 m 246 451 q 254 460 254 451 l 254 933 q 246 942 254 942 l 186 942 q 178 933 178 942 l 178 458 q 186 451 178 451 l 246 451 m 78 1114 l 72 1219 l 146 1219 l 139 1164 l 156 1149 l 281 1142 l 276 1219 l 340 1217 l 340 1129 l 286 1075 l 140 1075 l 78 1114 m 49 1318 l 85 1350 q 138 1369 108 1369 q 213 1342 172 1369 l 265 1307 l 365 1374 l 365 1297 l 332 1265 q 301 1243 318 1253 q 271 1233 283 1233 q 208 1260 246 1233 l 147 1303 l 53 1229 l 49 1318 z "},"Ǎ":{"ha":397,"x_min":25,"x_max":360,"o":"m 88 986 l 342 986 l 342 0 l 261 0 l 225 386 l 154 386 l 90 0 l 25 0 l 88 986 m 246 451 q 254 460 254 451 l 254 933 q 246 942 254 942 l 186 942 q 178 933 178 942 l 178 458 q 186 451 178 451 l 246 451 m 57 1168 l 94 1215 l 213 1136 l 326 1215 l 360 1168 l 240 1057 l 176 1054 l 57 1168 z "},"Â":{"ha":397,"x_min":25,"x_max":343,"o":"m 88 986 l 342 986 l 342 0 l 261 0 l 225 386 l 154 386 l 90 0 l 25 0 l 88 986 m 246 451 q 254 460 254 451 l 254 933 q 246 942 254 942 l 186 942 q 178 933 178 942 l 178 458 q 186 451 178 451 l 246 451 m 213 1111 l 122 1046 l 82 1083 l 185 1190 l 240 1193 l 343 1083 l 306 1043 l 213 1111 z "},"Ấ":{"ha":397,"x_min":25,"x_max":343,"o":"m 88 986 l 342 986 l 342 0 l 261 0 l 225 386 l 154 386 l 90 0 l 25 0 l 88 986 m 246 451 q 254 460 254 451 l 254 933 q 246 942 254 942 l 186 942 q 178 933 178 942 l 178 458 q 186 451 178 451 l 246 451 m 213 1111 l 122 1046 l 82 1083 l 185 1190 l 240 1193 l 343 1083 l 306 1043 l 213 1111 m 118 1268 l 278 1382 l 326 1303 l 149 1219 l 118 1268 z "},"Ậ":{"ha":397,"x_min":25,"x_max":343,"o":"m 88 986 l 342 986 l 342 0 l 261 0 l 225 386 l 154 386 l 90 0 l 25 0 l 88 986 m 246 451 q 254 460 254 451 l 254 933 q 246 942 254 942 l 186 942 q 178 933 178 942 l 178 458 q 186 451 178 451 l 246 451 m 122 -78 l 251 -78 l 251 -210 l 128 -214 l 122 -78 m 213 1111 l 122 1046 l 82 1083 l 185 1190 l 240 1193 l 343 1083 l 306 1043 l 213 1111 z "},"Ầ":{"ha":397,"x_min":25,"x_max":343,"o":"m 88 986 l 342 986 l 342 0 l 261 0 l 225 386 l 154 386 l 90 0 l 25 0 l 88 986 m 246 451 q 254 460 254 451 l 254 933 q 246 942 254 942 l 186 942 q 178 933 178 942 l 178 458 q 186 451 178 451 l 246 451 m 213 1111 l 122 1046 l 82 1083 l 185 1190 l 240 1193 l 343 1083 l 306 1043 l 213 1111 m 97 1303 l 146 1382 l 306 1268 l 275 1219 l 97 1303 z "},"Ẩ":{"ha":397,"x_min":25,"x_max":343,"o":"m 88 986 l 342 986 l 342 0 l 261 0 l 225 386 l 154 386 l 90 0 l 25 0 l 88 986 m 246 451 q 254 460 254 451 l 254 933 q 246 942 254 942 l 186 942 q 178 933 178 942 l 178 458 q 186 451 178 451 l 246 451 m 213 1111 l 122 1046 l 82 1083 l 185 1190 l 240 1193 l 343 1083 l 306 1043 l 213 1111 m 176 1257 l 232 1299 l 229 1317 l 140 1326 l 139 1372 l 256 1379 q 291 1367 278 1381 q 304 1331 304 1354 l 304 1264 l 236 1236 l 232 1213 l 182 1213 l 176 1257 z "},"Ẫ":{"ha":397,"x_min":25,"x_max":369,"o":"m 88 986 l 342 986 l 342 0 l 261 0 l 225 386 l 154 386 l 90 0 l 25 0 l 88 986 m 246 451 q 254 460 254 451 l 254 933 q 246 942 254 942 l 186 942 q 178 933 178 942 l 178 458 q 186 451 178 451 l 246 451 m 213 1111 l 122 1046 l 82 1083 l 185 1190 l 240 1193 l 343 1083 l 306 1043 l 213 1111 m 53 1301 l 89 1333 q 142 1353 113 1353 q 217 1325 176 1353 l 269 1290 l 369 1357 l 369 1281 l 336 1249 q 305 1226 322 1236 q 275 1217 288 1217 q 213 1243 250 1217 l 151 1286 l 57 1213 l 53 1301 z "},"Ȁ":{"ha":397,"x_min":15,"x_max":376,"o":"m 88 986 l 342 986 l 342 0 l 261 0 l 225 386 l 154 386 l 90 0 l 25 0 l 88 986 m 246 451 q 254 460 254 451 l 254 933 q 246 942 254 942 l 186 942 q 178 933 178 942 l 178 458 q 186 451 178 451 l 246 451 m 15 1131 l 64 1207 l 196 1097 l 165 1056 l 15 1131 m 196 1131 l 244 1207 l 376 1097 l 346 1056 l 196 1131 z "},"Ä":{"ha":397,"x_min":25,"x_max":360,"o":"m 88 986 l 342 986 l 342 0 l 261 0 l 225 386 l 154 386 l 90 0 l 25 0 l 88 986 m 246 451 q 254 460 254 451 l 254 933 q 246 942 254 942 l 186 942 q 178 933 178 942 l 178 458 q 186 451 178 451 l 246 451 m 56 1188 l 171 1192 l 165 1076 l 56 1076 l 56 1188 m 250 1192 l 360 1192 l 360 1081 l 254 1076 l 250 1192 z "},"Ạ":{"ha":397,"x_min":25,"x_max":342,"o":"m 88 986 l 342 986 l 342 0 l 261 0 l 225 386 l 154 386 l 90 0 l 25 0 l 88 986 m 246 451 q 254 460 254 451 l 254 933 q 246 942 254 942 l 186 942 q 178 933 178 942 l 178 458 q 186 451 178 451 l 246 451 m 122 -78 l 251 -78 l 251 -210 l 128 -214 l 122 -78 z "},"À":{"ha":397,"x_min":25,"x_max":342,"o":"m 88 986 l 342 986 l 342 0 l 261 0 l 225 386 l 154 386 l 90 0 l 25 0 l 88 986 m 246 451 q 254 460 254 451 l 254 933 q 246 942 254 942 l 186 942 q 178 933 178 942 l 178 458 q 186 451 178 451 l 246 451 m 93 1139 l 142 1218 l 301 1104 l 271 1056 l 93 1139 z "},"Ả":{"ha":397,"x_min":25,"x_max":342,"o":"m 88 986 l 342 986 l 342 0 l 261 0 l 225 386 l 154 386 l 90 0 l 25 0 l 88 986 m 246 451 q 254 460 254 451 l 254 933 q 246 942 254 942 l 186 942 q 178 933 178 942 l 178 458 q 186 451 178 451 l 246 451 m 172 1093 l 228 1135 l 225 1153 l 136 1163 l 135 1208 l 251 1215 q 287 1203 274 1217 q 300 1167 300 1190 l 300 1100 l 232 1072 l 228 1049 l 178 1049 l 172 1093 z "},"Ȃ":{"ha":397,"x_min":25,"x_max":342,"o":"m 88 986 l 342 986 l 342 0 l 261 0 l 225 386 l 154 386 l 90 0 l 25 0 l 88 986 m 246 451 q 254 460 254 451 l 254 933 q 246 942 254 942 l 186 942 q 178 933 178 942 l 178 458 q 186 451 178 451 l 246 451 m 265 1046 l 269 1129 l 172 1139 l 156 1124 l 163 1049 l 82 1049 l 88 1161 l 150 1200 l 282 1200 l 336 1146 l 336 1040 l 265 1046 z "},"Ā":{"ha":397,"x_min":25,"x_max":353,"o":"m 88 986 l 342 986 l 342 0 l 261 0 l 225 386 l 154 386 l 90 0 l 25 0 l 88 986 m 246 451 q 254 460 254 451 l 254 933 q 246 942 254 942 l 186 942 q 178 933 178 942 l 178 458 q 186 451 178 451 l 246 451 m 64 1169 l 353 1169 l 353 1100 l 68 1088 l 64 1169 z "},"Ą":{"ha":397,"x_min":25,"x_max":347,"o":"m 347 -169 l 347 -206 l 267 -250 l 164 -189 l 164 -93 l 269 0 l 261 0 l 225 386 l 154 386 l 90 0 l 25 0 l 88 986 l 342 986 l 342 0 l 242 -118 l 267 -169 l 347 -169 m 254 933 q 246 942 254 942 l 186 942 q 178 933 178 942 l 178 458 q 186 451 178 451 l 246 451 q 254 460 254 451 l 254 933 z "},"Å":{"ha":397,"x_min":25,"x_max":342,"o":"m 88 986 l 342 986 l 342 0 l 261 0 l 225 386 l 154 386 l 90 0 l 25 0 l 88 986 m 246 451 q 254 460 254 451 l 254 933 q 246 942 254 942 l 186 942 q 178 933 178 942 l 178 458 q 186 451 178 451 l 246 451 m 121 1064 l 111 1179 l 139 1219 l 304 1214 l 304 1092 l 260 1049 l 121 1064 m 238 1104 q 247 1113 247 1104 l 247 1171 l 192 1167 q 181 1163 185 1167 q 176 1154 176 1160 l 176 1110 q 185 1104 176 1104 l 238 1104 z "},"Ǻ":{"ha":401,"x_min":29,"x_max":346,"o":"m 129 1179 l 314 1233 l 326 1157 l 151 1126 l 129 1179 m 92 986 l 125 986 l 125 1097 l 318 1106 l 318 986 l 346 986 l 346 0 l 265 0 l 229 386 l 158 386 l 94 0 l 29 0 l 92 986 m 250 986 q 260 994 260 986 l 260 1044 q 251 1053 260 1049 l 196 1060 q 185 1056 185 1060 l 185 992 q 189 986 185 986 l 250 986 m 250 451 q 258 460 258 451 l 258 933 q 257 938 258 936 l 182 938 l 182 458 q 190 451 182 451 l 250 451 z "},"Ã":{"ha":397,"x_min":25,"x_max":365,"o":"m 88 986 l 342 986 l 342 0 l 261 0 l 225 386 l 154 386 l 90 0 l 25 0 l 88 986 m 246 451 q 254 460 254 451 l 254 933 q 246 942 254 942 l 186 942 q 178 933 178 942 l 178 458 q 186 451 178 451 l 246 451 m 49 1138 l 85 1169 q 138 1189 108 1189 q 213 1161 172 1189 l 265 1126 l 365 1193 l 365 1117 l 332 1085 q 301 1063 318 1072 q 271 1053 283 1053 q 208 1079 246 1053 l 147 1122 l 53 1049 l 49 1138 z "},"Æ":{"ha":632,"x_min":29,"x_max":593,"o":"m 92 986 l 581 986 l 581 878 l 382 878 l 382 640 l 533 640 l 533 571 l 389 546 l 389 115 l 576 140 l 593 0 l 293 0 l 257 386 l 158 386 l 94 0 l 29 0 l 92 986 m 250 451 q 258 460 258 451 l 258 933 q 250 942 258 942 l 190 942 q 182 933 182 942 l 182 458 q 190 451 182 451 l 250 451 z "},"Ǽ":{"ha":632,"x_min":29,"x_max":593,"o":"m 92 986 l 581 986 l 581 878 l 382 878 l 382 640 l 533 640 l 533 571 l 389 546 l 389 115 l 576 140 l 593 0 l 293 0 l 257 386 l 158 386 l 94 0 l 29 0 l 92 986 m 250 451 q 258 460 258 451 l 258 933 q 250 942 258 942 l 190 942 q 182 933 182 942 l 182 458 q 190 451 182 451 l 250 451 m 222 1104 l 382 1218 l 431 1139 l 253 1056 l 222 1104 z "},"B":{"ha":399,"x_min":56,"x_max":349,"o":"m 56 986 l 213 986 q 295 972 256 986 q 335 919 335 958 l 333 906 l 293 551 q 288 530 290 535 q 278 519 286 525 q 330 508 311 514 q 349 489 349 501 l 349 69 q 313 36 349 44 q 244 28 278 28 l 56 28 l 56 986 m 204 586 q 217 599 217 590 l 231 899 q 211 904 231 904 l 151 904 q 135 899 135 904 l 135 576 q 151 565 135 565 l 204 586 m 201 106 q 244 147 244 106 l 244 460 q 244 466 244 464 q 239 468 243 468 l 181 468 q 172 465 176 468 q 165 460 167 463 l 165 110 q 171 107 167 108 q 181 106 175 106 l 201 106 z "},"C":{"ha":439,"x_min":56,"x_max":394,"o":"m 196 0 q 90 24 125 0 q 56 86 56 49 l 56 908 q 85 964 56 942 q 167 986 114 986 l 394 986 l 394 908 l 372 735 l 281 735 l 267 892 q 250 904 265 904 l 192 904 q 152 881 161 904 q 144 817 143 858 l 174 124 q 182 115 174 115 l 264 115 q 281 124 279 115 l 308 232 l 394 232 l 394 0 l 196 0 z "},"Ć":{"ha":439,"x_min":56,"x_max":394,"o":"m 196 0 q 90 24 125 0 q 56 86 56 49 l 56 908 q 85 964 56 942 q 167 986 114 986 l 394 986 l 394 908 l 372 735 l 281 735 l 267 892 q 250 904 265 904 l 192 904 q 152 881 161 904 q 144 817 143 858 l 174 124 q 182 115 174 115 l 264 115 q 281 124 279 115 l 308 232 l 394 232 l 394 0 l 196 0 m 149 1104 l 308 1218 l 357 1139 l 179 1056 l 149 1104 z "},"Č":{"ha":439,"x_min":56,"x_max":394,"o":"m 196 0 q 90 24 125 0 q 56 86 56 49 l 56 908 q 85 964 56 942 q 167 986 114 986 l 394 986 l 394 908 l 372 735 l 281 735 l 267 892 q 250 904 265 904 l 192 904 q 152 881 161 904 q 144 817 143 858 l 174 124 q 182 115 174 115 l 264 115 q 281 124 279 115 l 308 232 l 394 232 l 394 0 l 196 0 m 92 1168 l 129 1215 l 247 1136 l 361 1215 l 394 1168 l 275 1057 l 211 1054 l 92 1168 z "},"Ç":{"ha":439,"x_min":56,"x_max":394,"o":"m 192 904 q 152 881 161 904 q 144 817 143 858 l 174 124 q 182 115 174 115 l 264 115 q 281 124 279 115 l 308 232 l 394 232 l 394 0 l 269 0 l 225 -62 l 358 -86 l 365 -125 l 344 -215 q 250 -289 326 -289 q 226 -287 235 -289 l 88 -268 l 101 -201 l 265 -208 l 269 -153 l 128 -110 l 188 0 q 88 26 119 1 q 56 86 56 50 l 56 908 q 85 964 56 942 q 167 986 114 986 l 394 986 l 394 908 l 372 735 l 281 735 l 267 892 q 250 904 265 904 l 192 904 z "},"Ĉ":{"ha":439,"x_min":56,"x_max":394,"o":"m 196 0 q 90 24 125 0 q 56 86 56 49 l 56 908 q 85 964 56 942 q 167 986 114 986 l 394 986 l 394 908 l 372 735 l 281 735 l 267 892 q 250 904 265 904 l 192 904 q 152 881 161 904 q 144 817 143 858 l 174 124 q 182 115 174 115 l 264 115 q 281 124 279 115 l 308 232 l 394 232 l 394 0 l 196 0 m 247 1111 l 157 1046 l 117 1083 l 219 1190 l 275 1193 l 378 1083 l 340 1043 l 247 1111 z "},"Ċ":{"ha":439,"x_min":56,"x_max":394,"o":"m 196 0 q 90 24 125 0 q 56 86 56 49 l 56 908 q 85 964 56 942 q 167 986 114 986 l 394 986 l 394 908 l 372 735 l 281 735 l 267 892 q 250 904 265 904 l 192 904 q 152 881 161 904 q 144 817 143 858 l 174 124 q 182 115 174 115 l 264 115 q 281 124 279 115 l 308 232 l 394 232 l 394 0 l 196 0 m 178 1200 l 307 1200 l 307 1068 l 183 1064 l 178 1200 z "},"D":{"ha":410,"x_min":56,"x_max":367,"o":"m 56 986 l 215 986 q 324 943 282 986 q 367 833 367 900 l 325 79 l 240 0 l 56 0 l 56 986 m 219 99 q 232 117 232 107 l 247 886 q 231 894 247 894 l 168 894 q 160 892 164 894 q 156 886 156 889 l 156 100 l 168 92 l 219 99 z "},"Ǳ":{"ha":757,"x_min":56,"x_max":724,"o":"m 56 986 l 215 986 q 324 943 282 986 q 367 833 367 900 l 325 79 l 240 0 l 56 0 l 56 986 m 219 99 q 232 117 232 107 l 247 886 q 231 894 247 894 l 168 894 q 160 892 164 894 q 156 886 156 889 l 156 100 l 168 92 l 219 99 m 388 31 l 435 122 l 599 886 l 410 931 l 410 986 l 681 986 l 724 943 l 526 117 l 713 90 l 724 0 l 413 0 l 388 31 z "},"Ǆ":{"ha":757,"x_min":56,"x_max":724,"o":"m 56 986 l 215 986 q 324 943 282 986 q 367 833 367 900 l 325 79 l 240 0 l 56 0 l 56 986 m 219 99 q 232 117 232 107 l 247 886 q 231 894 247 894 l 168 894 q 160 892 164 894 q 156 886 156 889 l 156 100 l 168 92 l 219 99 m 388 31 l 435 122 l 599 886 l 410 931 l 410 986 l 681 986 l 724 943 l 526 117 l 713 90 l 724 0 l 413 0 l 388 31 m 417 1168 l 454 1215 l 572 1136 l 686 1215 l 719 1168 l 600 1057 l 536 1054 l 417 1168 z "},"Ð":{"ha":410,"x_min":-7,"x_max":367,"o":"m 215 986 q 324 943 282 986 q 367 833 367 900 l 325 79 l 240 0 l 56 0 l 56 469 l -3 469 l -7 550 l 56 547 l 56 986 l 215 986 m 247 886 q 231 894 247 894 l 168 894 q 160 892 164 894 q 156 886 156 889 l 156 542 l 218 538 l 218 469 l 156 469 l 156 100 l 168 92 l 219 99 q 232 117 232 107 l 247 886 z "},"Ď":{"ha":410,"x_min":50,"x_max":367,"o":"m 56 986 l 215 986 q 324 943 282 986 q 367 833 367 900 l 325 79 l 240 0 l 56 0 l 56 986 m 219 99 q 232 117 232 107 l 247 886 q 231 894 247 894 l 168 894 q 160 892 164 894 q 156 886 156 889 l 156 100 l 168 92 l 219 99 m 50 1168 l 88 1215 l 206 1136 l 319 1215 l 353 1168 l 233 1057 l 169 1054 l 50 1168 z "},"Đ":{"ha":410,"x_min":-7,"x_max":367,"o":"m 215 986 q 324 943 282 986 q 367 833 367 900 l 325 79 l 240 0 l 56 0 l 56 469 l -3 469 l -7 550 l 56 547 l 56 986 l 215 986 m 247 886 q 231 894 247 894 l 168 894 q 160 892 164 894 q 156 886 156 889 l 156 542 l 218 538 l 218 469 l 156 469 l 156 100 l 168 92 l 219 99 q 232 117 232 107 l 247 886 z "},"Ḍ":{"ha":410,"x_min":56,"x_max":367,"o":"m 56 986 l 215 986 q 324 943 282 986 q 367 833 367 900 l 325 79 l 240 0 l 56 0 l 56 986 m 219 99 q 232 117 232 107 l 247 886 q 231 894 247 894 l 168 894 q 160 892 164 894 q 156 886 156 889 l 156 100 l 168 92 l 219 99 m 119 -78 l 249 -78 l 249 -210 l 125 -214 l 119 -78 z "},"ǅ":{"ha":739,"x_min":56,"x_max":707,"o":"m 56 986 l 215 986 q 324 943 282 986 q 367 833 367 900 l 325 79 l 240 0 l 56 0 l 56 986 m 219 99 q 232 117 232 107 l 247 886 q 231 894 247 894 l 168 894 q 160 892 164 894 q 156 886 156 889 l 156 100 l 168 92 l 219 99 z "},"E":{"ha":411,"x_min":51,"x_max":378,"o":"m 83 986 l 365 986 l 365 878 l 167 878 l 167 592 l 318 592 l 318 522 l 174 497 l 174 143 l 374 168 l 378 28 l 51 28 l 83 986 z "},"É":{"ha":411,"x_min":51,"x_max":378,"o":"m 83 986 l 365 986 l 365 878 l 167 878 l 167 592 l 318 592 l 318 522 l 174 497 l 174 143 l 374 168 l 378 28 l 51 28 l 83 986 m 124 1104 l 283 1218 l 332 1139 l 154 1056 l 124 1104 z "},"Ĕ":{"ha":411,"x_min":51,"x_max":378,"o":"m 83 986 l 365 986 l 365 878 l 167 878 l 167 592 l 318 592 l 318 522 l 174 497 l 174 143 l 374 168 l 378 28 l 51 28 l 83 986 m 88 1114 l 82 1219 l 156 1219 l 149 1164 l 165 1149 l 290 1142 l 286 1219 l 350 1217 l 350 1129 l 296 1075 l 150 1075 l 88 1114 z "},"Ě":{"ha":411,"x_min":51,"x_max":378,"o":"m 83 986 l 365 986 l 365 878 l 167 878 l 167 592 l 318 592 l 318 522 l 174 497 l 174 143 l 374 168 l 378 28 l 51 28 l 83 986 m 67 1168 l 104 1215 l 222 1136 l 336 1215 l 369 1168 l 250 1057 l 186 1054 l 67 1168 z "},"Ê":{"ha":411,"x_min":51,"x_max":378,"o":"m 83 986 l 365 986 l 365 878 l 167 878 l 167 592 l 318 592 l 318 522 l 174 497 l 174 143 l 374 168 l 378 28 l 51 28 l 83 986 m 222 1111 l 132 1046 l 92 1083 l 194 1190 l 250 1193 l 353 1083 l 315 1043 l 222 1111 z "},"Ế":{"ha":411,"x_min":51,"x_max":378,"o":"m 83 986 l 365 986 l 365 878 l 167 878 l 167 592 l 318 592 l 318 522 l 174 497 l 174 143 l 374 168 l 378 28 l 51 28 l 83 986 m 222 1111 l 132 1046 l 92 1083 l 194 1190 l 250 1193 l 353 1083 l 315 1043 l 222 1111 m 128 1268 l 288 1382 l 336 1303 l 158 1219 l 128 1268 z "},"Ệ":{"ha":411,"x_min":51,"x_max":378,"o":"m 83 986 l 365 986 l 365 878 l 167 878 l 167 592 l 318 592 l 318 522 l 174 497 l 174 143 l 374 168 l 378 28 l 51 28 l 83 986 m 140 -78 l 269 -78 l 269 -210 l 146 -214 l 140 -78 m 222 1111 l 132 1046 l 92 1083 l 194 1190 l 250 1193 l 353 1083 l 315 1043 l 222 1111 z "},"Ề":{"ha":411,"x_min":51,"x_max":378,"o":"m 83 986 l 365 986 l 365 878 l 167 878 l 167 592 l 318 592 l 318 522 l 174 497 l 174 143 l 374 168 l 378 28 l 51 28 l 83 986 m 222 1111 l 132 1046 l 92 1083 l 194 1190 l 250 1193 l 353 1083 l 315 1043 l 222 1111 m 107 1303 l 156 1382 l 315 1268 l 285 1219 l 107 1303 z "},"Ể":{"ha":411,"x_min":51,"x_max":378,"o":"m 83 986 l 365 986 l 365 878 l 167 878 l 167 592 l 318 592 l 318 522 l 174 497 l 174 143 l 374 168 l 378 28 l 51 28 l 83 986 m 222 1111 l 132 1046 l 92 1083 l 194 1190 l 250 1193 l 353 1083 l 315 1043 l 222 1111 m 186 1257 l 242 1299 l 239 1317 l 150 1326 l 149 1372 l 265 1379 q 301 1367 288 1381 q 314 1331 314 1354 l 314 1264 l 246 1236 l 242 1213 l 192 1213 l 186 1257 z "},"Ễ":{"ha":411,"x_min":51,"x_max":379,"o":"m 83 986 l 365 986 l 365 878 l 167 878 l 167 592 l 318 592 l 318 522 l 174 497 l 174 143 l 374 168 l 378 28 l 51 28 l 83 986 m 222 1111 l 132 1046 l 92 1083 l 194 1190 l 250 1193 l 353 1083 l 315 1043 l 222 1111 m 63 1301 l 99 1333 q 151 1353 122 1353 q 226 1325 186 1353 l 279 1290 l 379 1357 l 379 1281 l 346 1249 q 315 1226 332 1236 q 285 1217 297 1217 q 222 1243 260 1217 l 161 1286 l 67 1213 l 63 1301 z "},"Ȅ":{"ha":411,"x_min":25,"x_max":386,"o":"m 83 986 l 365 986 l 365 878 l 167 878 l 167 592 l 318 592 l 318 522 l 174 497 l 174 143 l 374 168 l 378 28 l 51 28 l 83 986 m 25 1131 l 74 1207 l 206 1097 l 175 1056 l 25 1131 m 206 1131 l 254 1207 l 386 1097 l 356 1056 l 206 1131 z "},"Ë":{"ha":411,"x_min":51,"x_max":378,"o":"m 83 986 l 365 986 l 365 878 l 167 878 l 167 592 l 318 592 l 318 522 l 174 497 l 174 143 l 374 168 l 378 28 l 51 28 l 83 986 m 65 1188 l 181 1192 l 175 1076 l 65 1076 l 65 1188 m 260 1192 l 369 1192 l 369 1081 l 264 1076 l 260 1192 z "},"Ė":{"ha":411,"x_min":51,"x_max":378,"o":"m 83 986 l 365 986 l 365 878 l 167 878 l 167 592 l 318 592 l 318 522 l 174 497 l 174 143 l 374 168 l 378 28 l 51 28 l 83 986 m 153 1200 l 282 1200 l 282 1068 l 158 1064 l 153 1200 z "},"Ẹ":{"ha":411,"x_min":51,"x_max":378,"o":"m 83 986 l 365 986 l 365 878 l 167 878 l 167 592 l 318 592 l 318 522 l 174 497 l 174 143 l 374 168 l 378 28 l 51 28 l 83 986 m 140 -78 l 269 -78 l 269 -210 l 146 -214 l 140 -78 z "},"È":{"ha":411,"x_min":51,"x_max":378,"o":"m 83 986 l 365 986 l 365 878 l 167 878 l 167 592 l 318 592 l 318 522 l 174 497 l 174 143 l 374 168 l 378 28 l 51 28 l 83 986 m 103 1139 l 151 1218 l 311 1104 l 281 1056 l 103 1139 z "},"Ẻ":{"ha":411,"x_min":51,"x_max":378,"o":"m 83 986 l 365 986 l 365 878 l 167 878 l 167 592 l 318 592 l 318 522 l 174 497 l 174 143 l 374 168 l 378 28 l 51 28 l 83 986 m 182 1093 l 238 1135 l 235 1153 l 146 1163 l 144 1208 l 261 1215 q 297 1203 283 1217 q 310 1167 310 1190 l 310 1100 l 242 1072 l 238 1049 l 188 1049 l 182 1093 z "},"Ȇ":{"ha":411,"x_min":51,"x_max":378,"o":"m 83 986 l 365 986 l 365 878 l 167 878 l 167 592 l 318 592 l 318 522 l 174 497 l 174 143 l 374 168 l 378 28 l 51 28 l 83 986 m 275 1046 l 279 1129 l 182 1139 l 165 1124 l 172 1049 l 92 1049 l 97 1161 l 160 1200 l 292 1200 l 346 1146 l 346 1040 l 275 1046 z "},"Ē":{"ha":411,"x_min":51,"x_max":378,"o":"m 83 986 l 365 986 l 365 878 l 167 878 l 167 592 l 318 592 l 318 522 l 174 497 l 174 143 l 374 168 l 378 28 l 51 28 l 83 986 m 74 1169 l 363 1169 l 363 1100 l 78 1088 l 74 1169 z "},"Ę":{"ha":411,"x_min":51,"x_max":383,"o":"m 383 -142 l 383 -178 l 303 -222 l 200 -161 l 200 -65 l 306 28 l 51 28 l 83 986 l 365 986 l 365 878 l 167 878 l 167 592 l 318 592 l 318 522 l 174 497 l 174 143 l 374 168 l 376 56 l 378 56 l 378 28 l 278 -90 l 303 -142 l 383 -142 z "},"Ẽ":{"ha":411,"x_min":51,"x_max":378,"o":"m 83 986 l 365 986 l 365 878 l 167 878 l 167 592 l 318 592 l 318 522 l 174 497 l 174 143 l 374 168 l 378 28 l 51 28 l 83 986 m 58 1138 l 94 1169 q 147 1189 118 1189 q 222 1161 182 1189 l 275 1126 l 375 1193 l 375 1117 l 342 1085 q 310 1063 328 1072 q 281 1053 293 1053 q 218 1079 256 1053 l 157 1122 l 63 1049 l 58 1138 z "},"F":{"ha":369,"x_min":50,"x_max":336,"o":"m 82 986 l 336 986 l 336 864 l 165 864 l 165 588 l 317 588 l 317 518 l 172 493 l 172 0 l 50 0 l 82 986 z "},"G":{"ha":481,"x_min":56,"x_max":419,"o":"m 128 28 q 76 56 97 28 q 56 135 56 83 l 56 911 l 106 986 l 401 986 l 401 779 l 342 779 l 300 904 l 207 904 q 149 842 151 904 l 174 153 q 183 135 174 143 q 203 128 193 128 l 304 128 q 323 133 314 128 q 332 144 332 138 l 346 414 l 263 417 l 263 494 l 419 513 l 419 28 l 128 28 z "},"Ğ":{"ha":481,"x_min":56,"x_max":419,"o":"m 128 28 q 76 56 97 28 q 56 135 56 83 l 56 911 l 106 986 l 401 986 l 401 779 l 342 779 l 300 904 l 207 904 q 149 842 151 904 l 174 153 q 183 135 174 143 q 203 128 193 128 l 304 128 q 323 133 314 128 q 332 144 332 138 l 346 414 l 263 417 l 263 494 l 419 513 l 419 28 l 128 28 m 121 1114 l 115 1219 l 189 1219 l 182 1164 l 199 1149 l 324 1142 l 319 1219 l 383 1217 l 383 1129 l 329 1075 l 183 1075 l 121 1114 z "},"Ǧ":{"ha":481,"x_min":56,"x_max":419,"o":"m 128 28 q 76 56 97 28 q 56 135 56 83 l 56 911 l 106 986 l 401 986 l 401 779 l 342 779 l 300 904 l 207 904 q 149 842 151 904 l 174 153 q 183 135 174 143 q 203 128 193 128 l 304 128 q 323 133 314 128 q 332 144 332 138 l 346 414 l 263 417 l 263 494 l 419 513 l 419 28 l 128 28 m 100 1168 l 138 1215 l 256 1136 l 369 1215 l 403 1168 l 283 1057 l 219 1054 l 100 1168 z "},"Ĝ":{"ha":481,"x_min":56,"x_max":419,"o":"m 128 28 q 76 56 97 28 q 56 135 56 83 l 56 911 l 106 986 l 401 986 l 401 779 l 342 779 l 300 904 l 207 904 q 149 842 151 904 l 174 153 q 183 135 174 143 q 203 128 193 128 l 304 128 q 323 133 314 128 q 332 144 332 138 l 346 414 l 263 417 l 263 494 l 419 513 l 419 28 l 128 28 m 256 1111 l 165 1046 l 125 1083 l 228 1190 l 283 1193 l 386 1083 l 349 1043 l 256 1111 z "},"Ģ":{"ha":481,"x_min":56,"x_max":419,"o":"m 128 28 q 76 56 97 28 q 56 135 56 83 l 56 911 l 106 986 l 401 986 l 401 779 l 342 779 l 300 904 l 207 904 q 149 842 151 904 l 174 153 q 183 135 174 143 q 203 128 193 128 l 304 128 q 323 133 314 128 q 332 144 332 138 l 346 414 l 263 417 l 263 494 l 419 513 l 419 28 l 128 28 m 193 -299 l 217 -210 l 190 -187 l 183 -82 l 294 -81 l 294 -194 l 249 -312 l 193 -299 z "},"Ġ":{"ha":481,"x_min":56,"x_max":419,"o":"m 128 28 q 76 56 97 28 q 56 135 56 83 l 56 911 l 106 986 l 401 986 l 401 779 l 342 779 l 300 904 l 207 904 q 149 842 151 904 l 174 153 q 183 135 174 143 q 203 128 193 128 l 304 128 q 323 133 314 128 q 332 144 332 138 l 346 414 l 263 417 l 263 494 l 419 513 l 419 28 l 128 28 m 186 1200 l 315 1200 l 315 1068 l 192 1064 l 186 1200 z "},"H":{"ha":431,"x_min":42,"x_max":386,"o":"m 267 453 l 156 440 l 171 0 l 74 0 l 42 986 l 154 986 l 154 535 l 257 556 l 257 958 l 378 958 l 378 900 l 357 867 l 386 -28 l 296 -28 l 267 453 z "},"Ħ":{"ha":451,"x_min":-1,"x_max":450,"o":"m 450 711 l 363 711 l 386 -28 l 296 -28 l 267 453 l 156 440 l 171 0 l 74 0 l 50 711 l 3 711 l -1 792 l 49 790 l 42 986 l 154 986 l 154 788 l 257 785 l 257 958 l 378 958 l 378 900 l 357 867 l 360 782 l 450 779 l 450 711 m 257 711 l 154 711 l 154 535 l 257 556 l 257 711 z "},"Ĥ":{"ha":431,"x_min":42,"x_max":386,"o":"m 267 453 l 156 440 l 171 0 l 74 0 l 42 986 l 154 986 l 154 535 l 257 556 l 257 958 l 378 958 l 378 900 l 357 867 l 386 -28 l 296 -28 l 267 453 m 218 1111 l 128 1046 l 88 1083 l 190 1190 l 246 1193 l 349 1083 l 311 1043 l 218 1111 z "},"Ḥ":{"ha":431,"x_min":42,"x_max":386,"o":"m 267 453 l 156 440 l 171 0 l 74 0 l 42 986 l 154 986 l 154 535 l 257 556 l 257 958 l 378 958 l 378 900 l 357 867 l 386 -28 l 296 -28 l 267 453 m 157 -78 l 286 -78 l 286 -210 l 163 -214 l 157 -78 z "},"I":{"ha":226,"x_min":36,"x_max":176,"o":"m 61 856 l 36 922 l 36 986 l 176 986 l 164 0 l 61 0 l 61 856 z "},"Ĳ":{"ha":582,"x_min":36,"x_max":526,"o":"m 61 856 l 36 922 l 36 986 l 176 986 l 164 0 l 61 0 l 61 856 m 213 239 l 322 267 l 329 75 l 418 68 l 418 856 l 393 922 l 393 986 l 526 986 l 514 0 l 263 0 l 213 239 z "},"Í":{"ha":226,"x_min":15,"x_max":224,"o":"m 61 856 l 36 922 l 36 986 l 176 986 l 164 0 l 61 0 l 61 856 m 15 1104 l 175 1218 l 224 1139 l 46 1056 l 15 1104 z "},"Ĭ":{"ha":226,"x_min":-26,"x_max":242,"o":"m 61 856 l 36 922 l 36 986 l 176 986 l 164 0 l 61 0 l 61 856 m -21 1114 l -26 1219 l 47 1219 l 40 1164 l 57 1149 l 182 1142 l 178 1219 l 242 1217 l 242 1129 l 188 1075 l 42 1075 l -21 1114 z "},"Ǐ":{"ha":226,"x_min":-42,"x_max":261,"o":"m 61 856 l 36 922 l 36 986 l 176 986 l 164 0 l 61 0 l 61 856 m -42 1168 l -4 1215 l 114 1136 l 228 1215 l 261 1168 l 142 1057 l 78 1054 l -42 1168 z "},"Î":{"ha":226,"x_min":-17,"x_max":244,"o":"m 61 856 l 36 922 l 36 986 l 176 986 l 164 0 l 61 0 l 61 856 m 114 1111 l 24 1046 l -17 1083 l 86 1190 l 142 1193 l 244 1083 l 207 1043 l 114 1111 z "},"Ȉ":{"ha":226,"x_min":-83,"x_max":278,"o":"m 61 856 l 36 922 l 36 986 l 176 986 l 164 0 l 61 0 l 61 856 m -83 1131 l -35 1207 l 97 1097 l 67 1056 l -83 1131 m 97 1131 l 146 1207 l 278 1097 l 247 1056 l 97 1131 z "},"Ï":{"ha":226,"x_min":-43,"x_max":261,"o":"m 61 856 l 36 922 l 36 986 l 176 986 l 164 0 l 61 0 l 61 856 m -43 1188 l 72 1192 l 67 1076 l -43 1076 l -43 1188 m 151 1192 l 261 1192 l 261 1081 l 156 1076 l 151 1192 z "},"İ":{"ha":226,"x_min":36,"x_max":176,"o":"m 61 856 l 36 922 l 36 986 l 176 986 l 164 0 l 61 0 l 61 856 m 44 1200 l 174 1200 l 174 1068 l 50 1064 l 44 1200 z "},"Ị":{"ha":226,"x_min":36,"x_max":178,"o":"m 61 856 l 36 922 l 36 986 l 176 986 l 164 0 l 61 0 l 61 856 m 49 -78 l 178 -78 l 178 -210 l 54 -214 l 49 -78 z "},"Ì":{"ha":226,"x_min":-6,"x_max":203,"o":"m 61 856 l 36 922 l 36 986 l 176 986 l 164 0 l 61 0 l 61 856 m -6 1139 l 43 1218 l 203 1104 l 172 1056 l -6 1139 z "},"Ỉ":{"ha":226,"x_min":36,"x_max":201,"o":"m 61 856 l 36 922 l 36 986 l 176 986 l 164 0 l 61 0 l 61 856 m 74 1093 l 129 1135 l 126 1153 l 38 1163 l 36 1208 l 153 1215 q 188 1203 175 1217 q 201 1167 201 1190 l 201 1100 l 133 1072 l 129 1049 l 79 1049 l 74 1093 z "},"Ȋ":{"ha":226,"x_min":-17,"x_max":238,"o":"m 61 856 l 36 922 l 36 986 l 176 986 l 164 0 l 61 0 l 61 856 m 167 1046 l 171 1129 l 74 1139 l 57 1124 l 64 1049 l -17 1049 l -11 1161 l 51 1200 l 183 1200 l 238 1146 l 238 1040 l 167 1046 z "},"Ī":{"ha":226,"x_min":-35,"x_max":254,"o":"m 61 856 l 36 922 l 36 986 l 176 986 l 164 0 l 61 0 l 61 856 m -35 1169 l 254 1169 l 254 1100 l -31 1088 l -35 1169 z "},"Į":{"ha":226,"x_min":-28,"x_max":176,"o":"m 150 0 l 50 -118 l 75 -169 l 156 -169 l 156 -206 l 75 -250 l -28 -189 l -28 -93 l 78 0 l 61 0 l 61 856 l 36 922 l 36 986 l 176 986 l 164 0 l 150 0 z "},"Ĩ":{"ha":226,"x_min":-50,"x_max":267,"o":"m 61 856 l 36 922 l 36 986 l 176 986 l 164 0 l 61 0 l 61 856 m -50 1138 l -14 1169 q 39 1189 10 1189 q 114 1161 74 1189 l 167 1126 l 267 1193 l 267 1117 l 233 1085 q 202 1063 219 1072 q 172 1053 185 1053 q 110 1079 147 1053 l 49 1122 l -46 1049 l -50 1138 z "},"J":{"ha":397,"x_min":28,"x_max":342,"o":"m 28 239 l 138 267 l 144 75 l 233 68 l 233 856 l 208 922 l 208 986 l 342 986 l 329 0 l 78 0 l 28 239 z "},"Ĵ":{"ha":397,"x_min":28,"x_max":411,"o":"m 28 239 l 138 267 l 144 75 l 233 68 l 233 856 l 208 922 l 208 986 l 342 986 l 329 0 l 78 0 l 28 239 m 281 1111 l 190 1046 l 150 1083 l 253 1190 l 308 1193 l 411 1083 l 374 1043 l 281 1111 z "},"K":{"ha":414,"x_min":47,"x_max":388,"o":"m 47 958 l 156 958 l 156 542 l 192 521 l 254 571 l 268 986 l 388 986 l 329 536 l 263 492 l 358 436 l 374 -28 l 263 -28 l 263 367 l 188 436 l 172 425 l 172 -28 l 79 -28 l 47 958 z "},"Ķ":{"ha":414,"x_min":47,"x_max":388,"o":"m 47 958 l 156 958 l 156 542 l 192 521 l 254 571 l 268 986 l 388 986 l 329 536 l 263 492 l 358 436 l 374 -28 l 263 -28 l 263 367 l 188 436 l 172 425 l 172 -28 l 79 -28 l 47 958 m 181 -299 l 204 -210 l 178 -187 l 171 -82 l 282 -81 l 282 -194 l 236 -312 l 181 -299 z "},"L":{"ha":340,"x_min":56,"x_max":318,"o":"m 56 986 l 190 986 l 161 114 l 318 89 l 318 0 l 56 0 l 56 986 z "},"Ǉ":{"ha":738,"x_min":56,"x_max":682,"o":"m 56 986 l 190 986 l 161 114 l 318 89 l 318 0 l 56 0 l 56 986 m 368 239 l 478 267 l 485 75 l 574 68 l 574 856 l 549 922 l 549 986 l 682 986 l 669 0 l 418 0 l 368 239 z "},"Ĺ":{"ha":340,"x_min":28,"x_max":318,"o":"m 56 986 l 190 986 l 161 114 l 318 89 l 318 0 l 56 0 l 56 986 m 28 1104 l 188 1218 l 236 1139 l 58 1056 l 28 1104 z "},"Ľ":{"ha":340,"x_min":56,"x_max":368,"o":"m 56 986 l 190 986 l 161 114 l 318 89 l 318 0 l 56 0 l 56 986 m 229 694 l 271 989 l 367 986 l 368 872 l 286 685 l 229 694 z "},"Ļ":{"ha":340,"x_min":56,"x_max":318,"o":"m 56 986 l 190 986 l 161 114 l 318 89 l 318 0 l 56 0 l 56 986 m 124 -299 l 147 -210 l 121 -187 l 114 -82 l 225 -81 l 225 -194 l 179 -312 l 124 -299 z "},"Ŀ":{"ha":340,"x_min":56,"x_max":354,"o":"m 56 986 l 190 986 l 161 114 l 318 89 l 318 0 l 56 0 l 56 986 m 221 582 l 354 588 l 349 454 l 221 454 l 221 582 z "},"ǈ":{"ha":574,"x_min":56,"x_max":519,"o":"m 56 986 l 190 986 l 161 114 l 318 89 l 318 0 l 56 0 l 56 986 z "},"Ł":{"ha":367,"x_min":-32,"x_max":338,"o":"m 69 419 l 4 381 l -32 456 l 69 513 l 69 986 l 204 986 l 190 581 l 303 644 l 338 581 l 188 490 l 175 114 l 332 89 l 332 0 l 69 0 l 69 419 z "},"M":{"ha":472,"x_min":33,"x_max":439,"o":"m 33 986 l 158 986 l 231 461 l 239 461 l 304 1014 l 439 1014 l 439 0 l 347 0 l 378 918 l 372 918 l 251 251 l 210 251 l 111 847 l 106 847 l 106 -28 l 33 -28 l 33 986 z "},"N":{"ha":463,"x_min":33,"x_max":436,"o":"m 33 986 l 194 986 l 319 81 l 325 81 l 356 986 l 436 986 l 422 0 l 263 0 l 121 904 l 115 904 l 115 0 l 33 0 l 33 986 z "},"Ǌ":{"ha":860,"x_min":33,"x_max":804,"o":"m 33 986 l 194 986 l 319 81 l 325 81 l 356 986 l 436 986 l 422 0 l 263 0 l 121 904 l 115 904 l 115 0 l 33 0 l 33 986 m 490 239 l 600 267 l 607 75 l 696 68 l 696 856 l 671 922 l 671 986 l 804 986 l 792 0 l 540 0 l 490 239 z "},"Ń":{"ha":463,"x_min":33,"x_max":436,"o":"m 33 986 l 194 986 l 319 81 l 325 81 l 356 986 l 436 986 l 422 0 l 263 0 l 121 904 l 115 904 l 115 0 l 33 0 l 33 986 m 154 1104 l 314 1218 l 363 1139 l 185 1056 l 154 1104 z "},"Ň":{"ha":463,"x_min":33,"x_max":436,"o":"m 33 986 l 194 986 l 319 81 l 325 81 l 356 986 l 436 986 l 422 0 l 263 0 l 121 904 l 115 904 l 115 0 l 33 0 l 33 986 m 97 1168 l 135 1215 l 253 1136 l 367 1215 l 400 1168 l 281 1057 l 217 1054 l 97 1168 z "},"Ņ":{"ha":463,"x_min":33,"x_max":436,"o":"m 33 986 l 194 986 l 319 81 l 325 81 l 356 986 l 436 986 l 422 0 l 263 0 l 121 904 l 115 904 l 115 0 l 33 0 l 33 986 m 190 -299 l 214 -210 l 188 -187 l 181 -82 l 292 -81 l 292 -194 l 246 -312 l 190 -299 z "},"Ṅ":{"ha":463,"x_min":33,"x_max":436,"o":"m 33 986 l 194 986 l 319 81 l 325 81 l 356 986 l 436 986 l 422 0 l 263 0 l 121 904 l 115 904 l 115 0 l 33 0 l 33 986 m 183 1200 l 313 1200 l 313 1068 l 189 1064 l 183 1200 z "},"Ŋ":{"ha":476,"x_min":33,"x_max":450,"o":"m 221 -99 l 356 -65 l 356 219 l 121 904 l 115 904 l 115 0 l 33 0 l 33 986 l 194 986 l 350 435 l 356 435 l 356 856 l 331 922 l 331 986 l 450 986 l 439 40 l 403 -150 l 242 -207 l 221 -99 z "},"Ɲ":{"ha":463,"x_min":-82,"x_max":436,"o":"m -82 -99 l 35 -65 l 33 986 l 194 986 l 319 81 l 325 81 l 356 986 l 436 986 l 422 0 l 263 0 l 121 904 l 115 904 l 117 40 l 82 -150 l -61 -207 l -82 -99 z "},"ǋ":{"ha":696,"x_min":33,"x_max":642,"o":"m 33 986 l 194 986 l 319 81 l 325 81 l 356 986 l 436 986 l 422 0 l 263 0 l 121 904 l 115 904 l 115 0 l 33 0 l 33 986 z "},"Ñ":{"ha":463,"x_min":33,"x_max":436,"o":"m 33 986 l 194 986 l 319 81 l 325 81 l 356 986 l 436 986 l 422 0 l 263 0 l 121 904 l 115 904 l 115 0 l 33 0 l 33 986 m 89 1138 l 125 1169 q 178 1189 149 1189 q 253 1161 213 1189 l 306 1126 l 406 1193 l 406 1117 l 372 1085 q 341 1063 358 1072 q 311 1053 324 1053 q 249 1079 286 1053 l 188 1122 l 93 1049 l 89 1138 z "},"O":{"ha":414,"x_min":56,"x_max":358,"o":"m 56 58 l 56 942 l 115 986 l 303 986 l 358 947 l 358 50 l 271 0 l 138 0 l 56 58 m 239 97 q 251 106 251 97 l 265 901 q 253 914 265 914 l 181 914 q 168 901 168 914 l 168 106 q 181 97 168 97 l 239 97 z "},"Ó":{"ha":414,"x_min":56,"x_max":358,"o":"m 56 58 l 56 942 l 115 986 l 303 986 l 358 947 l 358 50 l 271 0 l 138 0 l 56 58 m 239 97 q 251 106 251 97 l 265 901 q 253 914 265 914 l 181 914 q 168 901 168 914 l 168 106 q 181 97 168 97 l 239 97 m 114 1104 l 274 1218 l 322 1139 l 144 1056 l 114 1104 z "},"Ŏ":{"ha":414,"x_min":56,"x_max":358,"o":"m 56 58 l 56 942 l 115 986 l 303 986 l 358 947 l 358 50 l 271 0 l 138 0 l 56 58 m 239 97 q 251 106 251 97 l 265 901 q 253 914 265 914 l 181 914 q 168 901 168 914 l 168 106 q 181 97 168 97 l 239 97 m 78 1114 l 72 1219 l 146 1219 l 139 1164 l 156 1149 l 281 1142 l 276 1219 l 340 1217 l 340 1129 l 286 1075 l 140 1075 l 78 1114 z "},"Ǒ":{"ha":414,"x_min":56,"x_max":360,"o":"m 56 58 l 56 942 l 115 986 l 303 986 l 358 947 l 358 50 l 271 0 l 138 0 l 56 58 m 239 97 q 251 106 251 97 l 265 901 q 253 914 265 914 l 181 914 q 168 901 168 914 l 168 106 q 181 97 168 97 l 239 97 m 57 1168 l 94 1215 l 213 1136 l 326 1215 l 360 1168 l 240 1057 l 176 1054 l 57 1168 z "},"Ô":{"ha":414,"x_min":56,"x_max":358,"o":"m 56 58 l 56 942 l 115 986 l 303 986 l 358 947 l 358 50 l 271 0 l 138 0 l 56 58 m 239 97 q 251 106 251 97 l 265 901 q 253 914 265 914 l 181 914 q 168 901 168 914 l 168 106 q 181 97 168 97 l 239 97 m 213 1111 l 122 1046 l 82 1083 l 185 1190 l 240 1193 l 343 1083 l 306 1043 l 213 1111 z "},"Ố":{"ha":414,"x_min":56,"x_max":358,"o":"m 56 58 l 56 942 l 115 986 l 303 986 l 358 947 l 358 50 l 271 0 l 138 0 l 56 58 m 239 97 q 251 106 251 97 l 265 901 q 253 914 265 914 l 181 914 q 168 901 168 914 l 168 106 q 181 97 168 97 l 239 97 m 213 1111 l 122 1046 l 82 1083 l 185 1190 l 240 1193 l 343 1083 l 306 1043 l 213 1111 m 118 1268 l 278 1382 l 326 1303 l 149 1219 l 118 1268 z "},"Ộ":{"ha":414,"x_min":56,"x_max":358,"o":"m 56 58 l 56 942 l 115 986 l 303 986 l 358 947 l 358 50 l 271 0 l 138 0 l 56 58 m 239 97 q 251 106 251 97 l 265 901 q 253 914 265 914 l 181 914 q 168 901 168 914 l 168 106 q 181 97 168 97 l 239 97 m 138 -78 l 267 -78 l 267 -210 l 143 -214 l 138 -78 m 213 1111 l 122 1046 l 82 1083 l 185 1190 l 240 1193 l 343 1083 l 306 1043 l 213 1111 z "},"Ồ":{"ha":414,"x_min":56,"x_max":358,"o":"m 56 58 l 56 942 l 115 986 l 303 986 l 358 947 l 358 50 l 271 0 l 138 0 l 56 58 m 239 97 q 251 106 251 97 l 265 901 q 253 914 265 914 l 181 914 q 168 901 168 914 l 168 106 q 181 97 168 97 l 239 97 m 213 1111 l 122 1046 l 82 1083 l 185 1190 l 240 1193 l 343 1083 l 306 1043 l 213 1111 m 97 1303 l 146 1382 l 306 1268 l 275 1219 l 97 1303 z "},"Ổ":{"ha":414,"x_min":56,"x_max":358,"o":"m 56 58 l 56 942 l 115 986 l 303 986 l 358 947 l 358 50 l 271 0 l 138 0 l 56 58 m 239 97 q 251 106 251 97 l 265 901 q 253 914 265 914 l 181 914 q 168 901 168 914 l 168 106 q 181 97 168 97 l 239 97 m 213 1111 l 122 1046 l 82 1083 l 185 1190 l 240 1193 l 343 1083 l 306 1043 l 213 1111 m 176 1257 l 232 1299 l 229 1317 l 140 1326 l 139 1372 l 256 1379 q 291 1367 278 1381 q 304 1331 304 1354 l 304 1264 l 236 1236 l 232 1213 l 182 1213 l 176 1257 z "},"Ỗ":{"ha":414,"x_min":53,"x_max":369,"o":"m 56 58 l 56 942 l 115 986 l 303 986 l 358 947 l 358 50 l 271 0 l 138 0 l 56 58 m 239 97 q 251 106 251 97 l 265 901 q 253 914 265 914 l 181 914 q 168 901 168 914 l 168 106 q 181 97 168 97 l 239 97 m 213 1111 l 122 1046 l 82 1083 l 185 1190 l 240 1193 l 343 1083 l 306 1043 l 213 1111 m 53 1301 l 89 1333 q 142 1353 113 1353 q 217 1325 176 1353 l 269 1290 l 369 1357 l 369 1281 l 336 1249 q 305 1226 322 1236 q 275 1217 288 1217 q 213 1243 250 1217 l 151 1286 l 57 1213 l 53 1301 z "},"Ȍ":{"ha":414,"x_min":15,"x_max":376,"o":"m 56 58 l 56 942 l 115 986 l 303 986 l 358 947 l 358 50 l 271 0 l 138 0 l 56 58 m 239 97 q 251 106 251 97 l 265 901 q 253 914 265 914 l 181 914 q 168 901 168 914 l 168 106 q 181 97 168 97 l 239 97 m 15 1131 l 64 1207 l 196 1097 l 165 1056 l 15 1131 m 196 1131 l 244 1207 l 376 1097 l 346 1056 l 196 1131 z "},"Ö":{"ha":414,"x_min":56,"x_max":360,"o":"m 56 58 l 56 942 l 115 986 l 303 986 l 358 947 l 358 50 l 271 0 l 138 0 l 56 58 m 239 97 q 251 106 251 97 l 265 901 q 253 914 265 914 l 181 914 q 168 901 168 914 l 168 106 q 181 97 168 97 l 239 97 m 56 1188 l 171 1192 l 165 1076 l 56 1076 l 56 1188 m 250 1192 l 360 1192 l 360 1081 l 254 1076 l 250 1192 z "},"Ȫ":{"ha":414,"x_min":56,"x_max":360,"o":"m 56 58 l 56 942 l 115 986 l 303 986 l 358 947 l 358 50 l 271 0 l 138 0 l 56 58 m 239 97 q 251 106 251 97 l 265 901 q 253 914 265 914 l 181 914 q 168 901 168 914 l 168 106 q 181 97 168 97 l 239 97 m 56 1188 l 171 1192 l 165 1076 l 56 1076 l 56 1188 m 250 1192 l 360 1192 l 360 1081 l 254 1076 l 250 1192 m 65 1347 l 354 1347 l 354 1278 l 69 1265 l 65 1347 z "},"Ȱ":{"ha":414,"x_min":56,"x_max":358,"o":"m 56 58 l 56 942 l 115 986 l 303 986 l 358 947 l 358 50 l 271 0 l 138 0 l 56 58 m 239 97 q 251 106 251 97 l 265 901 q 253 914 265 914 l 181 914 q 168 901 168 914 l 168 106 q 181 97 168 97 l 239 97 m 143 1200 l 272 1200 l 272 1068 l 149 1064 l 143 1200 m 64 1347 l 353 1347 l 353 1278 l 68 1265 l 64 1347 z "},"Ọ":{"ha":414,"x_min":56,"x_max":358,"o":"m 56 58 l 56 942 l 115 986 l 303 986 l 358 947 l 358 50 l 271 0 l 138 0 l 56 58 m 239 97 q 251 106 251 97 l 265 901 q 253 914 265 914 l 181 914 q 168 901 168 914 l 168 106 q 181 97 168 97 l 239 97 m 138 -78 l 267 -78 l 267 -210 l 143 -214 l 138 -78 z "},"Ò":{"ha":414,"x_min":56,"x_max":358,"o":"m 56 58 l 56 942 l 115 986 l 303 986 l 358 947 l 358 50 l 271 0 l 138 0 l 56 58 m 239 97 q 251 106 251 97 l 265 901 q 253 914 265 914 l 181 914 q 168 901 168 914 l 168 106 q 181 97 168 97 l 239 97 m 93 1139 l 142 1218 l 301 1104 l 271 1056 l 93 1139 z "},"Ỏ":{"ha":414,"x_min":56,"x_max":358,"o":"m 56 58 l 56 942 l 115 986 l 303 986 l 358 947 l 358 50 l 271 0 l 138 0 l 56 58 m 239 97 q 251 106 251 97 l 265 901 q 253 914 265 914 l 181 914 q 168 901 168 914 l 168 106 q 181 97 168 97 l 239 97 m 172 1093 l 228 1135 l 225 1153 l 136 1163 l 135 1208 l 251 1215 q 287 1203 274 1217 q 300 1167 300 1190 l 300 1100 l 232 1072 l 228 1049 l 178 1049 l 172 1093 z "},"Ơ":{"ha":414,"x_min":56,"x_max":456,"o":"m 456 1108 l 404 954 l 369 925 l 358 925 l 358 50 l 271 0 l 138 0 l 56 58 l 56 942 l 115 986 l 343 986 l 376 1122 l 456 1108 m 265 901 q 253 914 265 914 l 181 914 q 168 901 168 914 l 168 106 q 181 97 168 97 l 239 97 q 251 106 251 97 l 265 901 z "},"Ớ":{"ha":414,"x_min":56,"x_max":456,"o":"m 456 1108 l 404 954 l 369 925 l 358 925 l 358 50 l 271 0 l 138 0 l 56 58 l 56 942 l 115 986 l 343 986 l 376 1122 l 456 1108 m 265 901 q 253 914 265 914 l 181 914 q 168 901 168 914 l 168 106 q 181 97 168 97 l 239 97 q 251 106 251 97 l 265 901 m 114 1104 l 274 1218 l 322 1139 l 144 1056 l 114 1104 z "},"Ợ":{"ha":414,"x_min":56,"x_max":456,"o":"m 456 1108 l 404 954 l 369 925 l 358 925 l 358 50 l 271 0 l 138 0 l 56 58 l 56 942 l 115 986 l 343 986 l 376 1122 l 456 1108 m 265 901 q 253 914 265 914 l 181 914 q 168 901 168 914 l 168 106 q 181 97 168 97 l 239 97 q 251 106 251 97 l 265 901 m 138 -78 l 267 -78 l 267 -210 l 143 -214 l 138 -78 z "},"Ờ":{"ha":414,"x_min":56,"x_max":456,"o":"m 456 1108 l 404 954 l 369 925 l 358 925 l 358 50 l 271 0 l 138 0 l 56 58 l 56 942 l 115 986 l 343 986 l 376 1122 l 456 1108 m 265 901 q 253 914 265 914 l 181 914 q 168 901 168 914 l 168 106 q 181 97 168 97 l 239 97 q 251 106 251 97 l 265 901 m 93 1139 l 142 1218 l 301 1104 l 271 1056 l 93 1139 z "},"Ở":{"ha":414,"x_min":56,"x_max":456,"o":"m 456 1108 l 404 954 l 369 925 l 358 925 l 358 50 l 271 0 l 138 0 l 56 58 l 56 942 l 115 986 l 343 986 l 376 1122 l 456 1108 m 265 901 q 253 914 265 914 l 181 914 q 168 901 168 914 l 168 106 q 181 97 168 97 l 239 97 q 251 106 251 97 l 265 901 m 172 1093 l 228 1135 l 225 1153 l 136 1163 l 135 1208 l 251 1215 q 287 1203 274 1217 q 300 1167 300 1190 l 300 1100 l 232 1072 l 228 1049 l 178 1049 l 172 1093 z "},"Ỡ":{"ha":414,"x_min":49,"x_max":456,"o":"m 456 1108 l 404 954 l 369 925 l 358 925 l 358 50 l 271 0 l 138 0 l 56 58 l 56 942 l 115 986 l 343 986 l 376 1122 l 456 1108 m 265 901 q 253 914 265 914 l 181 914 q 168 901 168 914 l 168 106 q 181 97 168 97 l 239 97 q 251 106 251 97 l 265 901 m 49 1138 l 85 1169 q 138 1189 108 1189 q 213 1161 172 1189 l 265 1126 l 365 1193 l 365 1117 l 332 1085 q 301 1063 318 1072 q 271 1053 283 1053 q 208 1079 246 1053 l 147 1122 l 53 1049 l 49 1138 z "},"Ő":{"ha":414,"x_min":50,"x_max":411,"o":"m 56 58 l 56 942 l 115 986 l 303 986 l 358 947 l 358 50 l 271 0 l 138 0 l 56 58 m 239 97 q 251 106 251 97 l 265 901 q 253 914 265 914 l 181 914 q 168 901 168 914 l 168 106 q 181 97 168 97 l 239 97 m 50 1097 l 182 1207 l 231 1131 l 81 1056 l 50 1097 m 231 1097 l 363 1207 l 411 1131 l 261 1056 l 231 1097 z "},"Ȏ":{"ha":414,"x_min":56,"x_max":358,"o":"m 56 58 l 56 942 l 115 986 l 303 986 l 358 947 l 358 50 l 271 0 l 138 0 l 56 58 m 239 97 q 251 106 251 97 l 265 901 q 253 914 265 914 l 181 914 q 168 901 168 914 l 168 106 q 181 97 168 97 l 239 97 m 265 1046 l 269 1129 l 172 1139 l 156 1124 l 163 1049 l 82 1049 l 88 1161 l 150 1200 l 282 1200 l 336 1146 l 336 1040 l 265 1046 z "},"Ō":{"ha":414,"x_min":56,"x_max":358,"o":"m 56 58 l 56 942 l 115 986 l 303 986 l 358 947 l 358 50 l 271 0 l 138 0 l 56 58 m 239 97 q 251 106 251 97 l 265 901 q 253 914 265 914 l 181 914 q 168 901 168 914 l 168 106 q 181 97 168 97 l 239 97 m 64 1169 l 353 1169 l 353 1100 l 68 1088 l 64 1169 z "},"Ǫ":{"ha":414,"x_min":56,"x_max":358,"o":"m 271 0 l 171 -118 l 196 -169 l 276 -169 l 276 -206 l 196 -250 l 93 -189 l 93 -93 l 199 0 l 138 0 l 56 58 l 56 942 l 115 986 l 303 986 l 358 947 l 358 50 l 271 0 m 168 106 q 181 97 168 97 l 239 97 q 251 106 251 97 l 265 901 q 253 914 265 914 l 181 914 q 168 901 168 914 l 168 106 z "},"Ø":{"ha":431,"x_min":25,"x_max":404,"o":"m 25 -99 l 64 43 l 64 986 l 250 986 q 321 981 303 986 l 353 1094 l 404 1076 l 367 935 l 367 0 l 118 0 l 86 -122 l 25 -99 m 271 799 l 274 901 q 261 914 274 914 l 161 914 q 149 901 149 914 l 149 351 l 271 799 m 247 99 q 260 107 260 99 l 267 561 l 149 113 l 149 107 q 161 99 149 99 l 247 99 z "},"Ǿ":{"ha":431,"x_min":25,"x_max":404,"o":"m 110 1104 l 269 1218 l 318 1139 l 140 1056 l 110 1104 m 25 -99 l 64 43 l 64 986 l 250 986 q 321 981 303 986 l 353 1094 l 404 1076 l 367 935 l 367 0 l 118 0 l 86 -122 l 25 -99 m 271 799 l 274 901 q 261 914 274 914 l 161 914 q 149 901 149 914 l 149 351 l 271 799 m 247 99 q 260 107 260 99 l 267 561 l 149 113 l 149 107 q 161 99 149 99 l 247 99 z "},"Õ":{"ha":414,"x_min":49,"x_max":365,"o":"m 56 58 l 56 942 l 115 986 l 303 986 l 358 947 l 358 50 l 271 0 l 138 0 l 56 58 m 239 97 q 251 106 251 97 l 265 901 q 253 914 265 914 l 181 914 q 168 901 168 914 l 168 106 q 181 97 168 97 l 239 97 m 49 1138 l 85 1169 q 138 1189 108 1189 q 213 1161 172 1189 l 265 1126 l 365 1193 l 365 1117 l 332 1085 q 301 1063 318 1072 q 271 1053 283 1053 q 208 1079 246 1053 l 147 1122 l 53 1049 l 49 1138 z "},"Ȭ":{"ha":414,"x_min":49,"x_max":365,"o":"m 56 58 l 56 942 l 115 986 l 303 986 l 358 947 l 358 50 l 271 0 l 138 0 l 56 58 m 239 97 q 251 106 251 97 l 265 901 q 253 914 265 914 l 181 914 q 168 901 168 914 l 168 106 q 181 97 168 97 l 239 97 m 49 1138 l 85 1169 q 138 1189 108 1189 q 213 1161 172 1189 l 265 1126 l 365 1193 l 365 1117 l 332 1085 q 301 1063 318 1072 q 271 1053 283 1053 q 208 1079 246 1053 l 147 1122 l 53 1049 l 49 1138 m 64 1322 l 353 1322 l 353 1253 l 68 1240 l 64 1322 z "},"Œ":{"ha":617,"x_min":56,"x_max":578,"o":"m 56 58 l 56 942 l 115 986 l 565 986 l 565 878 l 367 878 l 367 599 l 518 599 l 518 529 l 374 504 l 374 101 l 561 126 l 578 14 l 358 0 l 354 47 l 271 0 l 138 0 l 56 58 m 239 97 q 251 106 251 97 l 265 901 q 253 914 265 914 l 181 914 q 168 901 168 914 l 168 106 q 181 97 168 97 l 239 97 z "},"P":{"ha":403,"x_min":31,"x_max":358,"o":"m 61 929 l 31 946 l 31 986 l 233 986 q 322 966 286 986 q 358 918 358 946 l 358 526 q 348 488 358 511 q 306 445 338 465 q 215 425 274 425 l 142 425 l 142 0 l 61 0 l 61 929 m 238 521 q 246 529 246 524 l 260 879 q 244 910 258 897 q 201 924 231 924 l 178 924 q 161 914 161 924 l 161 518 q 166 510 161 514 q 178 507 171 507 l 238 521 z "},"Þ":{"ha":411,"x_min":56,"x_max":367,"o":"m 56 986 l 126 986 l 140 806 l 242 806 q 331 785 294 806 q 367 738 367 765 l 367 360 q 356 322 367 344 q 314 278 346 299 q 224 258 282 258 l 136 258 l 136 0 l 56 0 l 56 986 m 246 343 q 254 351 254 346 l 268 688 q 253 719 267 706 q 210 732 239 732 l 172 732 q 156 722 156 732 l 156 340 q 160 333 156 336 q 172 329 165 329 l 246 343 z "},"Q":{"ha":417,"x_min":56,"x_max":371,"o":"m 274 -158 l 213 42 l 56 42 l 56 922 l 108 986 l 303 986 l 358 935 l 358 42 l 282 42 l 371 -172 l 301 -182 l 274 -158 m 183 139 l 169 183 l 219 196 l 243 139 q 258 142 250 139 q 265 147 265 144 l 265 888 q 253 900 265 900 l 167 900 q 154 888 154 900 l 140 147 q 153 139 140 139 l 183 139 z "},"R":{"ha":424,"x_min":31,"x_max":382,"o":"m 258 268 l 182 432 l 142 432 l 142 0 l 61 0 l 61 929 l 31 946 l 31 986 l 247 986 q 335 966 300 986 q 372 918 371 946 l 358 533 q 340 483 358 513 q 271 439 321 453 l 353 286 l 382 0 l 281 -4 l 258 268 m 251 521 q 260 529 260 521 l 268 881 q 251 913 268 900 q 178 926 233 926 q 161 910 161 921 l 161 532 q 166 524 161 528 q 178 521 171 521 l 251 521 z "},"Ŕ":{"ha":424,"x_min":31,"x_max":382,"o":"m 258 268 l 182 432 l 142 432 l 142 0 l 61 0 l 61 929 l 31 946 l 31 986 l 247 986 q 335 966 300 986 q 372 918 371 946 l 358 533 q 340 483 358 513 q 271 439 321 453 l 353 286 l 382 0 l 281 -4 l 258 268 m 251 521 q 260 529 260 521 l 268 881 q 251 913 268 900 q 178 926 233 926 q 161 910 161 921 l 161 532 q 166 524 161 528 q 178 521 171 521 l 251 521 m 121 1104 l 281 1218 l 329 1139 l 151 1056 l 121 1104 z "},"Ř":{"ha":424,"x_min":31,"x_max":382,"o":"m 258 268 l 182 432 l 142 432 l 142 0 l 61 0 l 61 929 l 31 946 l 31 986 l 247 986 q 335 966 300 986 q 372 918 371 946 l 358 533 q 340 483 358 513 q 271 439 321 453 l 353 286 l 382 0 l 281 -4 l 258 268 m 251 521 q 260 529 260 521 l 268 881 q 251 913 268 900 q 178 926 233 926 q 161 910 161 921 l 161 532 q 166 524 161 528 q 178 521 171 521 l 251 521 m 64 1168 l 101 1215 l 219 1136 l 333 1215 l 367 1168 l 247 1057 l 183 1054 l 64 1168 z "},"Ŗ":{"ha":424,"x_min":31,"x_max":382,"o":"m 258 268 l 182 432 l 142 432 l 142 0 l 61 0 l 61 929 l 31 946 l 31 986 l 247 986 q 335 966 300 986 q 372 918 371 946 l 358 533 q 340 483 358 513 q 271 439 321 453 l 353 286 l 382 0 l 281 -4 l 258 268 m 251 521 q 260 529 260 521 l 268 881 q 251 913 268 900 q 178 926 233 926 q 161 910 161 921 l 161 532 q 166 524 161 528 q 178 521 171 521 l 251 521 m 161 -299 l 185 -210 l 158 -187 l 151 -82 l 263 -81 l 263 -194 l 217 -312 l 161 -299 z "},"Ȑ":{"ha":424,"x_min":22,"x_max":383,"o":"m 258 268 l 182 432 l 142 432 l 142 0 l 61 0 l 61 929 l 31 946 l 31 986 l 247 986 q 335 966 300 986 q 372 918 371 946 l 358 533 q 340 483 358 513 q 271 439 321 453 l 353 286 l 382 0 l 281 -4 l 258 268 m 251 521 q 260 529 260 521 l 268 881 q 251 913 268 900 q 178 926 233 926 q 161 910 161 921 l 161 532 q 166 524 161 528 q 178 521 171 521 l 251 521 m 22 1131 l 71 1207 l 203 1097 l 172 1056 l 22 1131 m 203 1131 l 251 1207 l 383 1097 l 353 1056 l 203 1131 z "},"Ṛ":{"ha":424,"x_min":31,"x_max":382,"o":"m 258 268 l 182 432 l 142 432 l 142 0 l 61 0 l 61 929 l 31 946 l 31 986 l 247 986 q 335 966 300 986 q 372 918 371 946 l 358 533 q 340 483 358 513 q 271 439 321 453 l 353 286 l 382 0 l 281 -4 l 258 268 m 251 521 q 260 529 260 521 l 268 881 q 251 913 268 900 q 178 926 233 926 q 161 910 161 921 l 161 532 q 166 524 161 528 q 178 521 171 521 l 251 521 m 142 -78 l 271 -78 l 271 -210 l 147 -214 l 142 -78 z "},"Ȓ":{"ha":424,"x_min":31,"x_max":382,"o":"m 258 268 l 182 432 l 142 432 l 142 0 l 61 0 l 61 929 l 31 946 l 31 986 l 247 986 q 335 966 300 986 q 372 918 371 946 l 358 533 q 340 483 358 513 q 271 439 321 453 l 353 286 l 382 0 l 281 -4 l 258 268 m 251 521 q 260 529 260 521 l 268 881 q 251 913 268 900 q 178 926 233 926 q 161 910 161 921 l 161 532 q 166 524 161 528 q 178 521 171 521 l 251 521 m 272 1046 l 276 1129 l 179 1139 l 163 1124 l 169 1049 l 89 1049 l 94 1161 l 157 1200 l 289 1200 l 343 1146 l 343 1040 l 272 1046 z "},"S":{"ha":376,"x_min":44,"x_max":332,"o":"m 44 94 l 238 94 l 204 467 l 44 508 l 44 921 q 62 965 44 943 q 100 986 79 986 l 332 986 l 332 918 l 135 892 l 156 585 l 332 539 l 332 83 q 303 27 332 54 q 243 0 274 0 l 44 0 l 44 94 z "},"Ś":{"ha":376,"x_min":44,"x_max":332,"o":"m 44 94 l 238 94 l 204 467 l 44 508 l 44 921 q 62 965 44 943 q 100 986 79 986 l 332 986 l 332 918 l 135 892 l 156 585 l 332 539 l 332 83 q 303 27 332 54 q 243 0 274 0 l 44 0 l 44 94 m 103 1104 l 263 1218 l 311 1139 l 133 1056 l 103 1104 z "},"Š":{"ha":376,"x_min":44,"x_max":349,"o":"m 44 94 l 238 94 l 204 467 l 44 508 l 44 921 q 62 965 44 943 q 100 986 79 986 l 332 986 l 332 918 l 135 892 l 156 585 l 332 539 l 332 83 q 303 27 332 54 q 243 0 274 0 l 44 0 l 44 94 m 46 1168 l 83 1215 l 201 1136 l 315 1215 l 349 1168 l 229 1057 l 165 1054 l 46 1168 z "},"Ş":{"ha":376,"x_min":40,"x_max":332,"o":"m 332 918 l 135 892 l 156 585 l 332 539 l 332 83 q 303 27 332 54 q 243 0 274 0 l 222 0 l 178 -62 l 311 -86 l 318 -125 l 297 -215 q 203 -289 279 -289 q 179 -287 188 -289 l 40 -268 l 54 -201 l 218 -208 l 222 -153 l 81 -110 l 140 0 l 44 0 l 44 94 l 238 94 l 204 467 l 44 508 l 44 921 q 62 965 44 943 q 100 986 79 986 l 332 986 l 332 918 z "},"Ŝ":{"ha":376,"x_min":44,"x_max":332,"o":"m 44 94 l 238 94 l 204 467 l 44 508 l 44 921 q 62 965 44 943 q 100 986 79 986 l 332 986 l 332 918 l 135 892 l 156 585 l 332 539 l 332 83 q 303 27 332 54 q 243 0 274 0 l 44 0 l 44 94 m 201 1111 l 111 1046 l 71 1083 l 174 1190 l 229 1193 l 332 1083 l 294 1043 l 201 1111 z "},"Ș":{"ha":376,"x_min":44,"x_max":332,"o":"m 44 94 l 238 94 l 204 467 l 44 508 l 44 921 q 62 965 44 943 q 100 986 79 986 l 332 986 l 332 918 l 135 892 l 156 585 l 332 539 l 332 83 q 303 27 332 54 q 243 0 274 0 l 44 0 l 44 94 m 147 -299 l 171 -210 l 144 -187 l 138 -82 l 249 -81 l 249 -194 l 203 -312 l 147 -299 z "},"Ṣ":{"ha":376,"x_min":44,"x_max":332,"o":"m 44 94 l 238 94 l 204 467 l 44 508 l 44 921 q 62 965 44 943 q 100 986 79 986 l 332 986 l 332 918 l 135 892 l 156 585 l 332 539 l 332 83 q 303 27 332 54 q 243 0 274 0 l 44 0 l 44 94 m 128 -78 l 257 -78 l 257 -210 l 133 -214 l 128 -78 z "},"ẞ":{"ha":546,"x_min":61,"x_max":490,"o":"m 61 889 l 188 986 l 444 986 l 301 631 l 303 624 l 490 479 l 490 111 l 388 0 l 244 0 l 239 89 l 382 108 l 396 383 l 244 550 l 208 638 l 310 872 l 265 903 l 146 856 l 175 -1 l 61 -1 l 61 889 z "},"Ə":{"ha":469,"x_min":56,"x_max":419,"o":"m 56 519 l 314 503 l 326 842 q 268 904 324 904 l 82 904 l 74 986 l 369 986 l 419 911 l 419 135 q 399 56 419 83 q 347 28 378 28 l 56 28 l 56 519 m 272 128 q 292 135 282 128 q 301 153 301 143 l 311 417 l 129 417 l 143 144 q 152 133 143 138 q 171 128 161 128 l 272 128 z "},"T":{"ha":368,"x_min":28,"x_max":340,"o":"m 124 917 l 28 933 l 42 986 l 340 986 l 340 907 l 240 907 l 240 28 l 124 28 l 124 917 z "},"Ŧ":{"ha":382,"x_min":6,"x_max":378,"o":"m 131 599 l 10 594 l 6 683 l 131 683 l 131 903 l 7 919 l 21 986 l 375 986 l 375 893 l 247 893 l 247 683 l 378 683 l 378 607 l 247 603 l 247 28 l 131 28 l 131 599 z "},"Ť":{"ha":368,"x_min":28,"x_max":340,"o":"m 124 917 l 28 933 l 42 986 l 340 986 l 340 907 l 240 907 l 240 28 l 124 28 l 124 917 m 29 1168 l 67 1215 l 185 1136 l 299 1215 l 332 1168 l 213 1057 l 149 1054 l 29 1168 z "},"Ţ":{"ha":368,"x_min":25,"x_max":340,"o":"m 226 28 l 163 -62 l 296 -86 l 303 -125 l 282 -215 q 188 -289 264 -289 q 164 -287 172 -289 l 25 -268 l 39 -201 l 203 -208 l 207 -153 l 65 -110 l 140 28 l 124 28 l 124 917 l 28 933 l 42 986 l 340 986 l 340 907 l 240 907 l 240 28 l 226 28 z "},"Ț":{"ha":368,"x_min":28,"x_max":340,"o":"m 124 917 l 28 933 l 42 986 l 340 986 l 340 907 l 240 907 l 240 28 l 124 28 l 124 917 m 132 -299 l 156 -210 l 129 -187 l 122 -82 l 233 -81 l 233 -194 l 188 -312 l 132 -299 z "},"Ṭ":{"ha":368,"x_min":28,"x_max":340,"o":"m 124 917 l 28 933 l 42 986 l 340 986 l 340 907 l 240 907 l 240 28 l 124 28 l 124 917 m 113 -78 l 242 -78 l 242 -210 l 118 -214 l 113 -78 z "},"U":{"ha":403,"x_min":56,"x_max":347,"o":"m 56 954 l 139 954 l 139 96 l 260 88 l 231 986 l 347 986 l 347 56 q 327 18 347 36 q 288 0 307 0 l 56 0 l 56 954 z "},"Ú":{"ha":403,"x_min":56,"x_max":347,"o":"m 56 954 l 139 954 l 139 96 l 260 88 l 231 986 l 347 986 l 347 56 q 327 18 347 36 q 288 0 307 0 l 56 0 l 56 954 m 104 1104 l 264 1218 l 313 1139 l 135 1056 l 104 1104 z "},"Ŭ":{"ha":403,"x_min":56,"x_max":347,"o":"m 56 954 l 139 954 l 139 96 l 260 88 l 231 986 l 347 986 l 347 56 q 327 18 347 36 q 288 0 307 0 l 56 0 l 56 954 m 68 1114 l 63 1219 l 136 1219 l 129 1164 l 146 1149 l 271 1142 l 267 1219 l 331 1217 l 331 1129 l 276 1075 l 131 1075 l 68 1114 z "},"Ǔ":{"ha":403,"x_min":47,"x_max":350,"o":"m 56 954 l 139 954 l 139 96 l 260 88 l 231 986 l 347 986 l 347 56 q 327 18 347 36 q 288 0 307 0 l 56 0 l 56 954 m 47 1168 l 85 1215 l 203 1136 l 317 1215 l 350 1168 l 231 1057 l 167 1054 l 47 1168 z "},"Û":{"ha":403,"x_min":56,"x_max":347,"o":"m 56 954 l 139 954 l 139 96 l 260 88 l 231 986 l 347 986 l 347 56 q 327 18 347 36 q 288 0 307 0 l 56 0 l 56 954 m 203 1111 l 113 1046 l 72 1083 l 175 1190 l 231 1193 l 333 1083 l 296 1043 l 203 1111 z "},"Ȕ":{"ha":403,"x_min":6,"x_max":367,"o":"m 56 954 l 139 954 l 139 96 l 260 88 l 231 986 l 347 986 l 347 56 q 327 18 347 36 q 288 0 307 0 l 56 0 l 56 954 m 6 1131 l 54 1207 l 186 1097 l 156 1056 l 6 1131 m 186 1131 l 235 1207 l 367 1097 l 336 1056 l 186 1131 z "},"Ü":{"ha":403,"x_min":46,"x_max":350,"o":"m 56 954 l 139 954 l 139 96 l 260 88 l 231 986 l 347 986 l 347 56 q 327 18 347 36 q 288 0 307 0 l 56 0 l 56 954 m 46 1188 l 161 1192 l 156 1076 l 46 1076 l 46 1188 m 240 1192 l 350 1192 l 350 1081 l 244 1076 l 240 1192 z "},"Ǘ":{"ha":403,"x_min":46,"x_max":350,"o":"m 56 954 l 139 954 l 139 96 l 260 88 l 231 986 l 347 986 l 347 56 q 327 18 347 36 q 288 0 307 0 l 56 0 l 56 954 m 46 1188 l 161 1192 l 156 1076 l 46 1076 l 46 1188 m 240 1192 l 350 1192 l 350 1081 l 244 1076 l 240 1192 m 106 1282 l 265 1396 l 314 1317 l 136 1233 l 106 1282 z "},"Ǚ":{"ha":403,"x_min":46,"x_max":351,"o":"m 56 954 l 139 954 l 139 96 l 260 88 l 231 986 l 347 986 l 347 56 q 327 18 347 36 q 288 0 307 0 l 56 0 l 56 954 m 46 1188 l 161 1192 l 156 1076 l 46 1076 l 46 1188 m 240 1192 l 350 1192 l 350 1081 l 244 1076 l 240 1192 m 49 1346 l 86 1393 l 204 1314 l 318 1393 l 351 1346 l 232 1235 l 168 1232 l 49 1346 z "},"Ǜ":{"ha":403,"x_min":46,"x_max":350,"o":"m 56 954 l 139 954 l 139 96 l 260 88 l 231 986 l 347 986 l 347 56 q 327 18 347 36 q 288 0 307 0 l 56 0 l 56 954 m 46 1188 l 161 1192 l 156 1076 l 46 1076 l 46 1188 m 240 1192 l 350 1192 l 350 1081 l 244 1076 l 240 1192 m 85 1317 l 133 1396 l 293 1282 l 263 1233 l 85 1317 z "},"Ǖ":{"ha":403,"x_min":46,"x_max":350,"o":"m 56 954 l 139 954 l 139 96 l 260 88 l 231 986 l 347 986 l 347 56 q 327 18 347 36 q 288 0 307 0 l 56 0 l 56 954 m 46 1188 l 161 1192 l 156 1076 l 46 1076 l 46 1188 m 240 1192 l 350 1192 l 350 1081 l 244 1076 l 240 1192 m 56 1347 l 344 1347 l 344 1278 l 60 1265 l 56 1347 z "},"Ụ":{"ha":403,"x_min":56,"x_max":347,"o":"m 56 954 l 139 954 l 139 96 l 260 88 l 231 986 l 347 986 l 347 56 q 327 18 347 36 q 288 0 307 0 l 56 0 l 56 954 m 135 -78 l 264 -78 l 264 -210 l 140 -214 l 135 -78 z "},"Ù":{"ha":403,"x_min":56,"x_max":347,"o":"m 56 954 l 139 954 l 139 96 l 260 88 l 231 986 l 347 986 l 347 56 q 327 18 347 36 q 288 0 307 0 l 56 0 l 56 954 m 83 1139 l 132 1218 l 292 1104 l 261 1056 l 83 1139 z "},"Ủ":{"ha":403,"x_min":56,"x_max":347,"o":"m 56 954 l 139 954 l 139 96 l 260 88 l 231 986 l 347 986 l 347 56 q 327 18 347 36 q 288 0 307 0 l 56 0 l 56 954 m 163 1093 l 218 1135 l 215 1153 l 126 1163 l 125 1208 l 242 1215 q 277 1203 264 1217 q 290 1167 290 1190 l 290 1100 l 222 1072 l 218 1049 l 168 1049 l 163 1093 z "},"Ư":{"ha":403,"x_min":56,"x_max":500,"o":"m 56 954 l 139 954 l 139 96 l 260 88 l 231 986 l 347 986 l 347 56 q 327 18 347 36 q 288 0 307 0 l 56 0 l 56 954 m 347 986 l 388 986 l 421 1122 l 500 1108 l 449 954 l 414 925 l 347 925 l 347 986 z "},"Ứ":{"ha":403,"x_min":56,"x_max":500,"o":"m 56 954 l 139 954 l 139 96 l 260 88 l 231 986 l 347 986 l 347 56 q 327 18 347 36 q 288 0 307 0 l 56 0 l 56 954 m 347 986 l 388 986 l 421 1122 l 500 1108 l 449 954 l 414 925 l 347 925 l 347 986 m 104 1104 l 264 1218 l 313 1139 l 135 1056 l 104 1104 z "},"Ự":{"ha":403,"x_min":56,"x_max":500,"o":"m 56 954 l 139 954 l 139 96 l 260 88 l 231 986 l 347 986 l 347 56 q 327 18 347 36 q 288 0 307 0 l 56 0 l 56 954 m 347 986 l 388 986 l 421 1122 l 500 1108 l 449 954 l 414 925 l 347 925 l 347 986 m 135 -78 l 264 -78 l 264 -210 l 140 -214 l 135 -78 z "},"Ừ":{"ha":403,"x_min":56,"x_max":500,"o":"m 56 954 l 139 954 l 139 96 l 260 88 l 231 986 l 347 986 l 347 56 q 327 18 347 36 q 288 0 307 0 l 56 0 l 56 954 m 347 986 l 388 986 l 421 1122 l 500 1108 l 449 954 l 414 925 l 347 925 l 347 986 m 83 1139 l 132 1218 l 292 1104 l 261 1056 l 83 1139 z "},"Ử":{"ha":403,"x_min":56,"x_max":500,"o":"m 56 954 l 139 954 l 139 96 l 260 88 l 231 986 l 347 986 l 347 56 q 327 18 347 36 q 288 0 307 0 l 56 0 l 56 954 m 347 986 l 388 986 l 421 1122 l 500 1108 l 449 954 l 414 925 l 347 925 l 347 986 m 163 1093 l 218 1135 l 215 1153 l 126 1163 l 125 1208 l 242 1215 q 277 1203 264 1217 q 290 1167 290 1190 l 290 1100 l 222 1072 l 218 1049 l 168 1049 l 163 1093 z "},"Ữ":{"ha":403,"x_min":39,"x_max":500,"o":"m 56 954 l 139 954 l 139 96 l 260 88 l 231 986 l 347 986 l 347 56 q 327 18 347 36 q 288 0 307 0 l 56 0 l 56 954 m 347 986 l 388 986 l 421 1122 l 500 1108 l 449 954 l 414 925 l 347 925 l 347 986 m 39 1138 l 75 1169 q 128 1189 99 1189 q 203 1161 163 1189 l 256 1126 l 356 1193 l 356 1117 l 322 1085 q 291 1063 308 1072 q 261 1053 274 1053 q 199 1079 236 1053 l 138 1122 l 43 1049 l 39 1138 z "},"Ű":{"ha":403,"x_min":40,"x_max":401,"o":"m 56 954 l 139 954 l 139 96 l 260 88 l 231 986 l 347 986 l 347 56 q 327 18 347 36 q 288 0 307 0 l 56 0 l 56 954 m 40 1097 l 172 1207 l 221 1131 l 71 1056 l 40 1097 m 221 1097 l 353 1207 l 401 1131 l 251 1056 l 221 1097 z "},"Ȗ":{"ha":403,"x_min":56,"x_max":347,"o":"m 56 954 l 139 954 l 139 96 l 260 88 l 231 986 l 347 986 l 347 56 q 327 18 347 36 q 288 0 307 0 l 56 0 l 56 954 m 256 1046 l 260 1129 l 163 1139 l 146 1124 l 153 1049 l 72 1049 l 78 1161 l 140 1200 l 272 1200 l 326 1146 l 326 1040 l 256 1046 z "},"Ū":{"ha":403,"x_min":54,"x_max":347,"o":"m 56 954 l 139 954 l 139 96 l 260 88 l 231 986 l 347 986 l 347 56 q 327 18 347 36 q 288 0 307 0 l 56 0 l 56 954 m 54 1169 l 343 1169 l 343 1100 l 58 1088 l 54 1169 z "},"Ų":{"ha":403,"x_min":56,"x_max":347,"o":"m 347 986 l 347 56 q 327 18 347 36 q 288 0 307 0 l 254 0 l 154 -118 l 179 -169 l 260 -169 l 260 -206 l 179 -250 l 76 -189 l 76 -93 l 182 0 l 56 0 l 56 954 l 139 954 l 139 96 l 260 88 l 231 986 l 347 986 z "},"Ů":{"ha":403,"x_min":56,"x_max":347,"o":"m 56 954 l 139 954 l 139 96 l 260 88 l 231 986 l 347 986 l 347 56 q 327 18 347 36 q 288 0 307 0 l 56 0 l 56 954 m 111 1064 l 101 1179 l 129 1219 l 294 1214 l 294 1092 l 250 1049 l 111 1064 m 228 1104 q 238 1113 238 1104 l 238 1171 l 182 1167 q 171 1163 175 1167 q 167 1154 167 1160 l 167 1110 q 175 1104 167 1104 l 228 1104 z "},"Ũ":{"ha":403,"x_min":39,"x_max":356,"o":"m 56 954 l 139 954 l 139 96 l 260 88 l 231 986 l 347 986 l 347 56 q 327 18 347 36 q 288 0 307 0 l 56 0 l 56 954 m 39 1138 l 75 1169 q 128 1189 99 1189 q 203 1161 163 1189 l 256 1126 l 356 1193 l 356 1117 l 322 1085 q 291 1063 308 1072 q 261 1053 274 1053 q 199 1079 236 1053 l 138 1122 l 43 1049 l 39 1138 z "},"V":{"ha":385,"x_min":7,"x_max":378,"o":"m 7 986 l 117 986 l 215 108 l 221 108 l 288 986 l 378 986 l 260 0 l 168 -14 l 7 986 z "},"W":{"ha":458,"x_min":8,"x_max":451,"o":"m 8 986 l 110 986 l 110 119 l 115 119 l 194 831 l 254 831 l 347 119 l 354 119 l 354 986 l 451 986 l 401 0 l 314 0 l 229 579 l 224 579 l 139 0 l 63 0 l 8 986 z "},"Ẃ":{"ha":458,"x_min":8,"x_max":451,"o":"m 8 986 l 110 986 l 110 119 l 115 119 l 194 831 l 254 831 l 347 119 l 354 119 l 354 986 l 451 986 l 401 0 l 314 0 l 229 579 l 224 579 l 139 0 l 63 0 l 8 986 m 143 1104 l 303 1218 l 351 1139 l 174 1056 l 143 1104 z "},"Ŵ":{"ha":458,"x_min":8,"x_max":451,"o":"m 8 986 l 110 986 l 110 119 l 115 119 l 194 831 l 254 831 l 347 119 l 354 119 l 354 986 l 451 986 l 401 0 l 314 0 l 229 579 l 224 579 l 139 0 l 63 0 l 8 986 m 242 1111 l 151 1046 l 111 1083 l 214 1190 l 269 1193 l 372 1083 l 335 1043 l 242 1111 z "},"Ẅ":{"ha":458,"x_min":8,"x_max":451,"o":"m 8 986 l 110 986 l 110 119 l 115 119 l 194 831 l 254 831 l 347 119 l 354 119 l 354 986 l 451 986 l 401 0 l 314 0 l 229 579 l 224 579 l 139 0 l 63 0 l 8 986 m 85 1188 l 200 1192 l 194 1076 l 85 1076 l 85 1188 m 279 1192 l 389 1192 l 389 1081 l 283 1076 l 279 1192 z "},"Ẁ":{"ha":458,"x_min":8,"x_max":451,"o":"m 8 986 l 110 986 l 110 119 l 115 119 l 194 831 l 254 831 l 347 119 l 354 119 l 354 986 l 451 986 l 401 0 l 314 0 l 229 579 l 224 579 l 139 0 l 63 0 l 8 986 m 122 1139 l 171 1218 l 331 1104 l 300 1056 l 122 1139 z "},"X":{"ha":415,"x_min":19,"x_max":406,"o":"m 67 407 l 165 506 l 19 986 l 133 986 l 233 536 l 261 581 l 303 986 l 406 986 l 364 558 l 269 464 l 388 63 l 406 42 l 406 0 l 304 0 l 304 76 l 200 417 l 161 365 l 149 0 l 28 0 l 67 407 z "},"Y":{"ha":326,"x_min":33,"x_max":293,"o":"m 126 490 l 33 656 l 33 986 l 122 986 l 140 599 l 190 594 l 215 986 l 293 986 l 293 626 l 219 540 l 219 -28 l 126 -28 l 126 490 z "},"Ý":{"ha":326,"x_min":33,"x_max":293,"o":"m 126 490 l 33 656 l 33 986 l 122 986 l 140 599 l 190 594 l 215 986 l 293 986 l 293 626 l 219 540 l 219 -28 l 126 -28 l 126 490 m 74 1104 l 233 1218 l 282 1139 l 104 1056 l 74 1104 z "},"Ŷ":{"ha":326,"x_min":33,"x_max":303,"o":"m 126 490 l 33 656 l 33 986 l 122 986 l 140 599 l 190 594 l 215 986 l 293 986 l 293 626 l 219 540 l 219 -28 l 126 -28 l 126 490 m 172 1111 l 82 1046 l 42 1083 l 144 1190 l 200 1193 l 303 1083 l 265 1043 l 172 1111 z "},"Ÿ":{"ha":326,"x_min":15,"x_max":319,"o":"m 126 490 l 33 656 l 33 986 l 122 986 l 140 599 l 190 594 l 215 986 l 293 986 l 293 626 l 219 540 l 219 -28 l 126 -28 l 126 490 m 15 1188 l 131 1192 l 125 1076 l 15 1076 l 15 1188 m 210 1192 l 319 1192 l 319 1081 l 214 1076 l 210 1192 z "},"Ỵ":{"ha":326,"x_min":33,"x_max":293,"o":"m 126 490 l 33 656 l 33 986 l 122 986 l 140 599 l 190 594 l 215 986 l 293 986 l 293 626 l 219 540 l 219 -28 l 126 -28 l 126 490 m 108 -78 l 238 -78 l 238 -210 l 114 -214 l 108 -78 z "},"Ỳ":{"ha":326,"x_min":33,"x_max":293,"o":"m 126 490 l 33 656 l 33 986 l 122 986 l 140 599 l 190 594 l 215 986 l 293 986 l 293 626 l 219 540 l 219 -28 l 126 -28 l 126 490 m 53 1139 l 101 1218 l 261 1104 l 231 1056 l 53 1139 z "},"Ỷ":{"ha":326,"x_min":33,"x_max":293,"o":"m 126 490 l 33 656 l 33 986 l 122 986 l 140 599 l 190 594 l 215 986 l 293 986 l 293 626 l 219 540 l 219 -28 l 126 -28 l 126 490 m 132 1093 l 188 1135 l 185 1153 l 96 1163 l 94 1208 l 211 1215 q 247 1203 233 1217 q 260 1167 260 1190 l 260 1100 l 192 1072 l 188 1049 l 138 1049 l 132 1093 z "},"Ȳ":{"ha":326,"x_min":24,"x_max":313,"o":"m 126 490 l 33 656 l 33 986 l 122 986 l 140 599 l 190 594 l 215 986 l 293 986 l 293 626 l 219 540 l 219 -28 l 126 -28 l 126 490 m 24 1169 l 313 1169 l 313 1100 l 28 1088 l 24 1169 z "},"Ỹ":{"ha":326,"x_min":8,"x_max":325,"o":"m 126 490 l 33 656 l 33 986 l 122 986 l 140 599 l 190 594 l 215 986 l 293 986 l 293 626 l 219 540 l 219 -28 l 126 -28 l 126 490 m 8 1138 l 44 1169 q 97 1189 68 1189 q 172 1161 132 1189 l 225 1126 l 325 1193 l 325 1117 l 292 1085 q 260 1063 278 1072 q 231 1053 243 1053 q 168 1079 206 1053 l 107 1122 l 13 1049 l 8 1138 z "},"Z":{"ha":403,"x_min":33,"x_max":369,"o":"m 33 31 l 81 122 l 244 886 l 56 931 l 56 986 l 326 986 l 369 943 l 172 117 l 358 90 l 369 0 l 58 0 l 33 31 z "},"Ź":{"ha":403,"x_min":33,"x_max":369,"o":"m 33 31 l 81 122 l 244 886 l 56 931 l 56 986 l 326 986 l 369 943 l 172 117 l 358 90 l 369 0 l 58 0 l 33 31 m 119 1104 l 279 1218 l 328 1139 l 150 1056 l 119 1104 z "},"Ž":{"ha":403,"x_min":33,"x_max":369,"o":"m 33 31 l 81 122 l 244 886 l 56 931 l 56 986 l 326 986 l 369 943 l 172 117 l 358 90 l 369 0 l 58 0 l 33 31 m 63 1168 l 100 1215 l 218 1136 l 332 1215 l 365 1168 l 246 1057 l 182 1054 l 63 1168 z "},"Ż":{"ha":403,"x_min":33,"x_max":369,"o":"m 33 31 l 81 122 l 244 886 l 56 931 l 56 986 l 326 986 l 369 943 l 172 117 l 358 90 l 369 0 l 58 0 l 33 31 m 149 1200 l 278 1200 l 278 1068 l 154 1064 l 149 1200 z "},"Ẓ":{"ha":403,"x_min":33,"x_max":369,"o":"m 33 31 l 81 122 l 244 886 l 56 931 l 56 986 l 326 986 l 369 943 l 172 117 l 358 90 l 369 0 l 58 0 l 33 31 m 139 -78 l 268 -78 l 268 -210 l 144 -214 l 139 -78 z "},"a":{"ha":381,"x_min":49,"x_max":342,"o":"m 140 0 q 75 19 101 0 q 49 65 49 38 l 50 404 q 66 451 49 433 q 111 468 83 468 l 228 460 l 232 721 l 215 729 l 65 739 l 65 808 l 249 808 q 304 788 288 808 q 321 718 321 768 l 317 82 l 342 68 l 342 0 l 140 0 m 228 92 l 225 383 l 147 383 l 140 375 l 135 92 q 137 86 135 88 q 147 83 139 85 l 221 81 l 228 92 z "},"á":{"ha":381,"x_min":49,"x_max":342,"o":"m 140 0 q 75 19 101 0 q 49 65 49 38 l 50 404 q 66 451 49 433 q 111 468 83 468 l 228 460 l 232 721 l 215 729 l 65 739 l 65 808 l 249 808 q 304 788 288 808 q 321 718 321 768 l 317 82 l 342 68 l 342 0 l 140 0 m 228 92 l 225 383 l 147 383 l 140 375 l 135 92 q 137 86 135 88 q 147 83 139 85 l 221 81 l 228 92 z "},"ă":{"ha":381,"x_min":42,"x_max":342,"o":"m 140 0 q 75 19 101 0 q 49 65 49 38 l 50 404 q 66 451 49 433 q 111 468 83 468 l 228 460 l 232 721 l 215 729 l 65 739 l 65 808 l 249 808 q 304 788 288 808 q 321 718 321 768 l 317 82 l 342 68 l 342 0 l 140 0 m 228 92 l 225 383 l 147 383 l 140 375 l 135 92 q 137 86 135 88 q 147 83 139 85 l 221 81 l 228 92 m 47 943 l 42 1056 l 115 1056 l 108 989 l 125 974 l 278 967 l 274 1058 l 338 1064 l 338 958 l 283 904 l 110 904 l 47 943 z "},"ắ":{"ha":381,"x_min":42,"x_max":342,"o":"m 140 0 q 75 19 101 0 q 49 65 49 38 l 50 404 q 66 451 49 433 q 111 468 83 468 l 228 460 l 232 721 l 215 729 l 65 739 l 65 808 l 249 808 q 304 788 288 808 q 321 718 321 768 l 317 82 l 342 68 l 342 0 l 140 0 m 228 92 l 225 383 l 147 383 l 140 375 l 135 92 q 137 86 135 88 q 147 83 139 85 l 221 81 l 228 92 z "},"ặ":{"ha":381,"x_min":42,"x_max":342,"o":"m 140 0 q 75 19 101 0 q 49 65 49 38 l 50 404 q 66 451 49 433 q 111 468 83 468 l 228 460 l 232 721 l 215 729 l 65 739 l 65 808 l 249 808 q 304 788 288 808 q 321 718 321 768 l 317 82 l 342 68 l 342 0 l 140 0 m 228 92 l 225 383 l 147 383 l 140 375 l 135 92 q 137 86 135 88 q 147 83 139 85 l 221 81 l 228 92 m 126 -78 l 256 -78 l 256 -210 l 132 -214 l 126 -78 m 47 943 l 42 1056 l 115 1056 l 108 989 l 125 974 l 278 967 l 274 1058 l 338 1064 l 338 958 l 283 904 l 110 904 l 47 943 z "},"ằ":{"ha":381,"x_min":42,"x_max":342,"o":"m 140 0 q 75 19 101 0 q 49 65 49 38 l 50 404 q 66 451 49 433 q 111 468 83 468 l 228 460 l 232 721 l 215 729 l 65 739 l 65 808 l 249 808 q 304 788 288 808 q 321 718 321 768 l 317 82 l 342 68 l 342 0 l 140 0 m 228 92 l 225 383 l 147 383 l 140 375 l 135 92 q 137 86 135 88 q 147 83 139 85 l 221 81 l 228 92 z "},"ẳ":{"ha":381,"x_min":42,"x_max":342,"o":"m 140 0 q 75 19 101 0 q 49 65 49 38 l 50 404 q 66 451 49 433 q 111 468 83 468 l 228 460 l 232 721 l 215 729 l 65 739 l 65 808 l 249 808 q 304 788 288 808 q 321 718 321 768 l 317 82 l 342 68 l 342 0 l 140 0 m 228 92 l 225 383 l 147 383 l 140 375 l 135 92 q 137 86 135 88 q 147 83 139 85 l 221 81 l 228 92 z "},"ẵ":{"ha":381,"x_min":42,"x_max":342,"o":"m 140 0 q 75 19 101 0 q 49 65 49 38 l 50 404 q 66 451 49 433 q 111 468 83 468 l 228 460 l 232 721 l 215 729 l 65 739 l 65 808 l 249 808 q 304 788 288 808 q 321 718 321 768 l 317 82 l 342 68 l 342 0 l 140 0 m 228 92 l 225 383 l 147 383 l 140 375 l 135 92 q 137 86 135 88 q 147 83 139 85 l 221 81 l 228 92 z "},"ǎ":{"ha":381,"x_min":49,"x_max":342,"o":"m 140 0 q 75 19 101 0 q 49 65 49 38 l 50 404 q 66 451 49 433 q 111 468 83 468 l 228 460 l 232 721 l 215 729 l 65 739 l 65 808 l 249 808 q 304 788 288 808 q 321 718 321 768 l 317 82 l 342 68 l 342 0 l 140 0 m 228 92 l 225 383 l 147 383 l 140 375 l 135 92 q 137 86 135 88 q 147 83 139 85 l 221 81 l 228 92 m 165 893 l 63 1046 l 103 1072 l 193 986 l 283 1072 l 324 1046 l 221 889 l 165 893 z "},"â":{"ha":381,"x_min":49,"x_max":342,"o":"m 140 0 q 75 19 101 0 q 49 65 49 38 l 50 404 q 66 451 49 433 q 111 468 83 468 l 228 460 l 232 721 l 215 729 l 65 739 l 65 808 l 249 808 q 304 788 288 808 q 321 718 321 768 l 317 82 l 342 68 l 342 0 l 140 0 m 228 92 l 225 383 l 147 383 l 140 375 l 135 92 q 137 86 135 88 q 147 83 139 85 l 221 81 l 228 92 m 63 915 l 165 1072 l 221 1068 l 324 915 l 283 889 l 193 975 l 103 889 l 63 915 z "},"ấ":{"ha":381,"x_min":49,"x_max":342,"o":"m 140 0 q 75 19 101 0 q 49 65 49 38 l 50 404 q 66 451 49 433 q 111 468 83 468 l 228 460 l 232 721 l 215 729 l 65 739 l 65 808 l 249 808 q 304 788 288 808 q 321 718 321 768 l 317 82 l 342 68 l 342 0 l 140 0 m 228 92 l 225 383 l 147 383 l 140 375 l 135 92 q 137 86 135 88 q 147 83 139 85 l 221 81 l 228 92 z "},"ậ":{"ha":381,"x_min":49,"x_max":342,"o":"m 140 0 q 75 19 101 0 q 49 65 49 38 l 50 404 q 66 451 49 433 q 111 468 83 468 l 228 460 l 232 721 l 215 729 l 65 739 l 65 808 l 249 808 q 304 788 288 808 q 321 718 321 768 l 317 82 l 342 68 l 342 0 l 140 0 m 228 92 l 225 383 l 147 383 l 140 375 l 135 92 q 137 86 135 88 q 147 83 139 85 l 221 81 l 228 92 m 126 -78 l 256 -78 l 256 -210 l 132 -214 l 126 -78 m 63 915 l 165 1072 l 221 1068 l 324 915 l 283 889 l 193 975 l 103 889 l 63 915 z "},"ầ":{"ha":381,"x_min":49,"x_max":342,"o":"m 140 0 q 75 19 101 0 q 49 65 49 38 l 50 404 q 66 451 49 433 q 111 468 83 468 l 228 460 l 232 721 l 215 729 l 65 739 l 65 808 l 249 808 q 304 788 288 808 q 321 718 321 768 l 317 82 l 342 68 l 342 0 l 140 0 m 228 92 l 225 383 l 147 383 l 140 375 l 135 92 q 137 86 135 88 q 147 83 139 85 l 221 81 l 228 92 z "},"ẩ":{"ha":381,"x_min":49,"x_max":342,"o":"m 140 0 q 75 19 101 0 q 49 65 49 38 l 50 404 q 66 451 49 433 q 111 468 83 468 l 228 460 l 232 721 l 215 729 l 65 739 l 65 808 l 249 808 q 304 788 288 808 q 321 718 321 768 l 317 82 l 342 68 l 342 0 l 140 0 m 228 92 l 225 383 l 147 383 l 140 375 l 135 92 q 137 86 135 88 q 147 83 139 85 l 221 81 l 228 92 z "},"ẫ":{"ha":381,"x_min":46,"x_max":342,"o":"m 140 0 q 75 19 101 0 q 49 65 49 38 l 50 404 q 66 451 49 433 q 111 468 83 468 l 228 460 l 232 721 l 215 729 l 65 739 l 65 808 l 249 808 q 304 788 288 808 q 321 718 321 768 l 317 82 l 342 68 l 342 0 l 140 0 m 228 92 l 225 383 l 147 383 l 140 375 l 135 92 q 137 86 135 88 q 147 83 139 85 l 221 81 l 228 92 z "},"ȁ":{"ha":381,"x_min":-10,"x_max":342,"o":"m 140 0 q 75 19 101 0 q 49 65 49 38 l 50 404 q 66 451 49 433 q 111 468 83 468 l 228 460 l 232 721 l 215 729 l 65 739 l 65 808 l 249 808 q 304 788 288 808 q 321 718 321 768 l 317 82 l 342 68 l 342 0 l 140 0 m 228 92 l 225 383 l 147 383 l 140 375 l 135 92 q 137 86 135 88 q 147 83 139 85 l 221 81 l 228 92 z "},"ä":{"ha":381,"x_min":38,"x_max":342,"o":"m 140 0 q 75 19 101 0 q 49 65 49 38 l 50 404 q 66 451 49 433 q 111 468 83 468 l 228 460 l 232 721 l 215 729 l 65 739 l 65 808 l 249 808 q 304 788 288 808 q 321 718 321 768 l 317 82 l 342 68 l 342 0 l 140 0 m 228 92 l 225 383 l 147 383 l 140 375 l 135 92 q 137 86 135 88 q 147 83 139 85 l 221 81 l 228 92 z "},"ạ":{"ha":381,"x_min":49,"x_max":342,"o":"m 140 0 q 75 19 101 0 q 49 65 49 38 l 50 404 q 66 451 49 433 q 111 468 83 468 l 228 460 l 232 721 l 215 729 l 65 739 l 65 808 l 249 808 q 304 788 288 808 q 321 718 321 768 l 317 82 l 342 68 l 342 0 l 140 0 m 228 92 l 225 383 l 147 383 l 140 375 l 135 92 q 137 86 135 88 q 147 83 139 85 l 221 81 l 228 92 m 126 -78 l 256 -78 l 256 -210 l 132 -214 l 126 -78 z "},"à":{"ha":381,"x_min":49,"x_max":342,"o":"m 140 0 q 75 19 101 0 q 49 65 49 38 l 50 404 q 66 451 49 433 q 111 468 83 468 l 228 460 l 232 721 l 215 729 l 65 739 l 65 808 l 249 808 q 304 788 288 808 q 321 718 321 768 l 317 82 l 342 68 l 342 0 l 140 0 m 228 92 l 225 383 l 147 383 l 140 375 l 135 92 q 137 86 135 88 q 147 83 139 85 l 221 81 l 228 92 z "},"ả":{"ha":381,"x_min":49,"x_max":342,"o":"m 140 0 q 75 19 101 0 q 49 65 49 38 l 50 404 q 66 451 49 433 q 111 468 83 468 l 228 460 l 232 721 l 215 729 l 65 739 l 65 808 l 249 808 q 304 788 288 808 q 321 718 321 768 l 317 82 l 342 68 l 342 0 l 140 0 m 228 92 l 225 383 l 147 383 l 140 375 l 135 92 q 137 86 135 88 q 147 83 139 85 l 221 81 l 228 92 m 143 947 l 203 971 l 200 1003 l 111 1013 l 110 1051 l 233 1058 q 269 1047 256 1060 q 282 1010 282 1033 l 282 949 l 226 926 l 214 885 l 165 885 l 143 947 z "},"ȃ":{"ha":381,"x_min":49,"x_max":342,"o":"m 140 0 q 75 19 101 0 q 49 65 49 38 l 50 404 q 66 451 49 433 q 111 468 83 468 l 228 460 l 232 721 l 215 729 l 65 739 l 65 808 l 249 808 q 304 788 288 808 q 321 718 321 768 l 317 82 l 342 68 l 342 0 l 140 0 m 228 92 l 225 383 l 147 383 l 140 375 l 135 92 q 137 86 135 88 q 147 83 139 85 l 221 81 l 228 92 m 253 896 l 257 988 l 146 981 l 129 965 l 136 899 l 63 899 l 68 1011 l 131 1050 l 263 1050 l 317 996 l 317 890 l 253 896 z "},"ā":{"ha":381,"x_min":47,"x_max":342,"o":"m 140 0 q 75 19 101 0 q 49 65 49 38 l 50 404 q 66 451 49 433 q 111 468 83 468 l 228 460 l 232 721 l 215 729 l 65 739 l 65 808 l 249 808 q 304 788 288 808 q 321 718 321 768 l 317 82 l 342 68 l 342 0 l 140 0 m 228 92 l 225 383 l 147 383 l 140 375 l 135 92 q 137 86 135 88 q 147 83 139 85 l 221 81 l 228 92 z "},"ą":{"ha":381,"x_min":49,"x_max":342,"o":"m 314 0 l 186 -139 l 240 -193 l 336 -162 l 336 -203 l 226 -283 l 94 -187 l 115 -90 l 232 0 l 140 0 q 75 19 101 0 q 49 65 49 38 l 50 404 q 66 451 49 433 q 111 468 83 468 l 228 460 l 232 721 l 215 729 l 65 739 l 65 808 l 249 808 q 304 788 288 808 q 321 718 321 768 l 317 82 l 342 68 l 342 0 l 314 0 m 228 92 l 225 383 l 147 383 l 140 375 l 135 92 q 137 86 135 88 q 147 83 139 85 l 221 81 l 228 92 z "},"å":{"ha":381,"x_min":49,"x_max":342,"o":"m 140 0 q 75 19 101 0 q 49 65 49 38 l 50 404 q 66 451 49 433 q 111 468 83 468 l 228 460 l 232 721 l 215 729 l 65 739 l 65 808 l 249 808 q 304 788 288 808 q 321 718 321 768 l 317 82 l 342 68 l 342 0 l 140 0 m 228 92 l 225 383 l 147 383 l 140 375 l 135 92 q 137 86 135 88 q 147 83 139 85 l 221 81 l 228 92 m 96 1075 l 289 1075 l 289 924 l 254 888 l 96 888 l 96 1075 m 221 936 q 231 944 231 936 l 231 1022 q 222 1031 231 1026 l 167 1038 q 156 1033 156 1038 l 156 942 q 164 936 156 936 l 221 936 z "},"ǻ":{"ha":383,"x_min":49,"x_max":342,"o":"m 140 0 q 75 19 101 0 q 49 65 49 38 l 50 404 q 66 451 49 433 q 111 468 83 468 l 228 460 l 232 721 l 215 729 l 65 739 l 65 808 l 249 808 q 304 788 288 808 q 321 718 321 768 l 317 82 l 342 68 l 342 0 l 140 0 m 228 92 l 225 383 l 147 383 l 140 375 l 135 92 q 137 86 135 88 q 147 83 139 85 l 221 81 l 228 92 m 96 1075 l 289 1075 l 289 924 l 254 888 l 96 888 l 96 1075 m 221 936 q 231 944 231 936 l 231 1022 q 222 1031 231 1026 l 167 1038 q 156 1033 156 1038 l 156 942 q 164 936 156 936 l 221 936 z "},"ã":{"ha":381,"x_min":46,"x_max":342,"o":"m 140 0 q 75 19 101 0 q 49 65 49 38 l 50 404 q 66 451 49 433 q 111 468 83 468 l 228 460 l 232 721 l 215 729 l 65 739 l 65 808 l 249 808 q 304 788 288 808 q 321 718 321 768 l 317 82 l 342 68 l 342 0 l 140 0 m 228 92 l 225 383 l 147 383 l 140 375 l 135 92 q 137 86 135 88 q 147 83 139 85 l 221 81 l 228 92 z "},"æ":{"ha":571,"x_min":49,"x_max":515,"o":"m 140 0 q 75 19 101 0 q 49 65 49 38 l 50 404 q 66 451 49 433 q 111 468 83 468 l 228 460 l 232 721 l 215 729 l 65 739 l 65 808 l 456 808 q 499 787 482 808 q 515 738 515 765 l 515 403 l 458 358 l 336 365 l 335 90 q 346 79 335 79 l 428 78 l 451 169 l 511 169 l 511 0 l 140 0 m 410 442 q 419 444 417 442 q 422 457 422 447 l 431 715 q 418 728 431 728 l 338 728 q 327 725 329 728 q 325 715 325 722 l 332 442 l 410 442 m 228 92 l 225 383 l 147 383 l 140 375 l 135 92 q 137 86 135 88 q 147 83 139 85 l 221 81 l 228 92 z "},"ǽ":{"ha":571,"x_min":49,"x_max":515,"o":"m 140 0 q 75 19 101 0 q 49 65 49 38 l 50 404 q 66 451 49 433 q 111 468 83 468 l 228 460 l 232 721 l 215 729 l 65 739 l 65 808 l 456 808 q 499 787 482 808 q 515 738 515 765 l 515 403 l 458 358 l 336 365 l 335 90 q 346 79 335 79 l 428 78 l 451 169 l 511 169 l 511 0 l 140 0 m 410 442 q 419 444 417 442 q 422 457 422 447 l 431 715 q 418 728 431 728 l 338 728 q 327 725 329 728 q 325 715 325 722 l 332 442 l 410 442 m 228 92 l 225 383 l 147 383 l 140 375 l 135 92 q 137 86 135 88 q 147 83 139 85 l 221 81 l 228 92 z "},"b":{"ha":397,"x_min":63,"x_max":335,"o":"m 149 0 q 92 8 111 0 q 68 31 74 15 q 63 78 63 47 l 63 1001 l 144 1001 l 151 807 q 243 813 199 813 q 308 793 282 813 q 335 746 335 774 l 329 78 q 313 21 329 42 q 264 0 297 0 l 149 0 m 236 75 q 247 78 244 76 q 249 83 249 79 l 240 719 l 228 732 l 147 724 l 156 79 l 168 71 l 236 75 z "},"c":{"ha":351,"x_min":63,"x_max":315,"o":"m 63 50 l 63 750 l 133 808 l 311 808 l 307 665 l 250 665 l 235 718 q 222 728 232 728 l 164 728 q 153 725 156 728 q 151 715 151 722 l 164 90 q 175 79 164 81 l 315 64 l 315 0 l 133 0 l 63 50 z "},"ć":{"ha":351,"x_min":63,"x_max":315,"o":"m 63 50 l 63 750 l 133 808 l 311 808 l 307 665 l 250 665 l 235 718 q 222 728 232 728 l 164 728 q 153 725 156 728 q 151 715 151 722 l 164 90 q 175 79 164 81 l 315 64 l 315 0 l 133 0 l 63 50 z "},"č":{"ha":351,"x_min":63,"x_max":326,"o":"m 63 50 l 63 750 l 133 808 l 311 808 l 307 665 l 250 665 l 235 718 q 222 728 232 728 l 164 728 q 153 725 156 728 q 151 715 151 722 l 164 90 q 175 79 164 81 l 315 64 l 315 0 l 133 0 l 63 50 m 168 893 l 65 1046 l 106 1072 l 196 986 l 286 1072 l 326 1046 l 224 889 l 168 893 z "},"ç":{"ha":351,"x_min":36,"x_max":315,"o":"m 206 0 l 174 -62 l 313 -62 l 296 -206 q 267 -262 296 -235 q 207 -289 238 -289 l 36 -289 l 36 -208 l 215 -208 l 229 -135 l 83 -124 l 121 8 l 63 50 l 63 750 l 133 808 l 311 808 l 307 665 l 250 665 l 235 718 q 222 728 232 728 l 164 728 q 153 725 156 728 q 151 715 151 722 l 164 90 q 175 79 164 81 l 315 64 l 315 0 l 206 0 z "},"ĉ":{"ha":351,"x_min":63,"x_max":326,"o":"m 63 50 l 63 750 l 133 808 l 311 808 l 307 665 l 250 665 l 235 718 q 222 728 232 728 l 164 728 q 153 725 156 728 q 151 715 151 722 l 164 90 q 175 79 164 81 l 315 64 l 315 0 l 133 0 l 63 50 m 65 915 l 168 1072 l 224 1068 l 326 915 l 286 889 l 196 975 l 106 889 l 65 915 z "},"ċ":{"ha":351,"x_min":63,"x_max":315,"o":"m 63 50 l 63 750 l 133 808 l 311 808 l 307 665 l 250 665 l 235 718 q 222 728 232 728 l 164 728 q 153 725 156 728 q 151 715 151 722 l 164 90 q 175 79 164 81 l 315 64 l 315 0 l 133 0 l 63 50 z "},"d":{"ha":408,"x_min":63,"x_max":349,"o":"m 136 0 q 81 12 96 0 q 65 50 65 24 l 63 733 q 78 789 63 769 q 121 808 94 808 l 250 808 l 244 1001 l 349 1001 l 342 0 l 136 0 m 235 88 q 245 90 243 88 q 247 96 247 92 l 247 710 q 235 722 247 722 l 163 722 q 152 719 154 722 q 150 710 150 717 l 164 96 q 166 90 164 92 q 176 88 168 88 l 235 88 z "},"ð":{"ha":406,"x_min":57,"x_max":399,"o":"m 319 878 l 347 764 l 344 50 l 257 0 l 136 0 l 57 54 l 60 733 l 121 808 l 246 808 l 229 867 l 88 849 l 74 928 l 208 939 l 194 986 l 211 1001 l 290 1001 l 303 947 l 390 954 l 399 888 l 319 878 m 247 710 q 235 722 247 722 l 163 722 q 152 719 154 722 q 150 710 150 717 l 164 96 q 166 90 164 92 q 176 88 168 88 l 235 88 q 245 90 243 88 q 247 96 247 92 l 247 710 z "},"ď":{"ha":526,"x_min":63,"x_max":543,"o":"m 136 0 q 81 12 96 0 q 65 50 65 24 l 63 733 q 78 789 63 769 q 121 808 94 808 l 250 808 l 244 1001 l 349 1001 l 342 0 l 136 0 m 235 88 q 245 90 243 88 q 247 96 247 92 l 247 710 q 235 722 247 722 l 163 722 q 152 719 154 722 q 150 710 150 717 l 164 96 q 166 90 164 92 q 176 88 168 88 l 235 88 m 389 642 l 460 746 l 415 874 l 535 879 l 543 746 l 449 621 l 389 642 z "},"đ":{"ha":418,"x_min":63,"x_max":410,"o":"m 410 861 l 347 861 l 342 0 l 136 0 q 81 12 96 0 q 65 50 65 24 l 63 733 q 78 789 63 769 q 121 808 94 808 l 250 808 l 249 861 l 96 861 l 92 942 l 246 936 l 244 1001 l 349 1001 l 349 932 l 410 929 l 410 861 m 247 710 q 235 722 247 722 l 163 722 q 152 719 154 722 q 150 710 150 717 l 164 96 q 166 90 164 92 q 176 88 168 88 l 235 88 q 245 90 243 88 q 247 96 247 92 l 247 710 z "},"ḍ":{"ha":408,"x_min":63,"x_max":349,"o":"m 136 0 q 81 12 96 0 q 65 50 65 24 l 63 733 q 78 789 63 769 q 121 808 94 808 l 250 808 l 244 1001 l 349 1001 l 342 0 l 136 0 m 235 88 q 245 90 243 88 q 247 96 247 92 l 247 710 q 235 722 247 722 l 163 722 q 152 719 154 722 q 150 710 150 717 l 164 96 q 166 90 164 92 q 176 88 168 88 l 235 88 m 139 -78 l 268 -78 l 268 -210 l 144 -214 l 139 -78 z "},"ǳ":{"ha":738,"x_min":63,"x_max":706,"o":"m 136 0 q 81 12 96 0 q 65 50 65 24 l 63 733 q 78 789 63 769 q 121 808 94 808 l 250 808 l 244 1001 l 349 1001 l 342 0 l 136 0 m 235 88 q 245 90 243 88 q 247 96 247 92 l 247 710 q 235 722 247 722 l 163 722 q 152 719 154 722 q 150 710 150 717 l 164 96 q 166 90 164 92 q 176 88 168 88 l 235 88 m 440 67 l 599 714 l 450 732 l 449 808 l 671 808 l 706 774 l 544 96 l 700 74 l 700 0 l 472 0 l 440 67 z "},"ǆ":{"ha":738,"x_min":63,"x_max":706,"o":"m 136 0 q 81 12 96 0 q 65 50 65 24 l 63 733 q 78 789 63 769 q 121 808 94 808 l 250 808 l 244 1001 l 349 1001 l 342 0 l 136 0 m 235 88 q 245 90 243 88 q 247 96 247 92 l 247 710 q 235 722 247 722 l 163 722 q 152 719 154 722 q 150 710 150 717 l 164 96 q 166 90 164 92 q 176 88 168 88 l 235 88 m 440 67 l 599 714 l 450 732 l 449 808 l 671 808 l 706 774 l 544 96 l 700 74 l 700 0 l 472 0 l 440 67 m 546 893 l 443 1046 l 483 1072 l 574 986 l 664 1072 l 704 1046 l 601 889 l 546 893 z "},"e":{"ha":390,"x_min":63,"x_max":338,"o":"m 133 0 q 81 13 100 0 q 63 50 63 26 l 63 747 q 133 808 63 808 l 278 808 q 321 787 304 808 q 338 738 338 765 l 338 403 l 281 358 l 158 365 l 157 90 q 168 79 157 79 l 250 78 l 274 169 l 333 169 l 333 0 l 133 0 m 232 442 q 242 444 239 442 q 244 457 244 447 l 253 715 q 240 728 253 728 l 160 728 q 149 725 151 728 q 147 715 147 722 l 154 442 l 232 442 z "},"é":{"ha":390,"x_min":63,"x_max":338,"o":"m 133 0 q 81 13 100 0 q 63 50 63 26 l 63 747 q 133 808 63 808 l 278 808 q 321 787 304 808 q 338 738 338 765 l 338 403 l 281 358 l 158 365 l 157 90 q 168 79 157 79 l 250 78 l 274 169 l 333 169 l 333 0 l 133 0 m 232 442 q 242 444 239 442 q 244 457 244 447 l 253 715 q 240 728 253 728 l 160 728 q 149 725 151 728 q 147 715 147 722 l 154 442 l 232 442 z "},"ĕ":{"ha":390,"x_min":54,"x_max":350,"o":"m 133 0 q 81 13 100 0 q 63 50 63 26 l 63 747 q 133 808 63 808 l 278 808 q 321 787 304 808 q 338 738 338 765 l 338 403 l 281 358 l 158 365 l 157 90 q 168 79 157 79 l 250 78 l 274 169 l 333 169 l 333 0 l 133 0 m 232 442 q 242 444 239 442 q 244 457 244 447 l 253 715 q 240 728 253 728 l 160 728 q 149 725 151 728 q 147 715 147 722 l 154 442 l 232 442 m 60 943 l 54 1056 l 128 1056 l 121 989 l 138 974 l 290 967 l 286 1058 l 350 1064 l 350 958 l 296 904 l 122 904 l 60 943 z "},"ě":{"ha":390,"x_min":63,"x_max":338,"o":"m 133 0 q 81 13 100 0 q 63 50 63 26 l 63 747 q 133 808 63 808 l 278 808 q 321 787 304 808 q 338 738 338 765 l 338 403 l 281 358 l 158 365 l 157 90 q 168 79 157 79 l 250 78 l 274 169 l 333 169 l 333 0 l 133 0 m 232 442 q 242 444 239 442 q 244 457 244 447 l 253 715 q 240 728 253 728 l 160 728 q 149 725 151 728 q 147 715 147 722 l 154 442 l 232 442 m 178 893 l 75 1046 l 115 1072 l 206 986 l 296 1072 l 336 1046 l 233 889 l 178 893 z "},"ê":{"ha":390,"x_min":63,"x_max":338,"o":"m 133 0 q 81 13 100 0 q 63 50 63 26 l 63 747 q 133 808 63 808 l 278 808 q 321 787 304 808 q 338 738 338 765 l 338 403 l 281 358 l 158 365 l 157 90 q 168 79 157 79 l 250 78 l 274 169 l 333 169 l 333 0 l 133 0 m 232 442 q 242 444 239 442 q 244 457 244 447 l 253 715 q 240 728 253 728 l 160 728 q 149 725 151 728 q 147 715 147 722 l 154 442 l 232 442 m 75 915 l 178 1072 l 233 1068 l 336 915 l 296 889 l 206 975 l 115 889 l 75 915 z "},"ế":{"ha":390,"x_min":63,"x_max":338,"o":"m 133 0 q 81 13 100 0 q 63 50 63 26 l 63 747 q 133 808 63 808 l 278 808 q 321 787 304 808 q 338 738 338 765 l 338 403 l 281 358 l 158 365 l 157 90 q 168 79 157 79 l 250 78 l 274 169 l 333 169 l 333 0 l 133 0 m 232 442 q 242 444 239 442 q 244 457 244 447 l 253 715 q 240 728 253 728 l 160 728 q 149 725 151 728 q 147 715 147 722 l 154 442 l 232 442 z "},"ệ":{"ha":390,"x_min":63,"x_max":338,"o":"m 133 0 q 81 13 100 0 q 63 50 63 26 l 63 747 q 133 808 63 808 l 278 808 q 321 787 304 808 q 338 738 338 765 l 338 403 l 281 358 l 158 365 l 157 90 q 168 79 157 79 l 250 78 l 274 169 l 333 169 l 333 0 l 133 0 m 232 442 q 242 444 239 442 q 244 457 244 447 l 253 715 q 240 728 253 728 l 160 728 q 149 725 151 728 q 147 715 147 722 l 154 442 l 232 442 m 133 -78 l 263 -78 l 263 -210 l 139 -214 l 133 -78 m 75 915 l 178 1072 l 233 1068 l 336 915 l 296 889 l 206 975 l 115 889 l 75 915 z "},"ề":{"ha":390,"x_min":63,"x_max":338,"o":"m 133 0 q 81 13 100 0 q 63 50 63 26 l 63 747 q 133 808 63 808 l 278 808 q 321 787 304 808 q 338 738 338 765 l 338 403 l 281 358 l 158 365 l 157 90 q 168 79 157 79 l 250 78 l 274 169 l 333 169 l 333 0 l 133 0 m 232 442 q 242 444 239 442 q 244 457 244 447 l 253 715 q 240 728 253 728 l 160 728 q 149 725 151 728 q 147 715 147 722 l 154 442 l 232 442 z "},"ể":{"ha":390,"x_min":63,"x_max":338,"o":"m 133 0 q 81 13 100 0 q 63 50 63 26 l 63 747 q 133 808 63 808 l 278 808 q 321 787 304 808 q 338 738 338 765 l 338 403 l 281 358 l 158 365 l 157 90 q 168 79 157 79 l 250 78 l 274 169 l 333 169 l 333 0 l 133 0 m 232 442 q 242 444 239 442 q 244 457 244 447 l 253 715 q 240 728 253 728 l 160 728 q 149 725 151 728 q 147 715 147 722 l 154 442 l 232 442 z "},"ễ":{"ha":390,"x_min":58,"x_max":350,"o":"m 133 0 q 81 13 100 0 q 63 50 63 26 l 63 747 q 133 808 63 808 l 278 808 q 321 787 304 808 q 338 738 338 765 l 338 403 l 281 358 l 158 365 l 157 90 q 168 79 157 79 l 250 78 l 274 169 l 333 169 l 333 0 l 133 0 m 232 442 q 242 444 239 442 q 244 457 244 447 l 253 715 q 240 728 253 728 l 160 728 q 149 725 151 728 q 147 715 147 722 l 154 442 l 232 442 z "},"ȅ":{"ha":390,"x_min":3,"x_max":350,"o":"m 133 0 q 81 13 100 0 q 63 50 63 26 l 63 747 q 133 808 63 808 l 278 808 q 321 787 304 808 q 338 738 338 765 l 338 403 l 281 358 l 158 365 l 157 90 q 168 79 157 79 l 250 78 l 274 169 l 333 169 l 333 0 l 133 0 m 232 442 q 242 444 239 442 q 244 457 244 447 l 253 715 q 240 728 253 728 l 160 728 q 149 725 151 728 q 147 715 147 722 l 154 442 l 232 442 z "},"ë":{"ha":390,"x_min":50,"x_max":354,"o":"m 133 0 q 81 13 100 0 q 63 50 63 26 l 63 747 q 133 808 63 808 l 278 808 q 321 787 304 808 q 338 738 338 765 l 338 403 l 281 358 l 158 365 l 157 90 q 168 79 157 79 l 250 78 l 274 169 l 333 169 l 333 0 l 133 0 m 232 442 q 242 444 239 442 q 244 457 244 447 l 253 715 q 240 728 253 728 l 160 728 q 149 725 151 728 q 147 715 147 722 l 154 442 l 232 442 z "},"ė":{"ha":390,"x_min":63,"x_max":338,"o":"m 133 0 q 81 13 100 0 q 63 50 63 26 l 63 747 q 133 808 63 808 l 278 808 q 321 787 304 808 q 338 738 338 765 l 338 403 l 281 358 l 158 365 l 157 90 q 168 79 157 79 l 250 78 l 274 169 l 333 169 l 333 0 l 133 0 m 232 442 q 242 444 239 442 q 244 457 244 447 l 253 715 q 240 728 253 728 l 160 728 q 149 725 151 728 q 147 715 147 722 l 154 442 l 232 442 z "},"ẹ":{"ha":390,"x_min":63,"x_max":338,"o":"m 133 0 q 81 13 100 0 q 63 50 63 26 l 63 747 q 133 808 63 808 l 278 808 q 321 787 304 808 q 338 738 338 765 l 338 403 l 281 358 l 158 365 l 157 90 q 168 79 157 79 l 250 78 l 274 169 l 333 169 l 333 0 l 133 0 m 232 442 q 242 444 239 442 q 244 457 244 447 l 253 715 q 240 728 253 728 l 160 728 q 149 725 151 728 q 147 715 147 722 l 154 442 l 232 442 m 133 -78 l 263 -78 l 263 -210 l 139 -214 l 133 -78 z "},"è":{"ha":390,"x_min":63,"x_max":338,"o":"m 133 0 q 81 13 100 0 q 63 50 63 26 l 63 747 q 133 808 63 808 l 278 808 q 321 787 304 808 q 338 738 338 765 l 338 403 l 281 358 l 158 365 l 157 90 q 168 79 157 79 l 250 78 l 274 169 l 333 169 l 333 0 l 133 0 m 232 442 q 242 444 239 442 q 244 457 244 447 l 253 715 q 240 728 253 728 l 160 728 q 149 725 151 728 q 147 715 147 722 l 154 442 l 232 442 z "},"ẻ":{"ha":390,"x_min":63,"x_max":338,"o":"m 133 0 q 81 13 100 0 q 63 50 63 26 l 63 747 q 133 808 63 808 l 278 808 q 321 787 304 808 q 338 738 338 765 l 338 403 l 281 358 l 158 365 l 157 90 q 168 79 157 79 l 250 78 l 274 169 l 333 169 l 333 0 l 133 0 m 232 442 q 242 444 239 442 q 244 457 244 447 l 253 715 q 240 728 253 728 l 160 728 q 149 725 151 728 q 147 715 147 722 l 154 442 l 232 442 m 156 947 l 215 971 l 213 1003 l 124 1013 l 122 1051 l 246 1058 q 281 1047 268 1060 q 294 1010 294 1033 l 294 949 l 239 926 l 226 885 l 178 885 l 156 947 z "},"ȇ":{"ha":390,"x_min":63,"x_max":338,"o":"m 133 0 q 81 13 100 0 q 63 50 63 26 l 63 747 q 133 808 63 808 l 278 808 q 321 787 304 808 q 338 738 338 765 l 338 403 l 281 358 l 158 365 l 157 90 q 168 79 157 79 l 250 78 l 274 169 l 333 169 l 333 0 l 133 0 m 232 442 q 242 444 239 442 q 244 457 244 447 l 253 715 q 240 728 253 728 l 160 728 q 149 725 151 728 q 147 715 147 722 l 154 442 l 232 442 m 265 896 l 269 988 l 158 981 l 142 965 l 149 899 l 75 899 l 81 1011 l 143 1050 l 275 1050 l 329 996 l 329 890 l 265 896 z "},"ē":{"ha":390,"x_min":60,"x_max":349,"o":"m 133 0 q 81 13 100 0 q 63 50 63 26 l 63 747 q 133 808 63 808 l 278 808 q 321 787 304 808 q 338 738 338 765 l 338 403 l 281 358 l 158 365 l 157 90 q 168 79 157 79 l 250 78 l 274 169 l 333 169 l 333 0 l 133 0 m 232 442 q 242 444 239 442 q 244 457 244 447 l 253 715 q 240 728 253 728 l 160 728 q 149 725 151 728 q 147 715 147 722 l 154 442 l 232 442 z "},"ę":{"ha":390,"x_min":63,"x_max":356,"o":"m 356 -162 l 356 -203 l 246 -283 l 114 -187 l 135 -90 l 251 0 l 133 0 q 81 13 100 0 q 63 50 63 26 l 63 747 q 133 808 63 808 l 278 808 q 321 787 304 808 q 338 738 338 765 l 338 403 l 281 358 l 158 365 l 157 90 q 168 79 157 79 l 250 78 l 274 169 l 333 169 l 333 0 l 206 -139 l 260 -193 l 356 -162 m 154 442 l 232 442 q 242 444 239 442 q 244 457 244 447 l 253 715 q 240 728 253 728 l 160 728 q 149 725 151 728 q 147 715 147 722 l 154 442 z "},"ẽ":{"ha":390,"x_min":58,"x_max":350,"o":"m 133 0 q 81 13 100 0 q 63 50 63 26 l 63 747 q 133 808 63 808 l 278 808 q 321 787 304 808 q 338 738 338 765 l 338 403 l 281 358 l 158 365 l 157 90 q 168 79 157 79 l 250 78 l 274 169 l 333 169 l 333 0 l 133 0 m 232 442 q 242 444 239 442 q 244 457 244 447 l 253 715 q 240 728 253 728 l 160 728 q 149 725 151 728 q 147 715 147 722 l 154 442 l 232 442 z "},"ə":{"ha":393,"x_min":56,"x_max":331,"o":"m 115 0 q 72 22 89 0 q 56 71 56 43 l 56 447 l 235 435 l 236 715 q 225 726 236 725 l 60 742 l 60 808 l 260 808 q 312 795 293 808 q 331 758 331 782 l 331 61 q 260 0 331 0 l 115 0 m 233 81 q 244 83 242 81 q 246 93 246 86 l 239 358 l 161 358 q 151 356 154 358 q 149 343 149 353 l 140 93 q 153 81 140 81 l 233 81 z "},"f":{"ha":268,"x_min":4,"x_max":310,"o":"m 61 725 l 4 725 l 4 808 l 60 808 l 58 918 q 74 968 58 950 q 118 986 90 986 l 310 986 l 310 910 l 151 896 l 149 808 l 279 808 l 279 735 l 150 725 l 157 0 l 58 0 l 61 725 z "},"g":{"ha":392,"x_min":24,"x_max":378,"o":"m 24 -117 l 29 56 q 48 97 29 83 q 93 114 67 111 l 93 207 l 63 242 l 57 744 q 79 791 56 774 q 135 808 103 808 l 258 808 l 290 882 l 347 882 l 333 779 l 339 275 l 283 208 l 161 206 l 161 114 l 325 114 l 371 50 l 376 -81 q 363 -151 378 -124 q 315 -179 347 -179 l 99 -179 l 24 -117 m 250 726 q 240 733 250 735 l 151 722 q 147 720 149 722 q 144 714 144 718 l 144 293 q 154 283 144 283 l 249 281 l 250 726 m 275 -100 q 286 -87 286 -100 l 279 25 q 276 33 279 29 q 267 38 272 38 l 126 44 q 115 35 115 44 l 113 -99 l 275 -100 z "},"ğ":{"ha":392,"x_min":24,"x_max":378,"o":"m 24 -117 l 29 56 q 48 97 29 83 q 93 114 67 111 l 93 207 l 63 242 l 57 744 q 79 791 56 774 q 135 808 103 808 l 258 808 l 290 882 l 347 882 l 333 779 l 339 275 l 283 208 l 161 206 l 161 114 l 325 114 l 371 50 l 376 -81 q 363 -151 378 -124 q 315 -179 347 -179 l 99 -179 l 24 -117 m 250 726 q 240 733 250 735 l 151 722 q 147 720 149 722 q 144 714 144 718 l 144 293 q 154 283 144 283 l 249 281 l 250 726 m 275 -100 q 286 -87 286 -100 l 279 25 q 276 33 279 29 q 267 38 272 38 l 126 44 q 115 35 115 44 l 113 -99 l 275 -100 m 50 943 l 44 1056 l 118 1056 l 111 989 l 128 974 l 281 967 l 276 1058 l 340 1064 l 340 958 l 286 904 l 113 904 l 50 943 z "},"ǧ":{"ha":392,"x_min":24,"x_max":378,"o":"m 24 -117 l 29 56 q 48 97 29 83 q 93 114 67 111 l 93 207 l 63 242 l 57 744 q 79 791 56 774 q 135 808 103 808 l 258 808 l 290 882 l 347 882 l 333 779 l 339 275 l 283 208 l 161 206 l 161 114 l 325 114 l 371 50 l 376 -81 q 363 -151 378 -124 q 315 -179 347 -179 l 99 -179 l 24 -117 m 250 726 q 240 733 250 735 l 151 722 q 147 720 149 722 q 144 714 144 718 l 144 293 q 154 283 144 283 l 249 281 l 250 726 m 275 -100 q 286 -87 286 -100 l 279 25 q 276 33 279 29 q 267 38 272 38 l 126 44 q 115 35 115 44 l 113 -99 l 275 -100 m 168 893 l 65 1046 l 106 1072 l 196 986 l 286 1072 l 326 1046 l 224 889 l 168 893 z "},"ĝ":{"ha":392,"x_min":24,"x_max":378,"o":"m 24 -117 l 29 56 q 48 97 29 83 q 93 114 67 111 l 93 207 l 63 242 l 57 744 q 79 791 56 774 q 135 808 103 808 l 258 808 l 290 882 l 347 882 l 333 779 l 339 275 l 283 208 l 161 206 l 161 114 l 325 114 l 371 50 l 376 -81 q 363 -151 378 -124 q 315 -179 347 -179 l 99 -179 l 24 -117 m 250 726 q 240 733 250 735 l 151 722 q 147 720 149 722 q 144 714 144 718 l 144 293 q 154 283 144 283 l 249 281 l 250 726 m 275 -100 q 286 -87 286 -100 l 279 25 q 276 33 279 29 q 267 38 272 38 l 126 44 q 115 35 115 44 l 113 -99 l 275 -100 m 65 915 l 168 1072 l 224 1068 l 326 915 l 286 889 l 196 975 l 106 889 l 65 915 z "},"ģ":{"ha":392,"x_min":24,"x_max":378,"o":"m 24 -117 l 29 56 q 48 97 29 83 q 93 114 67 111 l 93 207 l 63 242 l 57 744 q 79 791 56 774 q 135 808 103 808 l 258 808 l 290 882 l 347 882 l 333 779 l 339 275 l 283 208 l 161 206 l 161 114 l 325 114 l 371 50 l 376 -81 q 363 -151 378 -124 q 315 -179 347 -179 l 99 -179 l 24 -117 m 250 726 q 240 733 250 735 l 151 722 q 147 720 149 722 q 144 714 144 718 l 144 293 q 154 283 144 283 l 249 281 l 250 726 m 275 -100 q 286 -87 286 -100 l 279 25 q 276 33 279 29 q 267 38 272 38 l 126 44 q 115 35 115 44 l 113 -99 l 275 -100 m 140 -436 l 204 -333 l 146 -333 l 146 -219 l 258 -219 l 263 -333 l 217 -458 l 140 -436 z "},"ġ":{"ha":392,"x_min":24,"x_max":378,"o":"m 24 -117 l 29 56 q 48 97 29 83 q 93 114 67 111 l 93 207 l 63 242 l 57 744 q 79 791 56 774 q 135 808 103 808 l 258 808 l 290 882 l 347 882 l 333 779 l 339 275 l 283 208 l 161 206 l 161 114 l 325 114 l 371 50 l 376 -81 q 363 -151 378 -124 q 315 -179 347 -179 l 99 -179 l 24 -117 m 250 726 q 240 733 250 735 l 151 722 q 147 720 149 722 q 144 714 144 718 l 144 293 q 154 283 144 283 l 249 281 l 250 726 m 275 -100 q 286 -87 286 -100 l 279 25 q 276 33 279 29 q 267 38 272 38 l 126 44 q 115 35 115 44 l 113 -99 l 275 -100 z "},"h":{"ha":407,"x_min":63,"x_max":365,"o":"m 260 713 q 258 722 260 719 q 247 725 256 725 l 153 724 l 163 0 l 71 0 l 63 981 l 97 1003 l 157 1003 l 154 808 l 289 808 l 344 769 l 344 75 l 365 51 l 365 0 l 244 -4 l 260 713 z "},"ħ":{"ha":407,"x_min":17,"x_max":365,"o":"m 365 51 l 365 0 l 244 -4 l 260 713 q 258 722 260 719 q 247 725 256 725 l 153 724 l 163 0 l 71 0 l 64 861 l 21 861 l 17 942 l 63 940 l 63 981 l 97 1003 l 157 1003 l 156 936 l 335 929 l 335 861 l 156 861 l 154 808 l 289 808 l 344 769 l 344 75 l 365 51 z "},"ĥ":{"ha":407,"x_min":-17,"x_max":365,"o":"m 260 713 q 258 722 260 719 q 247 725 256 725 l 153 724 l 163 0 l 71 0 l 63 981 l 97 1003 l 157 1003 l 154 808 l 289 808 l 344 769 l 344 75 l 365 51 l 365 0 l 244 -4 l 260 713 m 114 1111 l 24 1046 l -17 1083 l 86 1190 l 142 1193 l 244 1083 l 207 1043 l 114 1111 z "},"ḥ":{"ha":407,"x_min":63,"x_max":365,"o":"m 260 713 q 258 722 260 719 q 247 725 256 725 l 153 724 l 163 0 l 71 0 l 63 981 l 97 1003 l 157 1003 l 154 808 l 289 808 l 344 769 l 344 75 l 365 51 l 365 0 l 244 -4 l 260 713 m 143 -78 l 272 -78 l 272 -210 l 149 -214 l 143 -78 z "},"i":{"ha":226,"x_min":50,"x_max":179,"o":"m 64 808 l 167 808 l 156 71 l 175 29 l 174 -33 l 69 -33 l 64 808 m 50 1022 l 179 1022 l 179 890 l 56 886 l 50 1022 z "},"ı":{"ha":226,"x_min":64,"x_max":175,"o":"m 64 808 l 167 808 l 156 71 l 175 29 l 174 -33 l 69 -33 l 64 808 z "},"í":{"ha":226,"x_min":38,"x_max":218,"o":"m 64 808 l 167 808 l 156 71 l 175 29 l 174 -33 l 69 -33 l 64 808 z "},"ĭ":{"ha":226,"x_min":-36,"x_max":260,"o":"m 64 808 l 167 808 l 156 71 l 175 29 l 174 -33 l 69 -33 l 64 808 m -31 943 l -36 1056 l 38 1056 l 31 989 l 47 974 l 200 967 l 196 1058 l 260 1064 l 260 958 l 206 904 l 32 904 l -31 943 z "},"ǐ":{"ha":226,"x_min":-15,"x_max":246,"o":"m 64 808 l 167 808 l 156 71 l 175 29 l 174 -33 l 69 -33 l 64 808 m 88 893 l -15 1046 l 25 1072 l 115 986 l 206 1072 l 246 1046 l 143 889 l 88 893 z "},"î":{"ha":226,"x_min":-15,"x_max":246,"o":"m 64 808 l 167 808 l 156 71 l 175 29 l 174 -33 l 69 -33 l 64 808 m -15 915 l 88 1072 l 143 1068 l 246 915 l 206 889 l 115 975 l 25 889 l -15 915 z "},"ȉ":{"ha":226,"x_min":-87,"x_max":260,"o":"m 64 808 l 167 808 l 156 71 l 175 29 l 174 -33 l 69 -33 l 64 808 z "},"ï":{"ha":226,"x_min":-40,"x_max":264,"o":"m 64 808 l 167 808 l 156 71 l 175 29 l 174 -33 l 69 -33 l 64 808 z "},"ị":{"ha":226,"x_min":50,"x_max":185,"o":"m 64 808 l 167 808 l 156 71 l 175 29 l 174 -33 l 69 -33 l 64 808 m 50 1022 l 179 1022 l 179 890 l 56 886 l 50 1022 m 56 -78 l 185 -78 l 185 -210 l 61 -214 l 56 -78 z "},"ì":{"ha":226,"x_min":11,"x_max":192,"o":"m 64 808 l 167 808 l 156 71 l 175 29 l 174 -33 l 69 -33 l 64 808 z "},"ỉ":{"ha":226,"x_min":32,"x_max":204,"o":"m 64 808 l 167 808 l 156 71 l 175 29 l 174 -33 l 69 -33 l 64 808 m 65 947 l 125 971 l 122 1003 l 33 1013 l 32 1051 l 156 1058 q 191 1047 178 1060 q 204 1010 204 1033 l 204 949 l 149 926 l 136 885 l 88 885 l 65 947 z "},"ȋ":{"ha":226,"x_min":-15,"x_max":239,"o":"m 64 808 l 167 808 l 156 71 l 175 29 l 174 -33 l 69 -33 l 64 808 m 175 896 l 179 988 l 68 981 l 51 965 l 58 899 l -15 899 l -10 1011 l 53 1050 l 185 1050 l 239 996 l 239 890 l 175 896 z "},"ĳ":{"ha":460,"x_min":50,"x_max":406,"o":"m 64 808 l 167 808 l 156 71 l 175 29 l 174 -33 l 69 -33 l 64 808 m 50 1022 l 179 1022 l 179 890 l 56 886 l 50 1022 z "},"ī":{"ha":226,"x_min":-31,"x_max":258,"o":"m 64 808 l 167 808 l 156 71 l 175 29 l 174 -33 l 69 -33 l 64 808 z "},"į":{"ha":226,"x_min":-46,"x_max":196,"o":"m 56 886 l 50 1022 l 179 1022 l 179 890 l 56 886 m 196 -196 l 196 -236 l 86 -317 l -46 -221 l -25 -124 l 92 -33 l 69 -33 l 64 808 l 167 808 l 156 71 l 175 29 l 174 -33 l 46 -172 l 100 -226 l 196 -196 z "},"ĩ":{"ha":226,"x_min":-32,"x_max":260,"o":"m 64 808 l 167 808 l 156 71 l 175 29 l 174 -33 l 69 -33 l 64 808 z "},"j":{"ha":233,"x_min":-28,"x_max":179,"o":"m -28 -196 l 69 -24 l 65 808 l 175 808 l 158 24 l 131 -112 l 47 -247 l -28 -196 z "},"ȷ":{"ha":233,"x_min":-28,"x_max":175,"o":"m -28 -196 l 69 -24 l 65 808 l 175 808 l 158 24 l 131 -112 l 47 -247 l -28 -196 z "},"ĵ":{"ha":233,"x_min":-28,"x_max":247,"o":"m -28 -196 l 69 -24 l 65 808 l 175 808 l 158 24 l 131 -112 l 47 -247 l -28 -196 m -14 915 l 89 1072 l 144 1068 l 247 915 l 207 889 l 117 975 l 26 889 l -14 915 z "},"k":{"ha":379,"x_min":58,"x_max":349,"o":"m 58 1001 l 147 1001 l 147 467 l 176 450 l 239 490 l 250 807 l 349 807 l 300 463 l 246 425 l 324 381 l 338 0 l 246 0 l 246 324 l 174 381 l 161 371 l 161 0 l 85 0 l 58 1001 z "},"ķ":{"ha":379,"x_min":58,"x_max":349,"o":"m 58 1001 l 147 1001 l 147 467 l 176 450 l 239 490 l 250 807 l 349 807 l 300 463 l 246 425 l 324 381 l 338 0 l 246 0 l 246 324 l 174 381 l 161 371 l 161 0 l 85 0 l 58 1001 m 147 -297 l 211 -194 l 153 -194 l 153 -81 l 265 -81 l 269 -194 l 224 -319 l 147 -297 z "},"ĸ":{"ha":403,"x_min":42,"x_max":378,"o":"m 42 747 l 92 778 l 150 778 l 150 385 l 249 468 l 233 746 l 353 778 l 324 425 l 271 390 l 378 68 l 353 0 l 271 0 l 197 338 l 167 314 l 167 0 l 74 0 l 42 747 z "},"l":{"ha":221,"x_min":42,"x_max":186,"o":"m 71 910 l 42 939 l 42 986 l 150 986 l 160 74 l 185 58 l 186 0 l 63 0 l 71 910 z "},"ĺ":{"ha":221,"x_min":15,"x_max":224,"o":"m 71 910 l 42 939 l 42 986 l 150 986 l 160 74 l 185 58 l 186 0 l 63 0 l 71 910 m 15 1104 l 175 1218 l 224 1139 l 46 1056 l 15 1104 z "},"ľ":{"ha":335,"x_min":42,"x_max":340,"o":"m 71 910 l 42 939 l 42 986 l 150 986 l 160 74 l 185 58 l 186 0 l 63 0 l 71 910 m 186 640 l 257 744 l 213 872 l 332 878 l 340 744 l 246 619 l 186 640 z "},"ļ":{"ha":221,"x_min":42,"x_max":186,"o":"m 71 910 l 42 939 l 42 986 l 150 986 l 160 74 l 185 58 l 186 0 l 63 0 l 71 910 m 64 -297 l 128 -194 l 69 -194 l 69 -81 l 182 -81 l 186 -194 l 140 -319 l 64 -297 z "},"ŀ":{"ha":221,"x_min":42,"x_max":269,"o":"m 71 910 l 42 939 l 42 986 l 150 986 l 160 74 l 185 58 l 186 0 l 63 0 l 71 910 m 176 581 l 269 576 l 269 476 l 175 479 l 176 581 z "},"ǉ":{"ha":454,"x_min":42,"x_max":400,"o":"m 71 910 l 42 939 l 42 986 l 150 986 l 160 74 l 185 58 l 186 0 l 63 0 l 71 910 m 193 -196 l 290 -24 l 286 808 l 396 808 l 379 24 l 351 -112 l 268 -247 l 193 -196 z "},"ł":{"ha":290,"x_min":-10,"x_max":297,"o":"m 213 58 l 214 0 l 90 0 l 94 425 l 38 385 l -10 451 l 94 521 l 99 910 l 69 939 l 69 986 l 178 986 l 182 579 l 257 629 l 297 568 l 183 488 l 188 74 l 213 58 z "},"m":{"ha":572,"x_min":38,"x_max":538,"o":"m 426 678 q 424 683 426 682 q 414 686 422 685 l 322 686 l 332 0 l 239 0 l 243 717 q 241 722 243 721 q 231 725 239 724 l 150 731 q 139 719 139 731 l 143 0 l 38 0 l 38 50 l 60 75 l 58 808 l 240 808 q 315 768 294 808 q 424 774 350 774 q 485 755 461 774 q 508 707 508 736 l 507 53 l 538 38 l 538 -35 l 421 -35 l 426 678 z "},"n":{"ha":388,"x_min":63,"x_max":325,"o":"m 63 781 q 127 803 89 797 q 240 810 165 810 q 301 791 278 810 q 325 743 325 772 l 324 0 l 238 0 l 246 717 q 244 722 246 721 q 233 725 242 724 l 151 725 l 143 0 l 63 0 l 63 781 z "},"ń":{"ha":388,"x_min":63,"x_max":325,"o":"m 63 781 q 127 803 89 797 q 240 810 165 810 q 301 791 278 810 q 325 743 325 772 l 324 0 l 238 0 l 246 717 q 244 722 246 721 q 233 725 242 724 l 151 725 l 143 0 l 63 0 l 63 781 z "},"ŉ":{"ha":435,"x_min":-11,"x_max":372,"o":"m 110 781 q 174 803 136 797 q 288 810 213 810 q 349 791 325 810 q 372 743 372 772 l 371 0 l 285 0 l 293 717 q 291 722 293 721 q 281 725 289 724 l 199 725 l 190 0 l 110 0 l 110 781 m -11 754 l 53 857 l -6 857 l -6 971 l 107 971 l 111 857 l 65 732 l -11 754 z "},"ň":{"ha":388,"x_min":63,"x_max":331,"o":"m 63 781 q 127 803 89 797 q 240 810 165 810 q 301 791 278 810 q 325 743 325 772 l 324 0 l 238 0 l 246 717 q 244 722 246 721 q 233 725 242 724 l 151 725 l 143 0 l 63 0 l 63 781 m 172 893 l 69 1046 l 110 1072 l 200 986 l 290 1072 l 331 1046 l 228 889 l 172 893 z "},"ņ":{"ha":388,"x_min":63,"x_max":325,"o":"m 63 781 q 127 803 89 797 q 240 810 165 810 q 301 791 278 810 q 325 743 325 772 l 324 0 l 238 0 l 246 717 q 244 722 246 721 q 233 725 242 724 l 151 725 l 143 0 l 63 0 l 63 781 m 131 -297 l 194 -194 l 136 -194 l 136 -81 l 249 -81 l 253 -194 l 207 -319 l 131 -297 z "},"ṅ":{"ha":388,"x_min":63,"x_max":325,"o":"m 63 781 q 127 803 89 797 q 240 810 165 810 q 301 791 278 810 q 325 743 325 772 l 324 0 l 238 0 l 246 717 q 244 722 246 721 q 233 725 242 724 l 151 725 l 143 0 l 63 0 l 63 781 z "},"ŋ":{"ha":388,"x_min":63,"x_max":325,"o":"m 106 -101 l 238 -68 l 246 717 q 244 722 246 721 q 233 725 242 724 l 151 725 l 143 0 l 63 0 l 63 781 q 127 803 89 797 q 240 810 165 810 q 301 791 278 810 q 325 743 325 772 l 324 40 l 288 -150 l 126 -207 l 106 -101 z "},"ɲ":{"ha":388,"x_min":-57,"x_max":325,"o":"m -57 -101 l 61 -68 l 63 781 q 127 803 89 797 q 240 810 165 810 q 301 791 278 810 q 325 743 325 772 l 324 0 l 238 0 l 246 717 q 244 722 246 721 q 233 725 242 724 l 151 725 l 143 40 l 111 -150 l -36 -207 l -57 -101 z "},"ǌ":{"ha":621,"x_min":63,"x_max":567,"o":"m 63 781 q 127 803 89 797 q 240 810 165 810 q 301 791 278 810 q 325 743 325 772 l 324 0 l 238 0 l 246 717 q 244 722 246 721 q 233 725 242 724 l 151 725 l 143 0 l 63 0 l 63 781 m 360 -196 l 457 -24 l 453 808 l 563 808 l 546 24 l 518 -112 l 435 -247 l 360 -196 z "},"ñ":{"ha":388,"x_min":53,"x_max":344,"o":"m 63 781 q 127 803 89 797 q 240 810 165 810 q 301 791 278 810 q 325 743 325 772 l 324 0 l 238 0 l 246 717 q 244 722 246 721 q 233 725 242 724 l 151 725 l 143 0 l 63 0 l 63 781 z "},"o":{"ha":414,"x_min":63,"x_max":351,"o":"m 63 58 l 63 764 l 122 808 l 296 808 l 351 769 l 351 50 l 264 0 l 144 0 l 63 58 m 240 88 q 251 90 249 88 q 253 96 253 92 l 267 724 q 265 733 267 731 q 254 736 263 736 l 168 736 q 156 724 156 736 l 156 96 q 158 90 156 92 q 168 88 160 88 l 240 88 z "},"ó":{"ha":414,"x_min":63,"x_max":351,"o":"m 63 58 l 63 764 l 122 808 l 296 808 l 351 769 l 351 50 l 264 0 l 144 0 l 63 58 m 240 88 q 251 90 249 88 q 253 96 253 92 l 267 724 q 265 733 267 731 q 254 736 263 736 l 168 736 q 156 724 156 736 l 156 96 q 158 90 156 92 q 168 88 160 88 l 240 88 z "},"ŏ":{"ha":414,"x_min":63,"x_max":360,"o":"m 63 58 l 63 764 l 122 808 l 296 808 l 351 769 l 351 50 l 264 0 l 144 0 l 63 58 m 240 88 q 251 90 249 88 q 253 96 253 92 l 267 724 q 265 733 267 731 q 254 736 263 736 l 168 736 q 156 724 156 736 l 156 96 q 158 90 156 92 q 168 88 160 88 l 240 88 m 69 943 l 64 1056 l 138 1056 l 131 989 l 147 974 l 300 967 l 296 1058 l 360 1064 l 360 958 l 306 904 l 132 904 l 69 943 z "},"ǒ":{"ha":414,"x_min":63,"x_max":351,"o":"m 63 58 l 63 764 l 122 808 l 296 808 l 351 769 l 351 50 l 264 0 l 144 0 l 63 58 m 240 88 q 251 90 249 88 q 253 96 253 92 l 267 724 q 265 733 267 731 q 254 736 263 736 l 168 736 q 156 724 156 736 l 156 96 q 158 90 156 92 q 168 88 160 88 l 240 88 m 188 893 l 85 1046 l 125 1072 l 215 986 l 306 1072 l 346 1046 l 243 889 l 188 893 z "},"ô":{"ha":414,"x_min":63,"x_max":351,"o":"m 63 58 l 63 764 l 122 808 l 296 808 l 351 769 l 351 50 l 264 0 l 144 0 l 63 58 m 240 88 q 251 90 249 88 q 253 96 253 92 l 267 724 q 265 733 267 731 q 254 736 263 736 l 168 736 q 156 724 156 736 l 156 96 q 158 90 156 92 q 168 88 160 88 l 240 88 m 85 915 l 188 1072 l 243 1068 l 346 915 l 306 889 l 215 975 l 125 889 l 85 915 z "},"ố":{"ha":414,"x_min":63,"x_max":351,"o":"m 63 58 l 63 764 l 122 808 l 296 808 l 351 769 l 351 50 l 264 0 l 144 0 l 63 58 m 240 88 q 251 90 249 88 q 253 96 253 92 l 267 724 q 265 733 267 731 q 254 736 263 736 l 168 736 q 156 724 156 736 l 156 96 q 158 90 156 92 q 168 88 160 88 l 240 88 z "},"ộ":{"ha":414,"x_min":63,"x_max":351,"o":"m 63 58 l 63 764 l 122 808 l 296 808 l 351 769 l 351 50 l 264 0 l 144 0 l 63 58 m 240 88 q 251 90 249 88 q 253 96 253 92 l 267 724 q 265 733 267 731 q 254 736 263 736 l 168 736 q 156 724 156 736 l 156 96 q 158 90 156 92 q 168 88 160 88 l 240 88 m 85 915 l 188 1072 l 243 1068 l 346 915 l 306 889 l 215 975 l 125 889 l 85 915 m 142 -78 l 271 -78 l 271 -210 l 147 -214 l 142 -78 z "},"ồ":{"ha":414,"x_min":63,"x_max":351,"o":"m 63 58 l 63 764 l 122 808 l 296 808 l 351 769 l 351 50 l 264 0 l 144 0 l 63 58 m 240 88 q 251 90 249 88 q 253 96 253 92 l 267 724 q 265 733 267 731 q 254 736 263 736 l 168 736 q 156 724 156 736 l 156 96 q 158 90 156 92 q 168 88 160 88 l 240 88 z "},"ổ":{"ha":414,"x_min":63,"x_max":351,"o":"m 63 58 l 63 764 l 122 808 l 296 808 l 351 769 l 351 50 l 264 0 l 144 0 l 63 58 m 240 88 q 251 90 249 88 q 253 96 253 92 l 267 724 q 265 733 267 731 q 254 736 263 736 l 168 736 q 156 724 156 736 l 156 96 q 158 90 156 92 q 168 88 160 88 l 240 88 z "},"ỗ":{"ha":414,"x_min":63,"x_max":360,"o":"m 63 58 l 63 764 l 122 808 l 296 808 l 351 769 l 351 50 l 264 0 l 144 0 l 63 58 m 240 88 q 251 90 249 88 q 253 96 253 92 l 267 724 q 265 733 267 731 q 254 736 263 736 l 168 736 q 156 724 156 736 l 156 96 q 158 90 156 92 q 168 88 160 88 l 240 88 z "},"ȍ":{"ha":414,"x_min":13,"x_max":360,"o":"m 63 58 l 63 764 l 122 808 l 296 808 l 351 769 l 351 50 l 264 0 l 144 0 l 63 58 m 240 88 q 251 90 249 88 q 253 96 253 92 l 267 724 q 265 733 267 731 q 254 736 263 736 l 168 736 q 156 724 156 736 l 156 96 q 158 90 156 92 q 168 88 160 88 l 240 88 z "},"ö":{"ha":414,"x_min":60,"x_max":364,"o":"m 63 58 l 63 764 l 122 808 l 296 808 l 351 769 l 351 50 l 264 0 l 144 0 l 63 58 m 240 88 q 251 90 249 88 q 253 96 253 92 l 267 724 q 265 733 267 731 q 254 736 263 736 l 168 736 q 156 724 156 736 l 156 96 q 158 90 156 92 q 168 88 160 88 l 240 88 z "},"ȫ":{"ha":414,"x_min":60,"x_max":364,"o":"m 63 58 l 63 764 l 122 808 l 296 808 l 351 769 l 351 50 l 264 0 l 144 0 l 63 58 m 240 88 q 251 90 249 88 q 253 96 253 92 l 267 724 q 265 733 267 731 q 254 736 263 736 l 168 736 q 156 724 156 736 l 156 96 q 158 90 156 92 q 168 88 160 88 l 240 88 z "},"ȱ":{"ha":414,"x_min":63,"x_max":358,"o":"m 63 58 l 63 764 l 122 808 l 296 808 l 351 769 l 351 50 l 264 0 l 144 0 l 63 58 m 240 88 q 251 90 249 88 q 253 96 253 92 l 267 724 q 265 733 267 731 q 254 736 263 736 l 168 736 q 156 724 156 736 l 156 96 q 158 90 156 92 q 168 88 160 88 l 240 88 z "},"ọ":{"ha":414,"x_min":63,"x_max":351,"o":"m 63 58 l 63 764 l 122 808 l 296 808 l 351 769 l 351 50 l 264 0 l 144 0 l 63 58 m 240 88 q 251 90 249 88 q 253 96 253 92 l 267 724 q 265 733 267 731 q 254 736 263 736 l 168 736 q 156 724 156 736 l 156 96 q 158 90 156 92 q 168 88 160 88 l 240 88 m 142 -78 l 271 -78 l 271 -210 l 147 -214 l 142 -78 z "},"ò":{"ha":414,"x_min":63,"x_max":351,"o":"m 63 58 l 63 764 l 122 808 l 296 808 l 351 769 l 351 50 l 264 0 l 144 0 l 63 58 m 240 88 q 251 90 249 88 q 253 96 253 92 l 267 724 q 265 733 267 731 q 254 736 263 736 l 168 736 q 156 724 156 736 l 156 96 q 158 90 156 92 q 168 88 160 88 l 240 88 z "},"ỏ":{"ha":414,"x_min":63,"x_max":351,"o":"m 63 58 l 63 764 l 122 808 l 296 808 l 351 769 l 351 50 l 264 0 l 144 0 l 63 58 m 240 88 q 251 90 249 88 q 253 96 253 92 l 267 724 q 265 733 267 731 q 254 736 263 736 l 168 736 q 156 724 156 736 l 156 96 q 158 90 156 92 q 168 88 160 88 l 240 88 m 165 947 l 225 971 l 222 1003 l 133 1013 l 132 1051 l 256 1058 q 291 1047 278 1060 q 304 1010 304 1033 l 304 949 l 249 926 l 236 885 l 188 885 l 165 947 z "},"ơ":{"ha":414,"x_min":63,"x_max":449,"o":"m 449 931 l 397 776 l 363 747 l 351 747 l 351 50 l 264 0 l 144 0 l 63 58 l 63 764 l 122 808 l 336 808 l 369 944 l 449 931 m 267 724 q 265 733 267 731 q 254 736 263 736 l 168 736 q 156 724 156 736 l 156 96 q 158 90 156 92 q 168 88 160 88 l 240 88 q 251 90 249 88 q 253 96 253 92 l 267 724 z "},"ớ":{"ha":414,"x_min":63,"x_max":449,"o":"m 449 931 l 397 776 l 363 747 l 351 747 l 351 50 l 264 0 l 144 0 l 63 58 l 63 764 l 122 808 l 336 808 l 369 944 l 449 931 m 267 724 q 265 733 267 731 q 254 736 263 736 l 168 736 q 156 724 156 736 l 156 96 q 158 90 156 92 q 168 88 160 88 l 240 88 q 251 90 249 88 q 253 96 253 92 l 267 724 z "},"ợ":{"ha":414,"x_min":63,"x_max":449,"o":"m 449 931 l 397 776 l 363 747 l 351 747 l 351 50 l 264 0 l 144 0 l 63 58 l 63 764 l 122 808 l 336 808 l 369 944 l 449 931 m 267 724 q 265 733 267 731 q 254 736 263 736 l 168 736 q 156 724 156 736 l 156 96 q 158 90 156 92 q 168 88 160 88 l 240 88 q 251 90 249 88 q 253 96 253 92 l 267 724 m 142 -78 l 271 -78 l 271 -210 l 147 -214 l 142 -78 z "},"ờ":{"ha":414,"x_min":63,"x_max":449,"o":"m 449 931 l 397 776 l 363 747 l 351 747 l 351 50 l 264 0 l 144 0 l 63 58 l 63 764 l 122 808 l 336 808 l 369 944 l 449 931 m 267 724 q 265 733 267 731 q 254 736 263 736 l 168 736 q 156 724 156 736 l 156 96 q 158 90 156 92 q 168 88 160 88 l 240 88 q 251 90 249 88 q 253 96 253 92 l 267 724 z "},"ở":{"ha":414,"x_min":63,"x_max":449,"o":"m 449 931 l 397 776 l 363 747 l 351 747 l 351 50 l 264 0 l 144 0 l 63 58 l 63 764 l 122 808 l 336 808 l 369 944 l 449 931 m 267 724 q 265 733 267 731 q 254 736 263 736 l 168 736 q 156 724 156 736 l 156 96 q 158 90 156 92 q 168 88 160 88 l 240 88 q 251 90 249 88 q 253 96 253 92 l 267 724 m 165 947 l 225 971 l 222 1003 l 133 1013 l 132 1051 l 256 1058 q 291 1047 278 1060 q 304 1010 304 1033 l 304 949 l 249 926 l 236 885 l 188 885 l 165 947 z "},"ỡ":{"ha":414,"x_min":63,"x_max":449,"o":"m 449 931 l 397 776 l 363 747 l 351 747 l 351 50 l 264 0 l 144 0 l 63 58 l 63 764 l 122 808 l 336 808 l 369 944 l 449 931 m 267 724 q 265 733 267 731 q 254 736 263 736 l 168 736 q 156 724 156 736 l 156 96 q 158 90 156 92 q 168 88 160 88 l 240 88 q 251 90 249 88 q 253 96 253 92 l 267 724 z "},"ő":{"ha":414,"x_min":63,"x_max":403,"o":"m 63 58 l 63 764 l 122 808 l 296 808 l 351 769 l 351 50 l 264 0 l 144 0 l 63 58 m 240 88 q 251 90 249 88 q 253 96 253 92 l 267 724 q 265 733 267 731 q 254 736 263 736 l 168 736 q 156 724 156 736 l 156 96 q 158 90 156 92 q 168 88 160 88 l 240 88 z "},"ȏ":{"ha":414,"x_min":63,"x_max":351,"o":"m 63 58 l 63 764 l 122 808 l 296 808 l 351 769 l 351 50 l 264 0 l 144 0 l 63 58 m 240 88 q 251 90 249 88 q 253 96 253 92 l 267 724 q 265 733 267 731 q 254 736 263 736 l 168 736 q 156 724 156 736 l 156 96 q 158 90 156 92 q 168 88 160 88 l 240 88 m 275 896 l 279 988 l 168 981 l 151 965 l 158 899 l 85 899 l 90 1011 l 153 1050 l 285 1050 l 339 996 l 339 890 l 275 896 z "},"ō":{"ha":414,"x_min":63,"x_max":358,"o":"m 63 58 l 63 764 l 122 808 l 296 808 l 351 769 l 351 50 l 264 0 l 144 0 l 63 58 m 240 88 q 251 90 249 88 q 253 96 253 92 l 267 724 q 265 733 267 731 q 254 736 263 736 l 168 736 q 156 724 156 736 l 156 96 q 158 90 156 92 q 168 88 160 88 l 240 88 z "},"ǫ":{"ha":414,"x_min":28,"x_max":351,"o":"m 247 0 l 119 -139 l 174 -193 l 269 -162 l 269 -203 l 160 -283 l 28 -187 l 49 -90 l 165 0 l 144 0 l 63 58 l 63 764 l 122 808 l 296 808 l 351 769 l 351 50 l 264 0 l 247 0 m 156 96 q 158 90 156 92 q 168 88 160 88 l 240 88 q 251 90 249 88 q 253 96 253 92 l 267 724 q 265 733 267 731 q 254 736 263 736 l 168 736 q 156 724 156 736 l 156 96 z "},"ø":{"ha":414,"x_min":24,"x_max":386,"o":"m 24 -64 l 63 58 l 63 764 l 122 808 l 304 808 l 335 901 l 386 879 l 351 768 l 351 50 l 264 0 l 113 0 l 85 -87 l 24 -64 m 265 688 l 267 724 q 265 733 267 731 q 254 736 263 736 l 168 736 q 156 724 156 736 l 156 346 l 265 688 m 240 88 q 251 90 249 88 q 253 96 253 92 l 261 479 l 156 140 l 156 96 q 158 90 156 92 q 168 88 160 88 l 240 88 z "},"ǿ":{"ha":414,"x_min":24,"x_max":386,"o":"m 24 -64 l 63 58 l 63 764 l 122 808 l 304 808 l 335 901 l 386 879 l 351 768 l 351 50 l 264 0 l 113 0 l 85 -87 l 24 -64 m 265 688 l 267 724 q 265 733 267 731 q 254 736 263 736 l 168 736 q 156 724 156 736 l 156 346 l 265 688 m 240 88 q 251 90 249 88 q 253 96 253 92 l 261 479 l 156 140 l 156 96 q 158 90 156 92 q 168 88 160 88 l 240 88 z "},"õ":{"ha":414,"x_min":63,"x_max":360,"o":"m 63 58 l 63 764 l 122 808 l 296 808 l 351 769 l 351 50 l 264 0 l 144 0 l 63 58 m 240 88 q 251 90 249 88 q 253 96 253 92 l 267 724 q 265 733 267 731 q 254 736 263 736 l 168 736 q 156 724 156 736 l 156 96 q 158 90 156 92 q 168 88 160 88 l 240 88 z "},"ȭ":{"ha":414,"x_min":63,"x_max":360,"o":"m 63 58 l 63 764 l 122 808 l 296 808 l 351 769 l 351 50 l 264 0 l 144 0 l 63 58 m 240 88 q 251 90 249 88 q 253 96 253 92 l 267 724 q 265 733 267 731 q 254 736 263 736 l 168 736 q 156 724 156 736 l 156 96 q 158 90 156 92 q 168 88 160 88 l 240 88 z "},"œ":{"ha":599,"x_min":63,"x_max":543,"o":"m 63 58 l 63 764 l 122 808 l 483 808 q 526 787 510 808 q 543 738 543 765 l 543 403 l 486 358 l 364 365 l 363 90 q 374 79 363 79 l 456 78 l 479 169 l 539 169 l 539 0 l 144 0 l 63 58 m 240 88 q 251 90 249 88 q 253 96 253 92 l 267 724 q 265 733 267 731 q 254 736 263 736 l 168 736 q 156 724 156 736 l 156 96 q 158 90 156 92 q 168 88 160 88 l 240 88 m 438 442 q 447 444 444 442 q 450 457 450 447 l 458 715 q 446 728 458 728 l 365 728 q 355 725 357 728 q 353 715 353 722 l 360 442 l 438 442 z "},"p":{"ha":397,"x_min":63,"x_max":335,"o":"m 64 808 l 264 808 q 313 788 297 808 q 329 731 329 767 l 335 63 q 308 15 335 35 q 243 -4 282 -4 q 151 1 199 -4 l 144 -179 l 63 -179 l 64 808 m 240 89 l 249 725 q 247 731 249 729 q 236 733 244 732 l 172 738 l 160 729 l 147 85 l 228 76 l 240 89 z "},"þ":{"ha":397,"x_min":56,"x_max":353,"o":"m 56 986 l 126 986 l 140 653 l 228 653 q 317 633 281 653 q 353 585 353 613 l 353 276 q 342 238 353 261 q 300 195 332 215 q 210 175 268 175 l 136 175 l 136 -181 l 56 -181 l 56 986 m 232 260 q 240 268 240 260 l 254 535 q 239 566 253 553 q 196 579 225 579 l 172 579 q 156 569 156 579 l 156 257 q 160 249 156 253 q 172 246 165 246 l 232 260 z "},"q":{"ha":408,"x_min":63,"x_max":349,"o":"m 250 0 l 121 0 q 78 19 94 0 q 63 75 63 39 l 65 758 q 81 797 65 785 q 136 808 96 808 l 342 808 l 349 -179 l 258 -179 l 250 0 m 235 86 q 245 88 243 86 q 247 94 247 90 l 247 708 q 235 721 247 721 l 158 721 q 148 718 150 721 q 146 708 146 715 l 160 94 q 162 88 160 90 q 172 86 164 86 l 235 86 z "},"r":{"ha":326,"x_min":63,"x_max":303,"o":"m 63 797 q 122 807 92 804 q 218 810 151 810 q 279 791 256 810 q 303 743 303 772 l 303 625 l 231 625 l 224 717 q 222 722 224 721 q 211 725 219 724 l 151 732 l 154 0 l 63 0 l 63 797 z "},"ŕ":{"ha":326,"x_min":63,"x_max":303,"o":"m 63 797 q 122 807 92 804 q 218 810 151 810 q 279 791 256 810 q 303 743 303 772 l 303 625 l 231 625 l 224 717 q 222 722 224 721 q 211 725 219 724 l 151 732 l 154 0 l 63 0 l 63 797 z "},"ř":{"ha":326,"x_min":46,"x_max":307,"o":"m 63 797 q 122 807 92 804 q 218 810 151 810 q 279 791 256 810 q 303 743 303 772 l 303 625 l 231 625 l 224 717 q 222 722 224 721 q 211 725 219 724 l 151 732 l 154 0 l 63 0 l 63 797 m 149 893 l 46 1046 l 86 1072 l 176 986 l 267 1072 l 307 1046 l 204 889 l 149 893 z "},"ŗ":{"ha":326,"x_min":51,"x_max":303,"o":"m 63 797 q 122 807 92 804 q 218 810 151 810 q 279 791 256 810 q 303 743 303 772 l 303 625 l 231 625 l 224 717 q 222 722 224 721 q 211 725 219 724 l 151 732 l 154 0 l 63 0 l 63 797 m 51 -297 l 115 -194 l 57 -194 l 57 -81 l 169 -81 l 174 -194 l 128 -319 l 51 -297 z "},"ȑ":{"ha":326,"x_min":-26,"x_max":321,"o":"m 63 797 q 122 807 92 804 q 218 810 151 810 q 279 791 256 810 q 303 743 303 772 l 303 625 l 231 625 l 224 717 q 222 722 224 721 q 211 725 219 724 l 151 732 l 154 0 l 63 0 l 63 797 z "},"ṛ":{"ha":326,"x_min":47,"x_max":303,"o":"m 63 797 q 122 807 92 804 q 218 810 151 810 q 279 791 256 810 q 303 743 303 772 l 303 625 l 231 625 l 224 717 q 222 722 224 721 q 211 725 219 724 l 151 732 l 154 0 l 63 0 l 63 797 m 47 -78 l 176 -78 l 176 -210 l 53 -214 l 47 -78 z "},"ȓ":{"ha":326,"x_min":46,"x_max":303,"o":"m 63 797 q 122 807 92 804 q 218 810 151 810 q 279 791 256 810 q 303 743 303 772 l 303 625 l 231 625 l 224 717 q 222 722 224 721 q 211 725 219 724 l 151 732 l 154 0 l 63 0 l 63 797 m 236 896 l 240 988 l 129 981 l 113 965 l 119 899 l 46 899 l 51 1011 l 114 1050 l 246 1050 l 300 996 l 300 890 l 236 896 z "},"s":{"ha":342,"x_min":56,"x_max":292,"o":"m 56 89 l 211 89 l 183 382 l 56 417 l 56 754 q 70 791 56 774 q 101 808 85 808 l 292 808 l 292 740 l 132 718 l 150 486 l 292 449 l 292 68 q 267 22 292 44 q 218 0 243 0 l 56 0 l 56 89 z "},"ś":{"ha":342,"x_min":56,"x_max":292,"o":"m 56 89 l 211 89 l 183 382 l 56 417 l 56 754 q 70 791 56 774 q 101 808 85 808 l 292 808 l 292 740 l 132 718 l 150 486 l 292 449 l 292 68 q 267 22 292 44 q 218 0 243 0 l 56 0 l 56 89 z "},"š":{"ha":342,"x_min":47,"x_max":308,"o":"m 56 89 l 211 89 l 183 382 l 56 417 l 56 754 q 70 791 56 774 q 101 808 85 808 l 292 808 l 292 740 l 132 718 l 150 486 l 292 449 l 292 68 q 267 22 292 44 q 218 0 243 0 l 56 0 l 56 89 m 150 893 l 47 1046 l 88 1072 l 178 986 l 268 1072 l 308 1046 l 206 889 l 150 893 z "},"ş":{"ha":342,"x_min":28,"x_max":304,"o":"m 304 -62 l 288 -206 q 258 -262 288 -235 q 199 -289 229 -289 l 28 -289 l 28 -208 l 207 -208 l 221 -135 l 75 -124 l 110 0 l 56 0 l 56 89 l 211 89 l 183 382 l 56 417 l 56 754 q 70 791 56 774 q 101 808 85 808 l 292 808 l 292 740 l 132 718 l 150 486 l 292 449 l 292 68 q 267 22 292 44 q 218 0 243 0 l 197 0 l 165 -62 l 304 -62 z "},"ŝ":{"ha":342,"x_min":47,"x_max":308,"o":"m 56 89 l 211 89 l 183 382 l 56 417 l 56 754 q 70 791 56 774 q 101 808 85 808 l 292 808 l 292 740 l 132 718 l 150 486 l 292 449 l 292 68 q 267 22 292 44 q 218 0 243 0 l 56 0 l 56 89 m 47 915 l 150 1072 l 206 1068 l 308 915 l 268 889 l 178 975 l 88 889 l 47 915 z "},"ș":{"ha":342,"x_min":56,"x_max":292,"o":"m 56 89 l 211 89 l 183 382 l 56 417 l 56 754 q 70 791 56 774 q 101 808 85 808 l 292 808 l 292 740 l 132 718 l 150 486 l 292 449 l 292 68 q 267 22 292 44 q 218 0 243 0 l 56 0 l 56 89 m 113 -297 l 176 -194 l 118 -194 l 118 -81 l 231 -81 l 235 -194 l 189 -319 l 113 -297 z "},"ṣ":{"ha":342,"x_min":56,"x_max":292,"o":"m 56 89 l 211 89 l 183 382 l 56 417 l 56 754 q 70 791 56 774 q 101 808 85 808 l 292 808 l 292 740 l 132 718 l 150 486 l 292 449 l 292 68 q 267 22 292 44 q 218 0 243 0 l 56 0 l 56 89 m 108 -78 l 238 -78 l 238 -210 l 114 -214 l 108 -78 z "},"ß":{"ha":572,"x_min":61,"x_max":504,"o":"m 61 889 l 201 986 l 303 986 l 458 835 l 315 533 l 317 526 l 504 507 l 504 83 q 467 27 501 54 q 401 0 432 0 l 258 0 l 242 238 l 335 238 l 324 117 l 410 94 l 410 411 l 258 453 l 222 540 l 314 836 l 279 889 l 146 856 l 175 -1 l 61 -1 l 61 889 z "},"ſ":{"ha":406,"x_min":61,"x_max":358,"o":"m 61 986 l 358 958 l 358 872 l 138 856 l 175 -28 l 61 -28 l 61 986 z "},"t":{"ha":331,"x_min":28,"x_max":317,"o":"m 78 68 l 88 733 l 28 733 l 28 775 l 88 807 l 111 986 l 178 986 l 178 808 l 314 808 l 314 725 l 175 725 l 175 100 l 254 75 l 268 190 l 317 190 l 317 0 l 138 0 l 78 68 z "},"ŧ":{"ha":331,"x_min":11,"x_max":329,"o":"m 175 449 l 175 100 l 254 75 l 268 190 l 317 190 l 317 0 l 138 0 l 78 68 l 83 449 l 15 449 l 11 529 l 85 526 l 88 733 l 28 733 l 28 775 l 88 807 l 111 986 l 178 986 l 178 808 l 314 808 l 314 725 l 175 725 l 175 522 l 329 517 l 329 449 l 175 449 z "},"ť":{"ha":357,"x_min":28,"x_max":376,"o":"m 293 954 l 249 1082 l 368 1088 l 376 954 l 296 850 l 222 850 l 293 954 m 78 68 l 88 733 l 28 733 l 28 775 l 88 807 l 111 986 l 178 986 l 178 808 l 314 808 l 314 725 l 175 725 l 175 100 l 254 75 l 268 190 l 317 190 l 317 0 l 138 0 l 78 68 z "},"ţ":{"ha":331,"x_min":28,"x_max":324,"o":"m 324 -62 l 307 -206 q 278 -262 307 -235 q 218 -289 249 -289 l 47 -289 l 47 -208 l 226 -208 l 240 -135 l 94 -124 l 132 7 l 78 68 l 88 733 l 28 733 l 28 775 l 88 807 l 111 986 l 178 986 l 178 808 l 314 808 l 314 725 l 175 725 l 175 100 l 254 75 l 268 190 l 317 190 l 317 0 l 217 0 l 185 -62 l 324 -62 z "},"ț":{"ha":331,"x_min":28,"x_max":317,"o":"m 78 68 l 88 733 l 28 733 l 28 775 l 88 807 l 111 986 l 178 986 l 178 808 l 314 808 l 314 725 l 175 725 l 175 100 l 254 75 l 268 190 l 317 190 l 317 0 l 138 0 l 78 68 m 132 -297 l 196 -194 l 138 -194 l 138 -81 l 250 -81 l 254 -194 l 208 -319 l 132 -297 z "},"ṭ":{"ha":331,"x_min":28,"x_max":317,"o":"m 78 68 l 88 733 l 28 733 l 28 775 l 88 807 l 111 986 l 178 986 l 178 808 l 314 808 l 314 725 l 175 725 l 175 100 l 254 75 l 268 190 l 317 190 l 317 0 l 138 0 l 78 68 m 128 -78 l 257 -78 l 257 -210 l 133 -214 l 128 -78 z "},"u":{"ha":414,"x_min":63,"x_max":351,"o":"m 63 44 l 63 764 l 101 810 l 156 810 l 156 93 q 168 81 156 81 l 254 81 q 265 83 263 81 q 267 93 267 86 l 253 808 l 351 808 l 351 39 l 296 0 l 122 0 l 63 44 z "},"ú":{"ha":414,"x_min":63,"x_max":351,"o":"m 63 44 l 63 764 l 101 810 l 156 810 l 156 93 q 168 81 156 81 l 254 81 q 265 83 263 81 q 267 93 267 86 l 253 808 l 351 808 l 351 39 l 296 0 l 122 0 l 63 44 z "},"ŭ":{"ha":414,"x_min":58,"x_max":354,"o":"m 63 44 l 63 764 l 101 810 l 156 810 l 156 93 q 168 81 156 81 l 254 81 q 265 83 263 81 q 267 93 267 86 l 253 808 l 351 808 l 351 39 l 296 0 l 122 0 l 63 44 m 64 943 l 58 1056 l 132 1056 l 125 989 l 142 974 l 294 967 l 290 1058 l 354 1064 l 354 958 l 300 904 l 126 904 l 64 943 z "},"ǔ":{"ha":414,"x_min":63,"x_max":351,"o":"m 63 44 l 63 764 l 101 810 l 156 810 l 156 93 q 168 81 156 81 l 254 81 q 265 83 263 81 q 267 93 267 86 l 253 808 l 351 808 l 351 39 l 296 0 l 122 0 l 63 44 m 182 893 l 79 1046 l 119 1072 l 210 986 l 300 1072 l 340 1046 l 238 889 l 182 893 z "},"û":{"ha":414,"x_min":63,"x_max":351,"o":"m 63 44 l 63 764 l 101 810 l 156 810 l 156 93 q 168 81 156 81 l 254 81 q 265 83 263 81 q 267 93 267 86 l 253 808 l 351 808 l 351 39 l 296 0 l 122 0 l 63 44 m 79 915 l 182 1072 l 238 1068 l 340 915 l 300 889 l 210 975 l 119 889 l 79 915 z "},"ȕ":{"ha":414,"x_min":7,"x_max":354,"o":"m 63 44 l 63 764 l 101 810 l 156 810 l 156 93 q 168 81 156 81 l 254 81 q 265 83 263 81 q 267 93 267 86 l 253 808 l 351 808 l 351 39 l 296 0 l 122 0 l 63 44 z "},"ü":{"ha":414,"x_min":54,"x_max":358,"o":"m 63 44 l 63 764 l 101 810 l 156 810 l 156 93 q 168 81 156 81 l 254 81 q 265 83 263 81 q 267 93 267 86 l 253 808 l 351 808 l 351 39 l 296 0 l 122 0 l 63 44 z "},"ǘ":{"ha":414,"x_min":54,"x_max":358,"o":"m 63 44 l 63 764 l 101 810 l 156 810 l 156 93 q 168 81 156 81 l 254 81 q 265 83 263 81 q 267 93 267 86 l 253 808 l 351 808 l 351 39 l 296 0 l 122 0 l 63 44 z "},"ǚ":{"ha":414,"x_min":54,"x_max":358,"o":"m 63 44 l 63 764 l 101 810 l 156 810 l 156 93 q 168 81 156 81 l 254 81 q 265 83 263 81 q 267 93 267 86 l 253 808 l 351 808 l 351 39 l 296 0 l 122 0 l 63 44 m 182 1088 l 79 1240 l 119 1267 l 210 1181 l 300 1267 l 340 1240 l 238 1083 l 182 1088 z "},"ǜ":{"ha":414,"x_min":54,"x_max":358,"o":"m 63 44 l 63 764 l 101 810 l 156 810 l 156 93 q 168 81 156 81 l 254 81 q 265 83 263 81 q 267 93 267 86 l 253 808 l 351 808 l 351 39 l 296 0 l 122 0 l 63 44 z "},"ǖ":{"ha":414,"x_min":54,"x_max":358,"o":"m 63 44 l 63 764 l 101 810 l 156 810 l 156 93 q 168 81 156 81 l 254 81 q 265 83 263 81 q 267 93 267 86 l 253 808 l 351 808 l 351 39 l 296 0 l 122 0 l 63 44 z "},"ụ":{"ha":414,"x_min":63,"x_max":351,"o":"m 63 44 l 63 764 l 101 810 l 156 810 l 156 93 q 168 81 156 81 l 254 81 q 265 83 263 81 q 267 93 267 86 l 253 808 l 351 808 l 351 39 l 296 0 l 122 0 l 63 44 m 146 -78 l 275 -78 l 275 -210 l 151 -214 l 146 -78 z "},"ù":{"ha":414,"x_min":63,"x_max":351,"o":"m 63 44 l 63 764 l 101 810 l 156 810 l 156 93 q 168 81 156 81 l 254 81 q 265 83 263 81 q 267 93 267 86 l 253 808 l 351 808 l 351 39 l 296 0 l 122 0 l 63 44 z "},"ủ":{"ha":414,"x_min":63,"x_max":351,"o":"m 63 44 l 63 764 l 101 810 l 156 810 l 156 93 q 168 81 156 81 l 254 81 q 265 83 263 81 q 267 93 267 86 l 253 808 l 351 808 l 351 39 l 296 0 l 122 0 l 63 44 m 160 947 l 219 971 l 217 1003 l 128 1013 l 126 1051 l 250 1058 q 285 1047 272 1060 q 299 1010 299 1033 l 299 949 l 243 926 l 231 885 l 182 885 l 160 947 z "},"ư":{"ha":414,"x_min":63,"x_max":476,"o":"m 476 931 l 425 776 l 390 747 l 351 747 l 351 39 l 296 0 l 122 0 l 63 44 l 63 764 l 101 810 l 156 810 l 156 93 q 168 81 156 81 l 254 81 q 265 83 263 81 q 267 93 267 86 l 253 808 l 364 808 l 397 944 l 476 931 z "},"ứ":{"ha":414,"x_min":63,"x_max":476,"o":"m 476 931 l 425 776 l 390 747 l 351 747 l 351 39 l 296 0 l 122 0 l 63 44 l 63 764 l 101 810 l 156 810 l 156 93 q 168 81 156 81 l 254 81 q 265 83 263 81 q 267 93 267 86 l 253 808 l 364 808 l 397 944 l 476 931 z "},"ự":{"ha":414,"x_min":63,"x_max":476,"o":"m 476 931 l 425 776 l 390 747 l 351 747 l 351 39 l 296 0 l 122 0 l 63 44 l 63 764 l 101 810 l 156 810 l 156 93 q 168 81 156 81 l 254 81 q 265 83 263 81 q 267 93 267 86 l 253 808 l 364 808 l 397 944 l 476 931 m 146 -78 l 275 -78 l 275 -210 l 151 -214 l 146 -78 z "},"ừ":{"ha":414,"x_min":63,"x_max":476,"o":"m 476 931 l 425 776 l 390 747 l 351 747 l 351 39 l 296 0 l 122 0 l 63 44 l 63 764 l 101 810 l 156 810 l 156 93 q 168 81 156 81 l 254 81 q 265 83 263 81 q 267 93 267 86 l 253 808 l 364 808 l 397 944 l 476 931 z "},"ử":{"ha":414,"x_min":63,"x_max":476,"o":"m 476 931 l 425 776 l 390 747 l 351 747 l 351 39 l 296 0 l 122 0 l 63 44 l 63 764 l 101 810 l 156 810 l 156 93 q 168 81 156 81 l 254 81 q 265 83 263 81 q 267 93 267 86 l 253 808 l 364 808 l 397 944 l 476 931 m 160 947 l 219 971 l 217 1003 l 128 1013 l 126 1051 l 250 1058 q 285 1047 272 1060 q 299 1010 299 1033 l 299 949 l 243 926 l 231 885 l 182 885 l 160 947 z "},"ữ":{"ha":414,"x_min":63,"x_max":476,"o":"m 476 931 l 425 776 l 390 747 l 351 747 l 351 39 l 296 0 l 122 0 l 63 44 l 63 764 l 101 810 l 156 810 l 156 93 q 168 81 156 81 l 254 81 q 265 83 263 81 q 267 93 267 86 l 253 808 l 364 808 l 397 944 l 476 931 z "},"ű":{"ha":414,"x_min":63,"x_max":397,"o":"m 63 44 l 63 764 l 101 810 l 156 810 l 156 93 q 168 81 156 81 l 254 81 q 265 83 263 81 q 267 93 267 86 l 253 808 l 351 808 l 351 39 l 296 0 l 122 0 l 63 44 z "},"ȗ":{"ha":414,"x_min":63,"x_max":351,"o":"m 63 44 l 63 764 l 101 810 l 156 810 l 156 93 q 168 81 156 81 l 254 81 q 265 83 263 81 q 267 93 267 86 l 253 808 l 351 808 l 351 39 l 296 0 l 122 0 l 63 44 m 269 896 l 274 988 l 163 981 l 146 965 l 153 899 l 79 899 l 85 1011 l 147 1050 l 279 1050 l 333 996 l 333 890 l 269 896 z "},"ū":{"ha":414,"x_min":63,"x_max":353,"o":"m 63 44 l 63 764 l 101 810 l 156 810 l 156 93 q 168 81 156 81 l 254 81 q 265 83 263 81 q 267 93 267 86 l 253 808 l 351 808 l 351 39 l 296 0 l 122 0 l 63 44 z "},"ų":{"ha":414,"x_min":61,"x_max":351,"o":"m 281 0 l 153 -139 l 207 -193 l 303 -162 l 303 -203 l 193 -283 l 61 -187 l 82 -90 l 199 0 l 122 0 l 63 44 l 63 764 l 101 810 l 156 810 l 156 93 q 168 81 156 81 l 254 81 q 265 83 263 81 q 267 93 267 86 l 253 808 l 351 808 l 351 39 l 296 0 l 281 0 z "},"ů":{"ha":414,"x_min":63,"x_max":351,"o":"m 63 44 l 63 764 l 101 810 l 156 810 l 156 93 q 168 81 156 81 l 254 81 q 265 83 263 81 q 267 93 267 86 l 253 808 l 351 808 l 351 39 l 296 0 l 122 0 l 63 44 m 113 1075 l 306 1075 l 306 924 l 271 888 l 113 888 l 113 1075 m 238 936 q 247 944 247 936 l 247 1022 q 239 1031 247 1026 l 183 1038 q 172 1033 172 1038 l 172 942 q 181 936 172 936 l 238 936 z "},"ũ":{"ha":414,"x_min":63,"x_max":354,"o":"m 63 44 l 63 764 l 101 810 l 156 810 l 156 93 q 168 81 156 81 l 254 81 q 265 83 263 81 q 267 93 267 86 l 253 808 l 351 808 l 351 39 l 296 0 l 122 0 l 63 44 z "},"v":{"ha":364,"x_min":17,"x_max":350,"o":"m 17 807 l 124 807 l 179 135 l 194 135 l 256 807 l 350 807 l 221 -35 l 146 -35 l 17 807 z "},"w":{"ha":514,"x_min":14,"x_max":503,"o":"m 14 807 l 121 807 l 135 135 l 150 135 l 217 657 l 300 657 l 367 168 l 382 168 l 396 840 l 503 840 l 415 -1 l 340 -1 l 258 499 l 176 -35 l 101 -35 l 14 807 z "},"ẃ":{"ha":514,"x_min":14,"x_max":503,"o":"m 14 807 l 121 807 l 135 135 l 150 135 l 217 657 l 300 657 l 367 168 l 382 168 l 396 840 l 503 840 l 415 -1 l 340 -1 l 258 499 l 176 -35 l 101 -35 l 14 807 z "},"ŵ":{"ha":514,"x_min":14,"x_max":503,"o":"m 14 807 l 121 807 l 135 135 l 150 135 l 217 657 l 300 657 l 367 168 l 382 168 l 396 840 l 503 840 l 415 -1 l 340 -1 l 258 499 l 176 -35 l 101 -35 l 14 807 m 124 915 l 226 1072 l 282 1068 l 385 915 l 344 889 l 254 975 l 164 889 l 124 915 z "},"ẅ":{"ha":514,"x_min":14,"x_max":503,"o":"m 14 807 l 121 807 l 135 135 l 150 135 l 217 657 l 300 657 l 367 168 l 382 168 l 396 840 l 503 840 l 415 -1 l 340 -1 l 258 499 l 176 -35 l 101 -35 l 14 807 z "},"ẁ":{"ha":514,"x_min":14,"x_max":503,"o":"m 14 807 l 121 807 l 135 135 l 150 135 l 217 657 l 300 657 l 367 168 l 382 168 l 396 840 l 503 840 l 415 -1 l 340 -1 l 258 499 l 176 -35 l 101 -35 l 14 807 z "},"x":{"ha":383,"x_min":17,"x_max":379,"o":"m 93 396 l 135 419 l 17 808 l 129 808 l 193 446 l 217 460 l 263 843 l 358 843 l 278 425 l 249 408 l 379 0 l 267 0 l 182 376 l 160 364 l 115 0 l 19 0 l 93 396 z "},"y":{"ha":367,"x_min":17,"x_max":350,"o":"m 19 -182 l 149 19 l 17 807 l 124 807 l 182 204 l 197 204 l 256 807 l 350 807 l 232 57 l 189 -76 l 94 -233 l 19 -182 z "},"ý":{"ha":367,"x_min":17,"x_max":350,"o":"m 19 -182 l 149 19 l 17 807 l 124 807 l 182 204 l 197 204 l 256 807 l 350 807 l 232 57 l 189 -76 l 94 -233 l 19 -182 z "},"ŷ":{"ha":367,"x_min":17,"x_max":350,"o":"m 19 -182 l 149 19 l 17 807 l 124 807 l 182 204 l 197 204 l 256 807 l 350 807 l 232 57 l 189 -76 l 94 -233 l 19 -182 m 53 915 l 156 1072 l 211 1068 l 314 915 l 274 889 l 183 975 l 93 889 l 53 915 z "},"ÿ":{"ha":367,"x_min":17,"x_max":350,"o":"m 19 -182 l 149 19 l 17 807 l 124 807 l 182 204 l 197 204 l 256 807 l 350 807 l 232 57 l 189 -76 l 94 -233 l 19 -182 z "},"ỵ":{"ha":367,"x_min":17,"x_max":353,"o":"m 19 -182 l 149 19 l 17 807 l 124 807 l 182 204 l 197 204 l 256 807 l 350 807 l 232 57 l 189 -76 l 94 -233 l 19 -182 m 224 -78 l 353 -78 l 353 -210 l 229 -214 l 224 -78 z "},"ỳ":{"ha":367,"x_min":17,"x_max":350,"o":"m 19 -182 l 149 19 l 17 807 l 124 807 l 182 204 l 197 204 l 256 807 l 350 807 l 232 57 l 189 -76 l 94 -233 l 19 -182 z "},"ỷ":{"ha":367,"x_min":17,"x_max":350,"o":"m 19 -182 l 149 19 l 17 807 l 124 807 l 182 204 l 197 204 l 256 807 l 350 807 l 232 57 l 189 -76 l 94 -233 l 19 -182 m 133 947 l 193 971 l 190 1003 l 101 1013 l 100 1051 l 224 1058 q 259 1047 246 1060 q 272 1010 272 1033 l 272 949 l 217 926 l 204 885 l 156 885 l 133 947 z "},"ȳ":{"ha":367,"x_min":17,"x_max":350,"o":"m 19 -182 l 149 19 l 17 807 l 124 807 l 182 204 l 197 204 l 256 807 l 350 807 l 232 57 l 189 -76 l 94 -233 l 19 -182 z "},"ỹ":{"ha":367,"x_min":17,"x_max":350,"o":"m 19 -182 l 149 19 l 17 807 l 124 807 l 182 204 l 197 204 l 256 807 l 350 807 l 232 57 l 189 -76 l 94 -233 l 19 -182 z "},"z":{"ha":329,"x_min":32,"x_max":297,"o":"m 32 67 l 190 714 l 42 732 l 40 808 l 263 808 l 297 774 l 136 96 l 292 74 l 292 0 l 64 0 l 32 67 z "},"ź":{"ha":329,"x_min":32,"x_max":297,"o":"m 32 67 l 190 714 l 42 732 l 40 808 l 263 808 l 297 774 l 136 96 l 292 74 l 292 0 l 64 0 l 32 67 z "},"ž":{"ha":329,"x_min":32,"x_max":297,"o":"m 32 67 l 190 714 l 42 732 l 40 808 l 263 808 l 297 774 l 136 96 l 292 74 l 292 0 l 64 0 l 32 67 m 138 893 l 35 1046 l 75 1072 l 165 986 l 256 1072 l 296 1046 l 193 889 l 138 893 z "},"ż":{"ha":329,"x_min":32,"x_max":297,"o":"m 32 67 l 190 714 l 42 732 l 40 808 l 263 808 l 297 774 l 136 96 l 292 74 l 292 0 l 64 0 l 32 67 z "},"ẓ":{"ha":329,"x_min":32,"x_max":297,"o":"m 32 67 l 190 714 l 42 732 l 40 808 l 263 808 l 297 774 l 136 96 l 292 74 l 292 0 l 64 0 l 32 67 m 97 -78 l 226 -78 l 226 -210 l 103 -214 l 97 -78 z "},"ﬁ":{"ha":492,"x_min":4,"x_max":440,"o":"m 61 725 l 4 725 l 4 808 l 60 808 l 58 918 q 74 968 58 950 q 118 986 90 986 l 435 986 l 419 869 l 347 864 l 326 903 l 151 896 l 149 808 l 271 808 l 271 735 l 150 725 l 157 0 l 58 0 l 61 725 m 329 808 l 432 808 l 421 71 l 440 29 l 439 -33 l 335 -33 l 329 808 z "},"ﬂ":{"ha":489,"x_min":4,"x_max":451,"o":"m 61 725 l 4 725 l 4 808 l 60 808 l 58 918 q 74 968 58 950 q 118 986 90 986 l 415 986 l 425 74 l 450 58 l 451 0 l 328 0 l 336 910 l 336 911 l 151 896 l 149 808 l 274 808 l 274 735 l 150 725 l 157 0 l 58 0 l 61 725 z "},"ª":{"ha":308,"x_min":63,"x_max":260,"o":"m 93 986 l 231 986 l 260 493 l 215 493 l 190 672 l 135 638 l 119 493 l 63 493 l 93 986 m 176 713 q 181 717 181 713 l 188 939 q 183 943 188 943 l 140 936 q 136 929 136 935 l 136 715 q 140 713 136 713 l 176 713 z "},"º":{"ha":329,"x_min":69,"x_max":260,"o":"m 69 969 q 82 981 69 975 q 113 986 94 986 q 212 980 164 986 q 260 969 260 974 l 260 519 q 222 493 260 493 l 76 493 l 69 969 m 206 561 l 199 919 l 193 924 l 149 917 q 143 913 143 915 l 129 550 l 136 543 l 206 561 z "},"Δ":{"ha":458,"x_min":21,"x_max":438,"o":"m 21 14 l 200 972 l 297 986 l 438 0 l 21 14 m 331 103 l 247 919 l 229 922 l 128 89 l 331 103 z "},"Ω":{"ha":472,"x_min":3,"x_max":469,"o":"m 7 85 l 128 94 l 129 100 l 89 225 l 89 914 l 176 986 l 308 986 l 392 919 l 392 217 l 321 92 l 322 86 l 469 108 l 463 1 l 275 8 l 261 100 l 294 272 l 315 901 q 303 914 315 914 l 183 914 q 171 901 171 914 l 171 272 l 208 119 l 182 1 l 3 1 l 7 85 z "},"μ":{"ha":422,"x_min":49,"x_max":368,"o":"m 49 -12 l 81 958 l 183 986 l 154 101 l 271 110 l 271 954 l 368 949 l 368 -12 l 124 -12 l 183 -308 l 60 -328 l 49 -12 z "},"π":{"ha":475,"x_min":15,"x_max":457,"o":"m 85 14 l 114 881 l 78 858 l 19 821 l 15 924 l 146 989 l 228 956 q 275 938 254 944 q 310 931 296 931 q 339 938 321 931 q 381 957 357 946 l 457 993 l 457 896 l 371 846 l 371 32 l 296 32 l 296 846 l 194 883 l 194 0 l 85 14 z "},"¹":{"ha":340,"x_min":63,"x_max":278,"o":"m 63 547 l 124 547 l 135 901 l 65 906 l 65 943 l 156 986 l 204 986 l 204 551 l 269 554 l 278 479 l 63 479 l 63 547 z "},"²":{"ha":344,"x_min":63,"x_max":282,"o":"m 74 554 l 199 769 l 206 915 l 147 915 l 133 789 l 86 786 l 86 919 l 138 986 l 276 986 l 267 740 l 157 560 l 282 544 l 282 479 l 63 479 l 74 554 z "},"³":{"ha":325,"x_min":63,"x_max":263,"o":"m 69 640 l 125 640 l 132 556 l 199 549 l 188 744 l 107 740 l 79 775 l 197 839 l 200 918 l 63 913 l 63 950 l 101 986 l 263 986 l 263 826 l 257 807 l 239 789 q 249 773 244 782 q 260 757 254 764 l 260 521 l 222 479 l 69 479 l 69 640 z "},"⁴":{"ha":275,"x_min":14,"x_max":268,"o":"m 156 582 l 28 582 l 14 631 l 118 986 l 218 986 l 219 649 l 268 639 l 268 582 l 219 582 l 219 479 l 156 479 l 156 582 m 153 653 l 161 907 l 156 907 l 88 653 l 153 653 z "},"⁄":{"ha":549,"x_min":0,"x_max":549,"o":"m 0 46 l 501 982 l 549 943 l 54 -3 l 0 46 z "},"½":{"ha":624,"x_min":28,"x_max":596,"o":"m 28 617 l 90 617 l 101 901 l 31 906 l 31 943 l 121 986 l 163 986 l 163 621 l 228 624 l 236 549 l 28 549 l 28 617 m 47 46 l 549 982 l 596 943 l 101 -3 l 47 46 m 371 75 l 496 249 l 503 381 l 444 381 l 431 268 l 383 265 l 383 385 l 435 451 l 574 451 l 564 219 l 454 81 l 579 65 l 579 0 l 360 0 l 371 75 z "},"⅓":{"ha":624,"x_min":28,"x_max":596,"o":"m 28 617 l 90 617 l 101 901 l 31 906 l 31 943 l 121 986 l 163 986 l 163 621 l 228 624 l 236 549 l 28 549 l 28 617 m 47 46 l 549 982 l 596 943 l 101 -3 l 47 46 m 397 161 l 453 161 l 460 76 l 526 69 l 515 224 l 435 219 l 407 254 l 525 318 l 528 369 l 390 364 l 390 401 l 429 438 l 590 438 l 590 306 l 585 286 l 567 268 q 577 252 572 261 q 588 236 582 243 l 588 42 l 550 0 l 397 0 l 397 161 z "},"⅔":{"ha":624,"x_min":19,"x_max":596,"o":"m 31 618 l 156 786 l 163 914 l 104 914 l 90 806 l 43 803 l 43 918 l 94 985 l 233 985 l 224 757 l 114 624 l 239 608 l 239 543 l 19 543 l 31 618 m 47 46 l 549 982 l 596 943 l 101 -3 l 47 46 m 397 161 l 453 161 l 460 76 l 526 69 l 515 224 l 435 219 l 407 254 l 525 318 l 528 369 l 390 364 l 390 401 l 429 438 l 590 438 l 590 306 l 585 286 l 567 268 q 577 252 572 261 q 588 236 582 243 l 588 42 l 550 0 l 397 0 l 397 161 z "},"¼":{"ha":624,"x_min":28,"x_max":596,"o":"m 28 617 l 90 617 l 101 901 l 31 906 l 31 943 l 121 986 l 163 986 l 163 621 l 228 624 l 236 549 l 28 549 l 28 617 m 47 46 l 549 982 l 596 943 l 101 -3 l 47 46 m 485 125 l 365 125 l 335 168 l 440 451 l 546 451 l 546 0 l 481 0 l 485 125 m 478 185 l 488 414 l 482 414 l 410 178 l 478 185 z "},"¾":{"ha":624,"x_min":47,"x_max":596,"o":"m 57 710 l 113 710 l 119 625 l 186 618 l 175 772 l 94 768 l 67 803 l 185 867 l 188 918 l 50 913 l 50 950 l 89 986 l 250 986 l 250 854 l 244 835 l 226 817 q 237 801 232 810 q 247 785 242 792 l 247 590 l 210 549 l 57 549 l 57 710 m 47 46 l 549 982 l 596 943 l 101 -3 l 47 46 m 485 125 l 365 125 l 335 168 l 440 451 l 546 451 l 546 0 l 481 0 l 485 125 m 478 185 l 488 414 l 482 414 l 410 178 l 478 185 z "},"⅛":{"ha":624,"x_min":28,"x_max":596,"o":"m 28 617 l 90 617 l 101 901 l 31 906 l 31 943 l 121 986 l 163 986 l 163 621 l 228 624 l 236 549 l 28 549 l 28 617 m 47 46 l 549 982 l 596 943 l 101 -3 l 47 46 m 374 40 l 388 182 l 422 217 l 390 243 l 390 418 l 440 440 l 589 433 l 578 233 l 547 218 l 588 194 l 582 33 l 565 0 l 388 0 l 374 40 m 526 383 l 457 383 l 454 249 l 515 233 l 526 383 m 521 53 l 526 168 l 454 186 l 436 53 l 521 53 z "},".":{"ha":286,"x_min":83,"x_max":217,"o":"m 83 128 l 217 133 l 211 0 l 83 0 l 83 128 z "},",":{"ha":201,"x_min":28,"x_max":160,"o":"m 28 -132 l 85 0 l 40 128 l 160 133 l 154 0 l 88 -153 l 28 -132 z "},":":{"ha":286,"x_min":83,"x_max":217,"o":"m 83 681 l 217 675 l 217 547 l 89 547 l 83 681 m 83 128 l 217 133 l 211 0 l 83 0 l 83 128 z "},";":{"ha":286,"x_min":83,"x_max":217,"o":"m 83 681 l 217 675 l 217 547 l 89 547 l 83 681 m 83 -132 l 140 0 l 96 128 l 215 133 l 210 0 l 143 -153 l 83 -132 z "},"…":{"ha":858,"x_min":83,"x_max":789,"o":"m 83 128 l 217 133 l 211 0 l 83 0 l 83 128 m 369 128 l 503 133 l 497 0 l 369 0 l 369 128 m 656 128 l 789 133 l 783 0 l 656 0 l 656 128 z "},"!":{"ha":286,"x_min":69,"x_max":214,"o":"m 101 264 l 69 986 l 214 986 l 161 256 l 101 264 m 69 128 l 203 133 l 197 0 l 69 0 l 69 128 z "},"¡":{"ha":286,"x_min":58,"x_max":203,"o":"m 69 865 l 75 986 l 203 986 l 199 858 l 69 865 m 108 726 l 165 726 l 203 0 l 58 0 l 108 726 z "},"?":{"ha":464,"x_min":71,"x_max":375,"o":"m 140 226 l 140 499 l 254 683 l 271 897 l 168 897 l 143 864 l 139 753 l 71 763 l 71 958 l 190 986 l 375 986 l 357 644 l 222 443 l 203 215 l 140 226 m 108 128 l 242 133 l 236 0 l 108 0 l 108 128 z "},"¿":{"ha":464,"x_min":106,"x_max":410,"o":"m 236 865 l 242 986 l 369 986 l 365 858 l 236 865 m 124 342 l 258 517 l 276 729 l 339 729 l 339 461 l 226 303 l 210 89 l 313 89 l 313 233 l 381 224 l 410 28 l 290 0 l 106 0 l 124 342 z "},"·":{"ha":286,"x_min":83,"x_max":217,"o":"m 83 574 l 217 579 l 211 446 l 83 446 l 83 574 z "},"•":{"ha":365,"x_min":61,"x_max":274,"o":"m 61 590 l 274 583 l 267 378 l 71 378 l 61 590 z "},"*":{"ha":726,"x_min":76,"x_max":650,"o":"m 317 626 l 132 497 l 78 589 l 274 693 l 76 785 l 129 878 l 311 764 l 292 986 l 399 986 l 390 763 l 583 897 l 638 806 l 433 697 l 650 597 l 597 504 l 396 629 l 417 394 l 310 394 l 317 626 z "},"#":{"ha":567,"x_min":-7,"x_max":572,"o":"m 82 128 l 125 356 l -7 353 l -3 433 l 140 433 l 161 542 l 38 542 l 33 622 l 176 618 l 226 878 l 297 864 l 253 617 l 360 614 l 411 878 l 482 864 l 436 613 l 572 610 l 572 542 l 424 542 l 404 433 l 532 433 l 532 365 l 392 363 l 347 108 l 267 128 l 311 360 l 207 357 l 163 108 l 82 128 m 325 433 l 346 542 l 239 542 l 219 433 l 325 433 z "},"/":{"ha":342,"x_min":42,"x_max":300,"o":"m 42 0 l 229 1000 l 300 986 l 122 -19 l 42 0 z "},"\\":{"ha":342,"x_min":42,"x_max":300,"o":"m 42 986 l 113 1000 l 300 0 l 219 -19 l 42 986 z "},"(":{"ha":344,"x_min":56,"x_max":275,"o":"m 64 308 l 56 561 l 181 1058 l 275 1031 l 146 613 l 146 293 l 271 -68 l 181 -106 l 64 308 z "},")":{"ha":344,"x_min":69,"x_max":289,"o":"m 69 -78 l 199 340 l 199 660 l 74 1021 l 164 1058 l 281 644 l 289 392 l 164 -106 l 69 -78 z "},"{":{"ha":379,"x_min":-69,"x_max":310,"o":"m 160 -106 l 107 -50 l 92 293 l 36 456 l -67 450 l -69 524 l 38 524 l 93 642 l 93 1044 l 107 1057 l 310 1057 l 310 1001 l 168 986 l 182 635 l 104 489 l 188 340 l 188 -47 l 310 -47 l 310 -115 l 160 -106 z "},"}":{"ha":379,"x_min":69,"x_max":449,"o":"m 69 -58 l 211 -43 l 197 308 l 275 454 l 192 603 l 192 990 l 69 990 l 69 1058 l 219 1049 l 272 993 l 288 650 l 343 488 l 446 493 l 449 419 l 342 419 l 286 301 l 286 -101 l 272 -114 l 69 -114 l 69 -58 z "},"[":{"ha":342,"x_min":56,"x_max":272,"o":"m 56 -106 l 56 1058 l 272 1058 l 272 1001 l 146 996 l 146 -47 l 272 -43 l 272 -112 l 56 -106 z "},"]":{"ha":342,"x_min":69,"x_max":286,"o":"m 69 -56 l 196 -50 l 196 993 l 69 989 l 69 1058 l 286 1050 l 286 -112 l 69 -112 l 69 -56 z "},"-":{"ha":471,"x_min":14,"x_max":456,"o":"m 14 508 l 456 496 l 456 428 l 18 428 l 14 508 z "},"­":{"ha":414,"x_min":14,"x_max":400,"o":"m 14 508 l 400 496 l 400 428 l 18 428 l 14 508 z "},"–":{"ha":469,"x_min":65,"x_max":404,"o":"m 65 529 l 404 522 l 400 443 l 65 428 l 65 529 z "},"—":{"ha":571,"x_min":68,"x_max":504,"o":"m 68 529 l 504 522 l 500 443 l 68 428 l 68 529 z "},"‐":{"ha":471,"x_min":14,"x_max":456,"o":"m 14 508 l 456 496 l 456 428 l 18 428 l 14 508 z "},"_":{"ha":571,"x_min":68,"x_max":504,"o":"m 68 -56 l 504 -62 l 500 -142 l 68 -157 l 68 -56 z "},"‚":{"ha":275,"x_min":60,"x_max":211,"o":"m 60 -176 l 125 -25 l 74 121 l 211 128 l 204 -25 l 128 -200 l 60 -176 z "},"„":{"ha":483,"x_min":60,"x_max":415,"o":"m 60 -176 l 125 -25 l 74 121 l 211 128 l 204 -25 l 128 -200 l 60 -176 m 264 -176 l 329 -25 l 278 121 l 415 128 l 408 -25 l 332 -200 l 264 -176 z "},"“":{"ha":483,"x_min":60,"x_max":414,"o":"m 67 829 l 143 1004 l 211 981 l 146 829 l 197 683 l 60 676 l 67 829 m 269 829 l 346 1004 l 414 981 l 349 829 l 400 683 l 263 676 l 269 829 z "},"”":{"ha":483,"x_min":60,"x_max":414,"o":"m 60 689 l 125 840 l 74 986 l 211 993 l 204 840 l 128 665 l 60 689 m 263 689 l 328 840 l 276 986 l 414 993 l 407 840 l 331 665 l 263 689 z "},"‘":{"ha":275,"x_min":60,"x_max":211,"o":"m 67 829 l 143 1004 l 211 981 l 146 829 l 197 683 l 60 676 l 67 829 z "},"’":{"ha":275,"x_min":60,"x_max":211,"o":"m 60 688 l 125 839 l 74 985 l 211 992 l 204 839 l 128 664 l 60 688 z "},"«":{"ha":664,"x_min":43,"x_max":608,"o":"m 43 442 l 46 478 l 271 796 l 350 719 l 151 483 l 151 478 l 347 210 l 261 133 l 43 442 m 304 465 l 301 493 l 519 796 l 606 719 l 410 493 l 410 488 l 608 210 l 529 133 l 304 465 z "},"»":{"ha":664,"x_min":56,"x_max":621,"o":"m 56 210 l 254 488 l 254 493 l 58 719 l 144 796 l 363 493 l 360 465 l 135 133 l 56 210 m 317 210 l 513 478 l 513 483 l 314 719 l 393 796 l 618 478 l 621 442 l 403 133 l 317 210 z "},"‹":{"ha":399,"x_min":43,"x_max":350,"o":"m 43 442 l 46 478 l 271 796 l 350 719 l 151 483 l 151 478 l 347 210 l 261 133 l 43 442 z "},"›":{"ha":399,"x_min":49,"x_max":356,"o":"m 51 210 l 247 478 l 247 483 l 49 719 l 128 796 l 353 478 l 356 442 l 138 133 l 51 210 z "},"\"":{"ha":429,"x_min":69,"x_max":360,"o":"m 69 986 l 176 986 l 167 697 l 96 683 l 69 986 m 253 986 l 360 986 l 350 697 l 279 683 l 253 986 z "},"'":{"ha":246,"x_min":69,"x_max":176,"o":"m 69 986 l 176 986 l 167 697 l 96 683 l 69 986 z "},"⟨":{"ha":344,"x_min":42,"x_max":275,"o":"m 42 394 l 181 1058 l 275 1042 l 129 418 l 274 -74 l 181 -106 l 42 394 z "},"⟩":{"ha":358,"x_min":69,"x_max":303,"o":"m 74 -68 l 213 446 l 69 1031 l 164 1058 l 303 394 l 164 -106 l 74 -68 z "}," ":{"ha":625,"x_min":0,"x_max":0,"o":""}," ":{"ha":465,"x_min":0,"x_max":0,"o":""}," ":{"ha":278,"x_min":0,"x_max":0,"o":""}," ":{"ha":206,"x_min":0,"x_max":0,"o":""}," ":{"ha":278,"x_min":0,"x_max":0,"o":""},"₵":{"ha":471,"x_min":58,"x_max":411,"o":"m 214 -121 l 214 28 l 115 28 l 58 86 l 86 907 q 112 962 88 938 q 179 986 136 986 l 229 986 l 229 1126 l 296 1126 l 303 986 l 411 986 l 389 761 l 325 761 l 325 904 q 308 917 325 917 l 215 889 q 177 856 185 879 q 169 788 169 832 l 169 138 q 178 129 169 129 l 322 129 q 339 138 339 129 l 339 232 l 375 260 l 411 260 l 411 28 l 282 28 l 289 -124 l 214 -121 z "},"¢":{"ha":471,"x_min":72,"x_max":439,"o":"m 214 -121 l 214 28 l 129 28 l 72 86 l 86 532 q 112 587 88 563 q 179 611 136 611 l 229 611 l 239 765 l 306 765 l 303 611 l 439 611 l 417 386 l 353 386 l 353 529 q 336 542 353 542 l 224 526 q 185 493 193 517 q 178 425 178 469 l 169 138 q 178 129 169 129 l 336 129 q 353 138 353 129 l 353 232 l 389 260 l 425 260 l 425 28 l 282 28 l 289 -124 l 214 -121 z "},"₡":{"ha":436,"x_min":47,"x_max":413,"o":"m 214 -125 l 235 28 l 192 28 l 176 -129 l 111 -122 l 131 28 l 104 28 l 47 86 l 75 907 q 168 986 78 986 l 186 985 l 238 978 l 261 1124 l 313 1117 l 294 971 l 340 965 l 367 1113 l 413 1103 l 400 957 l 378 733 l 314 733 l 321 863 q 304 875 321 875 l 211 875 q 173 853 181 875 q 165 788 165 832 l 165 138 q 174 129 165 129 l 311 129 q 328 138 328 129 l 328 242 l 354 260 l 400 260 l 400 28 l 290 28 l 281 -140 l 214 -125 z "},"¤":{"ha":471,"x_min":14,"x_max":457,"o":"m 14 269 l 88 343 l 75 639 l 14 693 l 65 758 l 139 678 l 339 668 l 410 732 l 457 697 l 393 626 l 406 375 l 379 349 l 457 279 l 406 224 l 332 304 l 151 304 l 61 222 l 14 269 m 310 400 q 324 406 318 401 q 331 417 331 411 l 322 590 q 306 606 322 600 l 174 606 q 151 597 151 606 l 168 396 q 173 388 168 392 q 185 383 178 383 l 310 400 z "},"$":{"ha":471,"x_min":90,"x_max":382,"o":"m 172 0 l 94 0 l 90 83 l 304 83 l 288 451 l 94 493 l 94 921 q 112 965 94 943 q 150 986 129 986 l 219 986 l 213 1126 l 288 1124 l 288 986 l 382 986 l 382 911 l 172 904 l 185 569 l 382 524 l 382 83 q 353 27 382 54 q 293 0 324 0 l 246 0 l 246 -137 l 179 -137 l 172 0 z "},"₫":{"ha":408,"x_min":50,"x_max":396,"o":"m 396 942 l 396 861 l 347 861 l 342 158 l 136 158 q 81 170 96 158 q 65 208 65 182 l 63 733 q 78 789 63 769 q 121 808 94 808 l 250 808 l 249 861 l 124 861 l 119 928 l 246 935 l 244 1001 l 349 1001 l 349 939 l 396 942 m 253 710 q 240 722 253 722 l 163 722 q 152 719 154 722 q 150 710 150 717 l 163 254 q 165 248 163 250 q 175 246 167 246 l 233 246 q 244 248 242 246 q 246 254 246 250 l 253 710 m 50 94 l 354 108 l 354 28 l 54 28 l 50 94 z "},"€":{"ha":471,"x_min":28,"x_max":415,"o":"m 111 350 l 28 350 l 32 432 l 111 435 l 111 543 l 28 540 l 28 635 l 111 635 l 111 986 l 415 986 l 379 892 l 239 911 q 217 903 217 911 l 207 636 l 389 636 l 385 554 l 204 547 l 201 438 l 389 444 l 383 350 l 199 350 l 190 108 q 195 100 190 104 q 207 96 200 96 l 361 96 l 411 40 l 401 0 l 111 0 l 111 350 z "},"ƒ":{"ha":432,"x_min":-92,"x_max":411,"o":"m -92 -103 l -85 -44 l 63 -28 l 108 535 l 43 553 l 43 622 l 115 626 l 139 908 l 222 979 l 411 958 l 404 872 l 243 856 l 225 621 l 385 621 l 378 540 l 193 517 l 165 -54 l 90 -121 l -92 -103 z "},"₣":{"ha":369,"x_min":-21,"x_max":336,"o":"m 57 213 l -14 213 l -21 286 l 60 289 l 82 986 l 336 986 l 336 864 l 165 864 l 165 588 l 317 588 l 317 518 l 172 493 l 172 293 l 289 299 l 290 213 l 172 213 l 172 0 l 50 0 l 57 213 z "},"₲":{"ha":471,"x_min":56,"x_max":401,"o":"m 174 0 l 86 0 l 56 911 q 76 965 57 944 q 124 986 94 986 l 219 986 l 213 1126 l 288 1124 l 288 986 l 401 986 l 401 928 l 376 776 l 315 776 l 315 910 l 160 875 l 183 156 q 193 138 183 146 q 213 131 203 131 l 276 131 q 295 135 286 131 q 304 147 304 140 l 304 378 l 250 404 l 250 476 l 392 463 l 392 81 q 363 22 392 44 q 294 0 333 0 l 246 0 l 246 -137 l 179 -137 l 174 0 z "},"₭":{"ha":397,"x_min":0,"x_max":407,"o":"m 63 447 l 0 447 l 4 529 l 61 526 l 53 972 l 89 986 l 147 986 l 147 531 l 218 540 l 244 982 l 339 986 l 315 599 l 278 524 l 403 528 l 407 447 l 279 447 l 375 29 l 350 0 l 268 0 l 199 447 l 165 447 l 164 446 l 164 0 l 71 0 l 63 447 z "},"₤":{"ha":471,"x_min":44,"x_max":442,"o":"m 44 60 l 104 99 l 160 231 l 158 356 l 51 356 l 56 435 l 149 438 l 142 522 l 53 522 l 53 617 l 132 614 l 94 908 q 124 964 94 942 q 206 986 153 986 l 442 986 l 442 908 l 419 735 l 356 735 l 342 892 q 325 904 342 904 l 218 904 l 185 892 l 229 610 l 411 603 l 403 521 l 242 521 l 249 440 l 388 436 l 382 356 l 261 356 l 263 239 l 224 114 l 426 89 l 426 0 l 44 0 l 44 60 z "},"₺":{"ha":485,"x_min":-22,"x_max":444,"o":"m 56 0 l 56 332 l -14 294 l -10 376 l 56 413 l 56 522 l -14 485 l -22 579 l 56 615 l 56 986 l 190 986 l 181 681 l 372 758 l 379 686 l 176 592 l 174 482 l 378 581 l 383 501 l 171 393 l 161 107 l 276 96 l 326 218 l 353 367 l 444 347 l 417 181 l 340 -3 l 56 0 z "},"₼":{"ha":556,"x_min":71,"x_max":486,"o":"m 486 931 l 486 0 l 369 0 l 399 892 l 322 896 l 317 210 l 240 210 l 247 665 l 243 900 l 181 904 l 181 0 l 97 0 l 72 908 q 90 966 71 946 q 147 986 110 986 l 243 986 l 240 1128 l 324 1128 l 322 986 l 426 986 l 486 931 z "},"₦":{"ha":561,"x_min":-24,"x_max":561,"o":"m 67 474 l -24 479 l -24 556 l 67 558 l 67 986 l 228 986 l 353 81 l 358 81 l 389 986 l 469 986 l 464 553 l 561 553 l 557 471 l 463 476 l 456 0 l 296 0 l 154 904 l 149 904 l 149 0 l 67 0 l 67 474 z "},"₧":{"ha":399,"x_min":0,"x_max":399,"o":"m 394 668 l 343 665 l 347 526 l 299 440 l 146 425 l 135 0 l 39 0 l 60 656 l 0 654 l 0 749 l 63 749 l 71 996 l 226 989 q 310 973 288 986 q 335 915 333 960 l 340 750 l 399 750 l 394 668 m 253 917 l 154 906 l 154 531 l 244 535 q 253 543 253 535 l 253 917 z "},"₱":{"ha":413,"x_min":0,"x_max":413,"o":"m 75 600 l 0 599 l 0 685 l 74 690 l 74 753 l 0 751 l 0 838 l 72 833 l 71 992 l 240 989 q 324 974 301 988 q 349 915 347 960 l 351 836 l 413 833 l 413 765 l 354 763 l 356 694 l 413 694 l 413 613 l 358 615 l 361 526 l 313 440 l 169 425 l 186 0 l 81 0 l 75 600 m 258 535 q 267 543 267 535 l 267 917 l 175 910 q 160 903 165 908 q 154 888 154 897 l 167 531 l 258 535 z "},"₽":{"ha":403,"x_min":0,"x_max":358,"o":"m 61 203 l 0 200 l 0 281 l 61 281 l 61 986 l 233 986 q 322 966 286 986 q 358 918 358 946 l 358 526 q 348 488 358 511 q 306 445 338 465 q 215 425 274 425 l 154 425 l 158 282 l 286 282 l 288 214 l 161 208 l 168 0 l 61 0 l 61 203 m 238 521 q 246 529 246 524 l 260 879 q 244 910 258 897 q 201 924 231 924 l 178 924 q 161 914 161 924 l 161 518 q 166 510 161 514 q 178 507 171 507 l 238 521 z "},"₹":{"ha":483,"x_min":56,"x_max":454,"o":"m 56 488 l 56 536 l 206 569 q 237 588 226 574 q 247 624 247 603 l 249 717 l 60 706 l 57 778 l 247 788 l 242 913 l 56 903 l 56 986 l 454 986 l 454 924 l 331 918 l 321 906 l 349 792 l 451 799 l 447 719 l 349 718 l 300 514 l 151 486 l 431 0 l 321 0 l 56 488 z "},"£":{"ha":471,"x_min":44,"x_max":433,"o":"m 44 60 l 104 99 l 164 272 l 142 467 l 53 467 l 53 561 l 132 558 l 94 908 q 124 964 94 942 q 206 986 153 986 l 433 986 l 433 908 l 411 735 l 347 735 l 333 892 q 317 904 333 904 l 218 904 l 185 892 l 229 554 l 410 547 l 414 465 l 242 465 l 267 281 l 224 114 l 426 89 l 426 0 l 44 0 l 44 60 z "},"₩":{"ha":604,"x_min":0,"x_max":615,"o":"m 615 458 l 558 458 l 538 0 l 390 0 l 311 671 l 306 671 l 261 0 l 115 0 l 71 463 l 0 471 l 0 525 l 64 525 l 19 985 l 110 985 l 181 51 l 186 51 l 275 968 l 354 968 l 346 799 l 467 32 l 474 32 l 499 986 l 583 986 l 563 528 l 615 519 l 615 458 z "},"¥":{"ha":471,"x_min":28,"x_max":442,"o":"m 197 239 l 28 239 l 32 321 l 197 325 l 197 400 l 28 394 l 28 489 l 197 489 l 197 490 l 104 656 l 104 986 l 193 986 l 211 599 l 261 594 l 286 986 l 364 986 l 364 626 l 281 490 l 442 490 l 438 408 l 283 403 l 283 328 l 442 333 l 436 239 l 285 239 l 290 0 l 197 0 l 197 239 z "},"∙":{"ha":385,"x_min":69,"x_max":315,"o":"m 69 524 l 78 600 l 218 611 l 315 600 l 315 413 l 261 364 l 88 364 l 69 524 z "},"⁒":{"ha":429,"x_min":28,"x_max":401,"o":"m 32 0 l 303 1000 l 388 986 l 106 -19 l 32 0 m 28 854 l 28 988 l 172 986 l 186 939 l 172 846 l 71 840 l 28 854 m 243 61 l 243 131 l 307 147 l 401 144 l 394 -1 l 257 -1 l 243 61 z "},"∕":{"ha":549,"x_min":0,"x_max":549,"o":"m 0 46 l 501 982 l 549 943 l 54 -3 l 0 46 z "},"+":{"ha":471,"x_min":14,"x_max":456,"o":"m 194 428 l 14 428 l 14 508 l 201 501 l 193 717 l 275 717 l 275 508 l 456 496 l 456 428 l 275 428 l 261 219 l 194 219 l 194 428 z "},"−":{"ha":471,"x_min":14,"x_max":456,"o":"m 14 539 l 456 526 l 456 458 l 18 458 l 14 539 z "},"×":{"ha":471,"x_min":22,"x_max":447,"o":"m 235 414 l 86 244 l 22 307 l 190 467 l 22 650 l 83 713 l 249 533 l 390 700 l 447 644 l 289 474 l 443 310 l 375 240 l 235 414 z "},"÷":{"ha":471,"x_min":14,"x_max":456,"o":"m 182 617 l 182 744 l 310 744 l 315 611 l 182 617 m 14 508 l 456 496 l 456 428 l 18 428 l 14 508 m 182 311 l 315 317 l 310 183 l 182 183 l 182 311 z "},"=":{"ha":471,"x_min":28,"x_max":442,"o":"m 28 622 l 442 622 l 438 540 l 28 526 l 28 622 m 32 390 l 442 403 l 436 308 l 28 308 l 32 390 z "},"≠":{"ha":471,"x_min":28,"x_max":442,"o":"m 71 157 l 133 308 l 28 308 l 32 390 l 169 394 l 226 533 l 28 526 l 28 621 l 263 621 l 346 826 l 400 788 l 336 622 l 442 622 l 438 540 l 301 536 l 246 396 l 442 403 l 436 308 l 211 308 l 132 108 l 71 157 z "},">":{"ha":471,"x_min":42,"x_max":428,"o":"m 44 335 l 328 458 l 328 464 l 42 636 l 92 717 l 422 506 l 428 414 l 121 219 l 44 335 z "},"<":{"ha":471,"x_min":43,"x_max":429,"o":"m 43 414 l 49 506 l 379 717 l 429 636 l 143 464 l 143 458 l 426 307 l 364 219 l 43 414 z "},"≥":{"ha":471,"x_min":14,"x_max":456,"o":"m 58 419 l 328 557 l 328 563 l 42 740 l 92 821 l 422 610 l 428 518 l 121 324 l 58 419 m 14 247 l 456 235 l 456 167 l 18 167 l 14 247 z "},"≤":{"ha":471,"x_min":14,"x_max":456,"o":"m 43 518 l 49 610 l 379 821 l 429 740 l 143 568 l 143 563 l 426 411 l 364 324 l 43 518 m 14 247 l 456 235 l 456 167 l 18 167 l 14 247 z "},"±":{"ha":471,"x_min":14,"x_max":456,"o":"m 194 542 l 14 542 l 14 622 l 201 615 l 193 831 l 275 831 l 275 622 l 456 610 l 456 542 l 275 542 l 261 333 l 194 333 l 194 542 m 14 247 l 456 235 l 456 167 l 18 167 l 14 247 z "},"≈":{"ha":471,"x_min":15,"x_max":457,"o":"m 15 578 l 146 643 l 228 610 q 275 592 254 599 q 310 585 296 585 q 339 592 321 585 q 381 611 357 600 l 457 647 l 457 564 l 342 497 l 217 543 q 185 555 204 547 q 156 563 167 563 q 128 556 140 563 q 78 526 115 550 l 19 489 l 15 578 m 15 367 l 146 432 l 228 399 q 275 381 254 388 q 310 374 296 374 q 339 381 321 374 q 381 400 357 389 l 457 436 l 457 353 l 342 286 l 217 332 q 185 344 204 336 q 156 351 167 351 q 128 345 140 351 q 78 315 115 339 l 19 278 l 15 367 z "},"~":{"ha":553,"x_min":56,"x_max":497,"o":"m 257 442 q 196 461 214 461 q 168 455 181 461 q 118 425 156 449 l 60 388 l 56 490 l 186 546 l 268 508 q 317 489 299 494 q 350 483 335 483 q 379 491 361 483 q 421 510 397 499 l 497 546 l 497 463 l 382 382 l 257 442 z "},"¬":{"ha":471,"x_min":14,"x_max":456,"o":"m 350 264 l 386 438 l 14 428 l 18 508 l 456 508 l 456 440 l 433 243 l 350 264 z "},"^":{"ha":514,"x_min":42,"x_max":472,"o":"m 42 411 l 232 681 l 288 676 l 472 411 l 432 385 l 260 583 l 82 385 l 42 411 z "},"∞":{"ha":550,"x_min":21,"x_max":529,"o":"m 324 342 l 260 447 l 203 356 l 74 349 l 21 451 l 35 653 l 207 653 l 269 569 l 311 654 l 476 640 l 529 592 l 514 379 l 439 318 l 324 342 m 200 424 l 238 501 l 218 553 l 104 567 l 83 424 l 200 424 m 469 553 l 332 565 l 297 510 l 331 446 l 458 417 l 469 553 z "},"∫":{"ha":485,"x_min":28,"x_max":457,"o":"m 28 224 l 89 224 l 114 76 l 186 139 l 201 883 q 230 956 203 926 q 297 986 257 986 l 457 986 l 457 782 l 385 792 l 385 910 l 285 917 l 285 131 l 181 0 l 28 0 l 28 224 z "},"∆":{"ha":458,"x_min":21,"x_max":438,"o":"m 21 14 l 200 972 l 297 986 l 438 0 l 21 14 m 331 103 l 247 919 l 229 922 l 128 89 l 331 103 z "},"∏":{"ha":414,"x_min":68,"x_max":351,"o":"m 68 975 l 351 986 l 351 32 l 282 32 l 254 890 l 147 899 l 147 0 l 68 0 l 68 975 z "},"∑":{"ha":439,"x_min":17,"x_max":392,"o":"m 17 43 l 213 507 l 33 892 l 110 986 l 392 986 l 392 906 l 165 878 l 335 539 l 144 115 l 360 140 l 376 14 l 32 0 l 17 43 z "},"√":{"ha":543,"x_min":14,"x_max":529,"o":"m 118 374 l 19 400 l 14 451 l 179 451 l 232 108 l 238 108 l 332 986 l 524 986 l 529 911 l 408 899 l 276 0 l 185 -14 l 118 374 z "},"∂":{"ha":471,"x_min":68,"x_max":415,"o":"m 68 539 l 199 586 l 311 586 l 126 978 l 194 1011 l 393 621 l 415 0 l 68 0 l 68 539 m 311 97 l 297 501 l 157 472 l 157 83 l 311 97 z "},"µ":{"ha":422,"x_min":49,"x_max":389,"o":"m 49 15 l 53 986 l 169 986 l 140 129 l 250 110 l 264 982 l 361 976 l 347 78 l 389 51 l 389 -12 l 124 15 l 169 -308 l 74 -317 l 49 15 z "},"%":{"ha":624,"x_min":33,"x_max":582,"o":"m 38 986 l 231 986 l 231 585 l 196 549 l 38 549 l 38 986 m 33 46 l 535 982 l 582 943 l 88 -3 l 33 46 m 163 611 q 172 619 172 611 l 158 906 q 150 914 158 910 l 108 935 q 97 931 97 935 l 111 617 q 119 611 111 611 l 163 611 m 385 438 l 543 438 l 578 401 l 578 0 l 385 0 l 385 438 m 497 72 q 506 81 506 76 l 519 367 q 510 375 519 375 l 467 375 q 458 369 458 375 l 444 56 q 456 51 444 51 l 497 72 z "},"‰":{"ha":907,"x_min":33,"x_max":846,"o":"m 38 986 l 231 986 l 231 585 l 196 549 l 38 549 l 38 986 m 33 46 l 535 982 l 582 943 l 88 -3 l 33 46 m 163 611 q 172 619 172 611 l 158 906 q 150 914 158 910 l 108 935 q 97 931 97 935 l 111 617 q 119 611 111 611 l 163 611 m 385 438 l 543 438 l 578 401 l 578 0 l 385 0 l 385 438 m 653 436 l 846 436 l 846 35 l 811 -1 l 653 -1 l 653 436 m 778 61 q 788 69 788 61 l 774 356 q 765 364 774 360 l 724 385 q 713 381 713 385 l 726 67 q 735 61 726 61 l 778 61 m 497 72 q 506 81 506 76 l 519 367 q 510 375 519 375 l 467 375 q 458 369 458 375 l 444 56 q 456 51 444 51 l 497 72 z "},"↑":{"ha":675,"x_min":60,"x_max":615,"o":"m 296 765 l 285 767 l 135 574 l 104 569 l 60 626 l 308 892 l 365 903 l 615 615 l 567 574 l 393 747 l 383 749 l 368 164 l 296 164 l 296 765 z "},"↗":{"ha":707,"x_min":92,"x_max":611,"o":"m 92 324 l 458 685 l 446 696 l 197 708 l 201 782 l 581 778 l 604 739 l 611 382 l 546 367 l 522 385 l 536 633 l 524 642 l 158 265 l 92 324 z "},"→":{"ha":711,"x_min":39,"x_max":667,"o":"m 343 286 l 535 476 l 532 490 l 44 485 l 39 574 l 519 564 l 515 585 l 358 776 l 414 825 l 667 549 l 656 504 l 425 228 l 343 286 z "},"↘":{"ha":697,"x_min":82,"x_max":599,"o":"m 182 367 l 447 346 l 456 358 l 82 725 l 140 792 l 500 410 l 511 426 l 525 686 l 599 682 l 594 303 l 556 279 l 199 265 l 182 367 z "},"↓":{"ha":675,"x_min":60,"x_max":615,"o":"m 60 451 l 108 493 l 278 314 l 292 313 l 307 903 l 379 903 l 378 296 l 390 294 l 536 489 l 575 492 l 615 440 l 367 164 l 310 164 l 60 451 z "},"↙":{"ha":696,"x_min":99,"x_max":614,"o":"m 156 301 l 113 344 l 99 710 l 167 710 l 199 453 l 207 446 l 563 781 l 614 731 l 257 378 l 508 382 l 529 361 l 518 285 l 156 301 z "},"←":{"ha":711,"x_min":44,"x_max":672,"o":"m 44 514 l 44 575 l 293 843 l 342 794 l 185 593 l 185 582 l 672 565 l 672 493 l 171 492 l 351 321 l 351 292 l 289 246 l 44 514 z "},"↖":{"ha":681,"x_min":76,"x_max":596,"o":"m 168 654 l 174 399 l 153 378 l 76 389 l 88 761 l 131 804 l 481 815 l 481 747 l 242 707 l 596 325 l 544 274 l 168 654 z "},"↔":{"ha":906,"x_min":44,"x_max":861,"o":"m 532 286 l 728 478 l 725 493 l 174 493 l 351 314 l 351 285 l 289 239 l 44 514 l 44 575 l 293 836 l 342 788 l 188 583 l 713 567 l 708 586 l 553 776 l 608 825 l 861 556 l 850 511 l 619 228 l 532 286 z "},"↕":{"ha":690,"x_min":60,"x_max":631,"o":"m 60 413 l 108 454 l 297 274 l 313 822 l 297 825 l 126 608 l 68 682 l 317 947 l 374 958 l 631 668 l 582 626 l 396 806 l 386 807 l 388 256 l 396 254 l 543 447 l 582 450 l 622 399 l 374 122 l 317 122 l 60 413 z "},"●":{"ha":972,"x_min":104,"x_max":864,"o":"m 611 96 q 521 88 565 88 q 344 121 429 88 q 197 214 260 154 q 110 350 135 274 q 184 667 104 525 q 396 890 264 808 q 576 860 475 896 q 756 763 678 825 q 850 636 833 701 q 864 501 864 581 q 810 260 864 353 l 611 96 z "},"○":{"ha":972,"x_min":104,"x_max":864,"o":"m 611 96 q 507 85 565 85 q 326 122 411 85 q 183 224 240 160 q 110 367 126 289 q 183 673 104 539 q 396 890 261 807 q 576 860 475 896 q 756 763 678 825 q 850 636 833 701 q 864 501 864 581 q 810 260 864 353 l 611 96 m 738 276 q 775 383 761 318 q 789 510 789 447 q 772 615 789 582 q 686 712 747 664 q 551 788 625 760 q 415 811 476 815 q 297 697 350 769 q 216 535 244 625 q 190 351 188 444 q 307 215 222 268 q 496 161 392 161 q 567 168 528 161 l 738 276 z "},"◆":{"ha":944,"x_min":63,"x_max":882,"o":"m 63 454 l 72 511 l 428 908 l 485 926 l 882 515 l 869 456 l 518 64 l 461 47 l 63 454 z "},"◇":{"ha":944,"x_min":63,"x_max":882,"o":"m 426 64 l 75 456 l 63 515 l 460 926 l 517 908 l 872 511 l 882 454 l 483 47 l 426 64 m 789 464 l 779 511 l 508 813 l 464 826 l 156 513 l 163 468 l 438 163 l 482 147 l 789 464 z "},"◊":{"ha":458,"x_min":7,"x_max":451,"o":"m 7 486 l 200 972 l 311 986 l 451 472 l 258 14 l 147 0 l 7 486 m 338 442 l 235 878 l 229 881 l 115 526 l 218 81 l 229 78 l 338 442 z "},"▲":{"ha":949,"x_min":42,"x_max":907,"o":"m 63 163 l 42 200 l 471 854 l 535 821 l 907 182 l 883 143 l 63 163 z "},"▼":{"ha":949,"x_min":42,"x_max":907,"o":"m 42 797 l 63 835 l 883 854 l 907 815 l 535 176 l 471 143 l 42 797 z "},"◀":{"ha":833,"x_min":67,"x_max":764,"o":"m 67 488 l 100 551 l 725 924 l 764 900 l 744 79 l 707 58 l 67 488 z "},"▷":{"ha":861,"x_min":97,"x_max":794,"o":"m 97 82 l 117 903 l 154 924 l 794 494 l 761 431 l 136 58 l 97 82 m 694 469 l 692 479 l 189 803 l 182 174 l 694 469 z "},"◁":{"ha":861,"x_min":67,"x_max":764,"o":"m 67 488 l 100 551 l 725 924 l 764 900 l 744 79 l 707 58 l 67 488 m 679 808 l 167 513 l 169 503 l 672 179 l 679 808 z "},"►":{"ha":833,"x_min":97,"x_max":794,"o":"m 97 82 l 117 903 l 154 924 l 794 494 l 761 431 l 136 58 l 97 82 z "},"▸":{"ha":544,"x_min":56,"x_max":519,"o":"m 68 217 l 56 764 l 81 779 l 497 532 l 519 489 l 93 203 l 68 217 z "},"◂":{"ha":544,"x_min":25,"x_max":489,"o":"m 47 450 l 25 493 l 451 779 l 476 765 l 489 218 l 464 203 l 47 450 z "},"☚":{"ha":1196,"x_min":50,"x_max":1154,"o":"m 686 357 l 661 353 l 622 440 l 592 439 l 563 514 q 326 528 440 517 q 261 532 304 532 l 218 532 q 117 538 160 532 q 50 563 75 544 l 58 622 l 300 635 q 419 628 350 628 q 600 642 525 628 l 647 528 l 792 458 l 799 474 q 688 545 724 508 q 632 646 653 582 q 553 724 588 669 q 514 833 518 779 l 550 883 l 618 881 l 626 829 q 696 746 640 779 q 814 704 751 713 q 908 666 869 685 q 1007 614 947 647 q 903 365 958 457 q 823 317 868 335 q 713 283 778 299 l 686 357 m 879 307 q 941 357 918 324 q 980 447 964 390 q 1021 614 996 503 l 1108 626 l 1154 579 l 1136 279 l 1088 240 l 879 307 m 450 311 l 424 407 l 396 421 l 376 496 l 544 493 l 568 439 l 474 435 l 474 415 l 604 414 l 625 349 l 493 336 l 494 318 l 672 328 l 689 278 l 521 238 l 450 311 z "},"☛":{"ha":1196,"x_min":42,"x_max":1146,"o":"m 483 283 q 373 317 418 299 q 293 365 328 335 q 189 614 238 457 q 288 666 249 647 q 382 704 326 685 q 500 746 444 713 q 569 829 556 779 l 578 881 l 646 883 l 682 833 q 643 724 678 779 q 564 646 608 669 q 508 545 543 582 q 397 474 472 508 l 404 458 l 549 528 l 596 642 q 776 628 671 628 q 896 635 846 628 l 1138 622 l 1146 563 q 1074 537 1118 543 q 967 531 1029 531 l 922 531 q 869 528 883 531 q 633 514 756 517 l 604 439 l 574 440 l 535 353 l 510 357 l 483 283 m 60 279 l 42 579 l 88 626 l 175 614 q 216 447 200 503 q 255 357 232 390 q 317 307 278 324 l 108 240 l 60 279 m 507 278 l 524 328 l 701 318 l 703 336 l 571 349 l 592 414 l 722 415 l 722 435 l 628 439 l 651 493 l 819 496 l 800 421 l 772 407 l 746 311 l 675 238 l 507 278 z "},"✋":{"ha":763,"x_min":44,"x_max":710,"o":"m 404 6 q 328 135 376 72 q 219 239 279 199 q 99 279 158 279 q 78 276 90 279 q 60 272 65 274 l 44 350 l 89 396 q 292 304 206 385 q 313 319 299 310 q 328 331 328 329 q 297 463 328 353 q 235 654 267 572 l 199 808 l 256 835 q 281 769 267 806 q 303 714 296 732 l 325 657 q 347 589 328 649 q 369 524 361 550 q 383 460 378 497 q 399 464 394 464 q 360 831 396 644 l 365 976 q 400 978 374 978 q 450 974 429 978 l 475 485 l 488 488 q 496 610 496 563 q 485 756 496 671 l 508 903 q 525 904 513 904 q 567 894 550 904 l 576 743 l 553 490 l 561 488 l 617 669 l 658 749 q 688 737 671 746 q 710 719 706 728 q 665 569 688 631 q 607 453 642 507 q 633 165 633 313 l 578 32 l 404 6 z "},"✌":{"ha":763,"x_min":53,"x_max":718,"o":"m 185 32 l 129 165 q 156 453 129 313 q 98 569 121 507 q 53 719 75 631 q 75 737 57 728 q 104 749 93 746 l 146 669 l 201 488 l 210 490 l 186 743 l 196 894 q 238 904 213 904 q 254 903 250 904 l 278 756 q 267 610 267 671 q 275 488 267 563 l 288 485 l 313 974 q 363 978 333 978 q 397 976 389 978 l 403 831 q 364 464 367 644 q 379 460 368 464 q 393 524 385 497 q 415 589 401 550 q 438 657 435 649 l 460 714 q 481 769 467 732 q 507 835 496 806 l 564 808 l 528 654 q 465 463 496 572 q 435 331 435 353 q 449 319 435 329 q 471 304 464 310 q 674 396 557 385 l 718 350 l 703 272 q 685 276 697 274 q 664 279 672 279 q 544 239 604 279 q 435 135 483 199 q 358 6 386 72 l 185 32 z "},"@":{"ha":813,"x_min":82,"x_max":731,"o":"m 82 986 l 731 986 l 689 157 l 267 185 l 244 454 l 361 529 l 461 529 l 468 679 l 425 717 l 258 697 l 288 792 l 543 792 l 525 243 l 606 243 l 651 883 l 639 892 l 199 908 l 186 900 l 160 85 l 172 72 l 660 51 l 646 0 l 82 0 l 82 986 m 463 458 l 347 429 l 342 296 l 456 268 l 463 458 z "},"&":{"ha":499,"x_min":53,"x_max":497,"o":"m 53 406 l 61 439 l 107 489 l 57 565 l 71 986 l 394 986 l 394 739 l 329 739 l 317 878 q 306 885 317 883 q 294 886 296 886 l 168 904 q 154 890 154 904 l 168 547 l 483 547 l 497 483 l 378 471 l 408 443 l 408 58 l 344 0 l 53 0 l 53 406 m 308 90 l 321 464 l 167 449 l 154 83 l 308 90 z "},"¶":{"ha":508,"x_min":39,"x_max":497,"o":"m 256 481 l 182 481 q 92 501 124 481 q 49 544 60 521 q 39 582 39 567 l 39 918 q 75 966 39 946 q 164 986 111 986 l 497 986 l 497 946 l 439 929 l 439 -139 l 394 -139 l 360 925 l 322 931 l 322 -139 l 256 -139 l 256 481 z "},"§":{"ha":432,"x_min":56,"x_max":376,"o":"m 56 -232 l 249 -232 l 249 85 l 69 126 l 107 513 l 65 522 l 81 953 l 136 986 l 339 986 l 332 790 l 281 790 l 253 899 l 185 889 l 149 585 l 367 576 l 332 167 l 376 157 l 343 -243 q 312 -299 340 -272 q 254 -326 283 -326 l 56 -326 l 56 -232 m 267 481 l 201 493 l 181 203 l 238 189 l 267 481 z "},"©":{"ha":800,"x_min":83,"x_max":732,"o":"m 83 986 l 732 986 l 681 0 l 83 0 l 83 986 m 653 883 l 640 892 l 200 908 l 188 900 l 161 85 l 174 72 l 590 56 l 653 883 m 256 211 l 256 740 q 281 795 256 771 q 349 819 306 819 l 367 818 l 525 790 l 503 567 l 439 567 l 439 724 q 422 736 439 736 l 392 736 q 354 714 363 736 q 346 649 346 692 l 346 235 q 354 226 346 226 l 436 226 q 453 235 453 226 l 453 357 l 489 385 l 525 385 l 525 153 l 313 153 l 256 211 z "},"®":{"ha":793,"x_min":83,"x_max":732,"o":"m 83 986 l 681 986 l 732 0 l 83 0 l 83 986 m 640 94 l 653 103 l 590 931 l 174 914 l 161 901 l 188 86 l 200 78 l 640 94 m 267 764 l 236 781 l 236 821 l 425 821 q 501 802 475 821 q 529 753 528 783 l 515 574 q 500 513 513 532 q 454 481 488 493 l 510 385 l 539 168 l 449 168 l 449 340 l 389 472 l 333 472 l 333 168 l 267 168 l 267 764 m 429 536 q 438 544 438 536 l 438 721 q 428 753 438 740 q 393 765 419 765 l 369 751 q 353 735 353 742 l 353 547 q 358 540 353 543 q 369 536 363 536 l 429 536 z "},"™":{"ha":538,"x_min":42,"x_max":497,"o":"m 244 986 l 332 986 l 368 731 l 374 731 l 404 1000 l 497 1000 l 497 507 l 438 507 l 453 953 l 447 953 l 392 629 l 343 629 l 299 919 l 293 919 l 293 494 l 244 494 l 244 986 m 89 953 l 42 961 l 47 986 l 208 986 l 208 949 l 158 949 l 158 521 l 89 521 l 89 953 z "},"°":{"ha":329,"x_min":69,"x_max":265,"o":"m 222 701 q 120 708 171 701 q 69 718 69 714 l 69 960 q 107 986 69 986 l 258 986 l 265 718 q 253 707 265 713 q 222 701 240 701 m 194 771 q 200 775 200 772 l 206 929 l 199 936 l 124 918 l 131 768 l 136 764 l 194 771 z "},"′":{"ha":253,"x_min":60,"x_max":194,"o":"m 60 675 l 85 997 l 194 992 l 185 856 l 128 664 l 60 675 z "},"″":{"ha":433,"x_min":60,"x_max":375,"o":"m 60 675 l 85 997 l 194 992 l 185 856 l 128 664 l 60 675 m 233 675 l 265 997 l 375 992 l 365 897 l 308 664 l 233 675 z "},"|":{"ha":267,"x_min":104,"x_max":174,"o":"m 104 -175 l 104 1058 l 174 1058 l 174 -179 l 104 -175 z "},"¦":{"ha":267,"x_min":100,"x_max":174,"o":"m 104 561 l 104 1058 l 164 1058 l 174 557 l 104 561 m 110 329 l 169 329 l 169 -168 l 100 -172 l 110 329 z "},"†":{"ha":440,"x_min":0,"x_max":442,"o":"m 186 -175 l 186 601 l 4 601 l 0 682 l 186 676 l 186 1058 l 275 1058 l 269 674 l 442 669 l 442 601 l 268 601 l 256 -179 l 186 -175 z "},"‡":{"ha":440,"x_min":0,"x_max":442,"o":"m 186 -175 l 186 256 l 0 263 l 0 326 l 186 326 l 186 601 l 4 601 l 0 682 l 186 676 l 186 1058 l 274 1058 l 268 674 l 442 669 l 442 601 l 267 601 l 263 328 l 442 328 l 438 247 l 261 253 l 256 -179 l 186 -175 z "},"№":{"ha":876,"x_min":33,"x_max":818,"o":"m 33 986 l 194 986 l 319 81 l 325 81 l 356 986 l 436 986 l 422 0 l 263 0 l 121 904 l 115 904 l 115 0 l 33 0 l 33 986 m 524 500 l 524 942 l 583 986 l 757 986 l 813 947 l 813 492 l 725 442 l 606 442 l 524 500 m 708 529 q 719 531 717 529 q 721 538 721 533 l 732 901 q 730 911 732 908 q 719 914 728 914 l 615 914 q 603 901 603 914 l 610 538 q 612 531 610 532 q 622 529 614 529 l 708 529 m 514 375 l 814 382 l 818 308 l 514 307 l 514 375 z "},"ʼ":{"ha":208,"x_min":49,"x_max":171,"o":"m 49 769 l 113 872 l 54 872 l 54 986 l 167 986 l 171 872 l 125 747 l 49 769 z "},"ʺ":{"ha":315,"x_min":0,"x_max":315,"o":"m 0 675 l 32 997 l 142 992 l 132 897 l 75 664 l 0 675 m 181 675 l 206 997 l 315 992 l 306 856 l 249 664 l 181 675 z "},"ʹ":{"ha":135,"x_min":0,"x_max":135,"o":"m 0 675 l 25 997 l 135 992 l 125 856 l 68 664 l 0 675 z "},"̈":{"ha":0,"x_min":-304,"x_max":0,"o":"m -304 1038 l -189 1042 l -194 926 l -304 926 l -304 1038 m -110 1042 l 0 1042 l 0 931 l -106 926 l -110 1042 z "},"̇":{"ha":0,"x_min":-129,"x_max":0,"o":"m -129 1022 l 0 1022 l 0 890 l -124 886 l -129 1022 z "},"̀":{"ha":0,"x_min":-181,"x_max":0,"o":"m -181 1006 l -117 1072 l 0 922 l -47 889 l -181 1006 z "},"́":{"ha":0,"x_min":-181,"x_max":0,"o":"m -181 922 l -64 1072 l 0 1006 l -133 889 l -181 922 z "},"̋":{"ha":0,"x_min":-333,"x_max":0,"o":"m -333 922 l -217 1072 l -153 1006 l -286 889 l -333 922 m -181 922 l -64 1072 l 0 1006 l -133 889 l -181 922 z "},"̂":{"ha":0,"x_min":-261,"x_max":0,"o":"m -261 915 l -158 1072 l -103 1068 l 0 915 l -40 889 l -131 975 l -221 889 l -261 915 z "},"̌":{"ha":0,"x_min":-261,"x_max":0,"o":"m -158 893 l -261 1046 l -221 1072 l -131 986 l -40 1072 l 0 1046 l -103 889 l -158 893 z "},"̆":{"ha":0,"x_min":-296,"x_max":0,"o":"m -290 943 l -296 1056 l -222 1056 l -229 989 l -212 974 l -60 967 l -64 1058 l 0 1064 l 0 958 l -54 904 l -228 904 l -290 943 z "},"̊":{"ha":0,"x_min":-193,"x_max":0,"o":"m -193 1075 l 0 1075 l 0 924 l -35 888 l -193 888 l -193 1075 m -68 936 q -58 944 -58 936 l -58 1022 q -67 1031 -58 1026 l -122 1038 q -133 1033 -133 1038 l -133 942 q -125 936 -133 936 l -68 936 z "},"̃":{"ha":0,"x_min":-292,"x_max":0,"o":"m -292 967 l -264 997 q -212 1017 -240 1017 q -140 989 -181 1017 l -90 956 l 0 1021 l 0 946 l -25 915 q -53 892 -36 901 q -85 883 -71 883 q -144 910 -110 883 l -203 951 l -287 879 l -292 967 z "},"̄":{"ha":0,"x_min":-289,"x_max":0,"o":"m -289 1019 l 0 1019 l 0 950 l -285 938 l -289 1019 z "},"̉":{"ha":0,"x_min":-172,"x_max":0,"o":"m -139 947 l -79 971 l -82 1003 l -171 1013 l -172 1051 l -49 1058 q -13 1047 -26 1060 q 0 1010 0 1033 l 0 949 l -56 926 l -68 885 l -117 885 l -139 947 z "},"̏":{"ha":0,"x_min":-347,"x_max":0,"o":"m -347 1006 l -283 1072 l -167 922 l -214 889 l -347 1006 m -181 1006 l -117 1072 l 0 922 l -47 889 l -181 1006 z "},"̑":{"ha":0,"x_min":-254,"x_max":0,"o":"m -64 896 l -60 988 l -171 981 l -187 965 l -181 899 l -254 899 l -249 1011 l -186 1050 l -54 1050 l 0 996 l 0 890 l -64 896 z "},"̒":{"ha":0,"x_min":-111,"x_max":0,"o":"m -111 1029 l -69 1147 l -14 1133 l -33 1031 l -7 1008 l 0 917 l -111 915 l -111 1029 z "},"̛":{"ha":0,"x_min":-194,"x_max":0,"o":"m -194 808 l -112 808 l -79 944 l 0 931 l -51 776 l -86 747 l -194 747 l -194 808 z "},"̣":{"ha":0,"x_min":-129,"x_max":0,"o":"m -129 -78 l 0 -78 l 0 -210 l -124 -214 l -129 -78 z "},"̤":{"ha":0,"x_min":-304,"x_max":0,"o":"m -304 -90 l -189 -86 l -194 -201 l -304 -201 l -304 -90 m -110 -86 l 0 -86 l 0 -197 l -106 -201 l -110 -86 z "},"̦":{"ha":0,"x_min":-122,"x_max":0,"o":"m -122 -297 l -58 -194 l -117 -194 l -117 -81 l -4 -81 l 0 -194 l -46 -319 l -122 -297 z "},"̧":{"ha":0,"x_min":-276,"x_max":0,"o":"m -276 -208 l -97 -208 l -83 -135 l -229 -124 l -174 74 l -83 44 l -139 -62 l 0 -62 l -17 -206 q -46 -262 -17 -235 q -106 -289 -75 -289 l -276 -289 l -276 -208 z "},"̨":{"ha":0,"x_min":-243,"x_max":-1,"o":"m -243 -187 l -222 -90 l -58 36 l -24 28 l -24 0 l -151 -139 l -97 -193 l -1 -162 l -1 -203 l -111 -283 l -243 -187 z "},"̮":{"ha":0,"x_min":-296,"x_max":0,"o":"m -290 -192 l -296 -79 l -222 -79 l -229 -146 l -212 -161 l -60 -168 l -64 -76 l 0 -71 l 0 -176 l -54 -231 l -228 -231 l -290 -192 z "},"̱":{"ha":0,"x_min":-372,"x_max":0,"o":"m -372 -97 l 0 -97 l 0 -174 l -368 -186 l -372 -97 z "},"̵":{"ha":0,"x_min":-556,"x_max":0,"o":"m -556 486 l 0 486 l 0 410 l -551 397 l -556 486 z "},"´":{"ha":236,"x_min":28,"x_max":208,"o":"m 28 922 l 144 1072 l 208 1006 l 75 889 l 28 922 z "},"˘":{"ha":379,"x_min":42,"x_max":338,"o":"m 47 943 l 42 1056 l 115 1056 l 108 989 l 125 974 l 278 967 l 274 1058 l 338 1064 l 338 958 l 283 904 l 110 904 l 47 943 z "},"ˇ":{"ha":317,"x_min":28,"x_max":289,"o":"m 131 893 l 28 1046 l 68 1072 l 158 986 l 249 1072 l 289 1046 l 186 889 l 131 893 z "},"¸":{"ha":404,"x_min":56,"x_max":349,"o":"m 56 -208 l 235 -208 l 249 -135 l 103 -124 l 158 74 l 249 44 l 193 -62 l 349 -62 l 313 -215 q 280 -270 303 -251 q 222 -289 257 -289 l 56 -289 l 56 -208 z "},"ˆ":{"ha":317,"x_min":28,"x_max":289,"o":"m 28 915 l 131 1072 l 186 1068 l 289 915 l 249 889 l 158 975 l 68 889 l 28 915 z "},"¨":{"ha":401,"x_min":49,"x_max":353,"o":"m 49 1038 l 164 1042 l 158 926 l 49 926 l 49 1038 m 243 1042 l 353 1042 l 353 931 l 247 926 l 243 1042 z "},"˙":{"ha":213,"x_min":42,"x_max":171,"o":"m 42 1022 l 171 1022 l 171 890 l 47 886 l 42 1022 z "},"`":{"ha":236,"x_min":28,"x_max":208,"o":"m 28 1006 l 92 1072 l 208 922 l 161 889 l 28 1006 z "},"˝":{"ha":417,"x_min":28,"x_max":389,"o":"m 28 922 l 144 1072 l 208 1006 l 75 889 l 28 922 m 208 922 l 325 1072 l 389 1006 l 256 889 l 208 922 z "},"¯":{"ha":344,"x_min":28,"x_max":317,"o":"m 28 1019 l 317 1019 l 317 950 l 32 938 l 28 1019 z "},"˛":{"ha":418,"x_min":56,"x_max":297,"o":"m 56 -187 l 76 -90 l 240 36 l 275 28 l 275 0 l 147 -139 l 201 -193 l 297 -162 l 297 -203 l 188 -283 l 56 -187 z "},"˚":{"ha":276,"x_min":42,"x_max":235,"o":"m 42 1075 l 235 1075 l 235 924 l 200 888 l 42 888 l 42 1075 m 167 936 q 176 944 176 936 l 176 1022 q 168 1031 176 1026 l 113 1038 q 101 1033 101 1038 l 101 942 q 110 936 101 936 l 167 936 z "},"˜":{"ha":456,"x_min":82,"x_max":374,"o":"m 82 981 l 110 1011 q 161 1031 133 1031 q 233 1003 193 1031 l 283 969 l 374 1035 l 374 960 l 349 929 q 320 906 338 915 q 289 897 303 897 q 229 924 264 897 l 171 965 l 86 893 l 82 981 z "},"":{"ha":833,"x_min":0,"x_max":0,"o":""},"":{"ha":833,"x_min":0,"x_max":0,"o":""},"":{"ha":833,"x_min":0,"x_max":0,"o":""}}}
